<?xml version="1.0" encoding="UTF-8"?>
<svg width="104px" height="104px" viewBox="0 0 104 104" version="1.1" xmlns="http://www.w3.org/2000/svg" xmlns:xlink="http://www.w3.org/1999/xlink">
    <!-- Generator: Sketch 59.1 (86144) - https://sketch.com -->
    <title>culture-accept</title>
    <desc>Created with Sketch.</desc>
    <g id="Symbols" stroke="none" stroke-width="1" fill="none" fill-rule="evenodd">
        <g id="Home-icons-Copy" transform="translate(-262.000000, -521.000000)" stroke="#FFFFFF" stroke-width="4">
            <g id="accept" transform="translate(264.000000, 523.000000)">
                <circle id="Oval" cx="50" cy="50" r="50"></circle>
                <g id="handshake" transform="translate(50.000000, 49.000000) rotate(-45.000000) translate(-50.000000, -49.000000) translate(21.000000, 20.000000)">
                    <path d="M30.5,20.5 L44.5,20.5 C49.4705627,20.5 53.5,24.5294373 53.5,29.5 L53.5,29.5 L53.5,29.5 L36.4795918,29.5 C32.6248697,29.5 29.5,32.6248697 29.5,36.4795918 L29.5,41.2139147 C29.5,42.5918236 28.7273887,43.8533731 27.5,44.4795918 C26.2436996,45.1205615 24.7563004,45.1205615 23.5,44.4795918 C22.2726113,43.8533731 21.5,42.5918236 21.5,41.2139147 L21.5,29.5 C21.5,24.5294373 25.5294373,20.5 30.5,20.5 Z" id="Rectangle-Copy-22" stroke-linejoin="round" transform="translate(37.500000, 33.000000) rotate(90.000000) translate(-37.500000, -33.000000) "></path>
                    <path d="M9,16.8318719 C9,11.9541637 12.911484,8 17.736544,8 L32,8 C36.9705627,8 41,12.073404 41,17.0982025" id="Path" stroke-linejoin="round"></path>
                    <path d="M41,31.3833009 C41,38.9727756 41,45.0829078 41,49.7136977 C41,50.7134798 41,52.213153 41,54.2127171 C41,55.6056609 40.2273887,56.8809757 39,57.5140274 C37.7436996,58.1619909 36.2563004,58.1619909 35,57.5140274 C33.7726113,56.8809757 33,55.6056609 33,54.2127171 L33,43.0724361 L33,54.2127171 C33,55.6056609 32.2273887,56.8809757 31,57.5140274 C29.7436996,58.1619909 28.2563004,58.1619909 27,57.5140274 C25.7726113,56.8809757 25,55.6056609 25,54.2127171 L25,43.0724361 L25,54.2127171 C25,55.6056609 24.2273887,56.8809757 23,57.5140274 C21.7436996,58.1619909 20.2563004,58.1619909 19,57.5140274 C17.7726113,56.8809757 17,55.6056609 17,54.2127171 L17,43.0724361 L17,54.2127171 C17,55.6056609 16.2273887,56.8809757 15,57.5140274 C13.7436996,58.1619909 12.2563004,58.1619909 11,57.5140274 C9.77261131,56.8809757 9,55.6056609 9,54.2127171 L9,48.9988754" id="Path" stroke-linejoin="round"></path>
                    <path d="M3.75406592,41 L8.24593408,41 C9.5469157,41 10.7168276,41.7920689 11.2,43 L11.4057749,43.5144373 C11.7872326,44.4680814 11.7872326,45.5319186 11.4057749,46.4855627 L11.2,47 C10.7168276,48.2079311 9.5469157,49 8.24593408,49 L3.75406592,49 C2.4530843,49 1.28317244,48.2079311 0.8,47 L0.594225082,46.4855627 C0.212767434,45.5319186 0.212767434,44.4680814 0.594225082,43.5144373 L0.8,43 C1.28317244,41.7920689 2.4530843,41 3.75406592,41 Z" id="Rectangle"></path>
                    <path d="M3.75406592,33 L8.24593408,33 C9.5469157,33 10.7168276,33.7920689 11.2,35 L11.4057749,35.5144373 C11.7872326,36.4680814 11.7872326,37.5319186 11.4057749,38.4855627 L11.2,39 C10.7168276,40.2079311 9.5469157,41 8.24593408,41 L3.75406592,41 C2.4530843,41 1.28317244,40.2079311 0.8,39 L0.594225082,38.4855627 C0.212767434,37.5319186 0.212767434,36.4680814 0.594225082,35.5144373 L0.8,35 C1.28317244,33.7920689 2.4530843,33 3.75406592,33 Z" id="Rectangle-Copy-16"></path>
                    <path d="M3.75406592,25 L8.24593408,25 C9.5469157,25 10.7168276,25.7920689 11.2,27 L11.4057749,27.5144373 C11.7872326,28.4680814 11.7872326,29.5319186 11.4057749,30.4855627 L11.2,31 C10.7168276,32.2079311 9.5469157,33 8.24593408,33 L3.75406592,33 C2.4530843,33 1.28317244,32.2079311 0.8,31 L0.594225082,30.4855627 C0.212767434,29.5319186 0.212767434,28.4680814 0.594225082,27.5144373 L0.8,27 C1.28317244,25.7920689 2.4530843,25 3.75406592,25 Z" id="Rectangle-Copy-17"></path>
                    <path d="M3.75406592,17 L8.24593408,17 C9.5469157,17 10.7168276,17.7920689 11.2,19 L11.4057749,19.5144373 C11.7872326,20.4680814 11.7872326,21.5319186 11.4057749,22.4855627 L11.2,23 C10.7168276,24.2079311 9.5469157,25 8.24593408,25 L3.75406592,25 C2.4530843,25 1.28317244,24.2079311 0.8,23 L0.594225082,22.4855627 C0.212767434,21.5319186 0.212767434,20.4680814 0.594225082,19.5144373 L0.8,19 C1.28317244,17.7920689 2.4530843,17 3.75406592,17 Z" id="Rectangle-Copy-18"></path>
                    <rect id="Rectangle" stroke-linejoin="round" x="7" y="0" width="36" height="8"></rect>
                    <rect id="Rectangle" x="50" y="15" width="8" height="36"></rect>
                </g>
            </g>
        </g>
    </g>
</svg>