<?xml version="1.0" encoding="UTF-8"?>
<svg width="104px" height="104px" viewBox="0 0 104 104" version="1.1" xmlns="http://www.w3.org/2000/svg" xmlns:xlink="http://www.w3.org/1999/xlink">
    <!-- Generator: Sketch 59.1 (86144) - https://sketch.com -->
    <title>culture-new</title>
    <desc>Created with Sketch.</desc>
    <g id="Symbols" stroke="none" stroke-width="1" fill="none" fill-rule="evenodd">
        <g id="Home-icons-Copy" transform="translate(-502.000000, -521.000000)" stroke="#FFFFFF" stroke-width="4">
            <g id="new" transform="translate(504.000000, 523.000000)">
                <circle id="Oval-Copy-6" cx="50" cy="50" r="50"></circle>
                <path d="M71,43 C71.2800482,47.4200722 72.4800482,51.2200722 74.6,54.4 C76.7199518,57.5799278 79.5199518,59.7799278 83,61 C79.335137,62.4972945 76.535137,64.6972945 74.6,67.6 C72.664863,70.5027055 71.464863,74.3027055 71,79 C70.664863,74.4972945 69.464863,70.6972945 67.4,67.6 C65.335137,64.5027055 62.535137,62.3027055 59,61 C62.7199518,59.4200722 65.5199518,57.2200722 67.4,54.4 C69.2800482,51.5799278 70.4800482,47.7799278 71,43 Z M26,47 C26.2100361,50.3150542 27.1100361,53.1650542 28.7,55.55 C30.2899639,57.9349458 32.3899639,59.5849458 35,60.5 C32.2513528,61.6229708 30.1513528,63.2729708 28.7,65.45 C27.2486472,67.6270292 26.3486472,70.4770292 26,74 C25.7486472,70.6229708 24.8486472,67.7729708 23.3,65.45 C21.7513528,63.1270292 19.6513528,61.4770292 17,60.5 C19.7899639,59.3150542 21.8899639,57.6650542 23.3,55.55 C24.7100361,53.4349458 25.6100361,50.5849458 26,47 Z M49,21 C49.3267228,26.1567509 50.7267228,30.5900843 53.2,34.3 C55.6732772,38.0099157 58.9399438,40.5765824 63,42 C58.7243265,43.7468435 55.4576599,46.3135102 53.2,49.7 C50.9423401,53.0864898 49.5423401,57.5198231 49,63 C48.6090068,57.7468435 47.2090068,53.3135102 44.8,49.7 C42.3909932,46.0864898 39.1243265,43.5198231 35,42 C39.3399438,40.1567509 42.6066105,37.5900843 44.8,34.3 C46.9933895,31.0099157 48.3933895,26.5765824 49,21 Z" id="sparkle" stroke-linecap="square" stroke-linejoin="round"></path>
            </g>
        </g>
    </g>
</svg>