<?xml version="1.0" encoding="UTF-8"?>
<svg width="104px" height="104px" viewBox="0 0 104 104" version="1.1" xmlns="http://www.w3.org/2000/svg" xmlns:xlink="http://www.w3.org/1999/xlink">
    <!-- Generator: Sketch 59.1 (86144) - https://sketch.com -->
    <title>culture-family</title>
    <desc>Created with Sketch.</desc>
    <g id="Symbols" stroke="none" stroke-width="1" fill="none" fill-rule="evenodd">
        <g id="Home-icons-Copy" transform="translate(-142.000000, -521.000000)" stroke="#FFFFFF" stroke-width="4">
            <g id="family" transform="translate(144.000000, 523.000000)">
                <circle id="Oval" cx="50" cy="50" r="50"></circle>
                <g id="pair" transform="translate(22.000000, 21.000000)">
                    <path d="M18,12 C24.6666667,12 28,15.6666667 28,23 L28,54.2 C28,56.779319 25.965561,58.8834694 23.4138108,58.9953232 L23.2,59 L23.2,59 L23,59 L23,59 C20.2385763,59 18,56.7614237 18,54 L18,54.2 C18,56.779319 15.965561,58.8834694 13.4138108,58.9953232 L13.2,59 L13.2,59 L13,59 L13,59 C10.2385763,59 8,56.7614237 8,54 L8,35 C7.66666667,37.3333333 6.33333333,38.5 4,38.5 C0.5,38.5 0,36 0,35 L0,20.5 L0,20.5 C0,17.3978433 0.799173101,15.1448081 2.3975193,13.7408942 C3.04578239,15.0784336 4.41526952,16 6,16 C8.209139,16 10,14.209139 10,12 L18,12 L18,12 Z" id="Rectangle-Copy-4" stroke-linejoin="round"></path>
                    <path d="M47,12 C47,14.209139 48.790861,16 51,16 C52.3545213,16 53.5517926,15.3267328 54.2754208,14.2965915 C55.4251598,15.6224151 56,17.5237875 56,20 L56,35 C56,37.6666667 54.6666667,39 52,39 C49.4141414,39 48.0820324,37.7462504 48.0036731,35.2387511 L48,35 L48,35 L48,54.2 L48,54.2 C48,56.779319 45.965561,58.8834694 43.4138108,58.9953232 L43.2,59 L43.2,59 L43,59 L43,59 C40.2385763,59 38,56.7614237 38,54 L38,54.2 C38,56.779319 35.965561,58.8834694 33.4138108,58.9953232 L33.2,59 L33.2,59 L33,59 L33,59 C30.2385763,59 28,56.7614237 28,54 L28,23 C28,23 29,12 18,12 L47,12 L47,12 Z" id="Rectangle-Copy-6" stroke-linejoin="round"></path>
                    <path d="M6,8 C8.209139,8 10,9.790861 10,12 C10,14.209139 8.209139,16 6,16 C3.790861,16 2,14.209139 2,12 C2,9.790861 3.790861,8 6,8 Z M51,8 C53.209139,8 55,9.790861 55,12 C55,14.209139 53.209139,16 51,16 C48.790861,16 47,14.209139 47,12 C47,9.790861 48.790861,8 51,8 Z M18,0 C21.3137085,0 24,2.6862915 24,6 C24,9.3137085 21.3137085,12 18,12 C14.6862915,12 12,9.3137085 12,6 C12,2.6862915 14.6862915,0 18,0 Z M38,0 C41.3137085,0 44,2.6862915 44,6 C44,9.3137085 41.3137085,12 38,12 C34.6862915,12 32,9.3137085 32,6 C32,2.6862915 34.6862915,0 38,0 Z" id="Combined-Shape"></path>
                    <line x1="8" y1="35" x2="8" y2="25" id="Line-8" stroke-linecap="round"></line>
                    <line x1="48" y1="35" x2="48" y2="25" id="Line-8-Copy" stroke-linecap="round"></line>
                    <line x1="38" y1="54" x2="38" y2="39" id="Line-8-Copy-2" stroke-linecap="round"></line>
                    <line x1="18" y1="54" x2="18" y2="39" id="Line-8-Copy-3" stroke-linecap="round"></line>
                </g>
            </g>
        </g>
    </g>
</svg>