<?xml version="1.0" encoding="UTF-8"?>
<svg width="104px" height="104px" viewBox="0 0 104 104" version="1.1" xmlns="http://www.w3.org/2000/svg" xmlns:xlink="http://www.w3.org/1999/xlink">
    <!-- Generator: Sketch 59.1 (86144) - https://sketch.com -->
    <title>culture-mentor</title>
    <desc>Created with Sketch.</desc>
    <g id="Symbols" stroke="none" stroke-width="1" fill="none" fill-rule="evenodd">
        <g id="Home-icons-Copy" transform="translate(-502.000000, -641.000000)" stroke="#FFFFFF" stroke-width="4">
            <g id="mentor" transform="translate(504.000000, 643.000000)">
                <circle id="Oval-Copy-6" cx="50" cy="50" r="50"></circle>
                <g id="people" transform="translate(18.000000, 25.000000)">
                    <path d="M31,33 C30.5,32.5 23,18.5728691 23,23 C23,23.6666667 23,26.8333333 23,32.5 L23,50.2 C23,52.298682 21.298682,54 19.2,54 C16.8804041,54 15,52.1195959 15,49.8 L15,36 L15,50.2 C15,52.298682 13.298682,54 11.2,54 C8.88040405,54 7,52.1195959 7,49.8 C7,43.8666667 7,37.9333333 7,32 C7,31.3333333 7,28.3333333 7,23 L7,32 C6.33333333,34.3333333 5.16666667,35.5 3.5,35.5 C1,35.5 0,33 0,32 C0,31 0,24 0,19.5 C0,15 3,12 7,12 C9.22222222,12 11.8888889,12 15,12 C17.3333333,12 19,12 23,12 C25.6666667,12 29.6666667,16.6666667 35,26" id="Path" stroke-linejoin="round"></path>
                    <path d="M59,21 C58.5,20.5 51,6.5728691 51,11 C51,11.6666667 51,14.8333333 51,20.5 L51,38.2 C51,40.298682 49.298682,42 47.2,42 C44.8804041,42 43,40.1195959 43,37.8 L43,24 L43,38.2 C43,40.298682 41.298682,42 39.2,42 C36.8804041,42 35,40.1195959 35,37.8 C35,31.8666667 35,25.9333333 35,20 C35,19.3333333 35,16.3333333 35,11 L35,20 C34.3333333,22.3333333 33.1666667,23.5 31.5,23.5 C29,23.5 28,21 28,20 C28,19 28,12 28,7.5 C28,3 31,0 35,0 C37.2222222,0 39.8888889,0 43,0 C45.3333333,0 47,0 51,0 C53.6666667,0 57.6666667,4.66666667 63,14" id="Path-Copy-2" stroke-linejoin="round" transform="translate(45.500000, 21.000000) rotate(180.000000) translate(-45.500000, -21.000000) "></path>
                    <circle id="Oval-Copy-12" cx="15" cy="6" r="6"></circle>
                    <circle id="Oval-Copy-18" cx="48" cy="48" r="6"></circle>
                </g>
            </g>
        </g>
    </g>
</svg>