<?xml version="1.0" encoding="UTF-8"?>
<svg width="218px" height="145px" viewBox="0 0 218 145" version="1.1" xmlns="http://www.w3.org/2000/svg" xmlns:xlink="http://www.w3.org/1999/xlink">
    <!-- Generator: Sketch 59.1 (86144) - https://sketch.com -->
    <title>Hallehead yellow</title>
    <desc>Created with Sketch.</desc>
    <g id="Hallehead-yellow" stroke="none" stroke-width="1" fill="none" fill-rule="evenodd">
        <path d="M28.3125,101.5927 L32.1155,110.1467 L23.3025,104.3797 L21.1065,114.6797 L17.3675,104.8347 L9.5365,111.8767 L12.2985,101.7137 L1.8225,102.8087 L10.0315,96.2097 L0.9135,90.9377 L11.4335,90.4237 L7.1555,80.7997 L15.9685,86.5677 L18.1635,76.2667 L21.9025,86.1127 L29.7345,79.0697 L27.2795,88.1047 L27.380646,89.4253756 C18.126882,88.4751252 13.5,90.5 13.5,95.5 C13.5,100.5 18.4375,102.5309 28.3125,101.5927 Z" id="Fill-32" fill="#EFC319"></path>
        <path d="M190.8496,88.1044 L188.3946,79.0694 L196.2266,86.1124 L199.9656,76.2664 L202.1616,86.5674 L210.9736,80.7994 L206.6956,90.4234 L217.2156,90.9374 L208.0976,96.2094 L216.3056,102.8084 L205.8306,101.7134 L208.5926,111.8764 L200.7606,104.8344 L197.0226,114.6804 L194.8276,104.3794 L186.0146,110.1464 L189.8176,101.5924 C200.605867,102.864133 206,100.833333 206,95.5 C206,90.1666667 200.918102,88.1166179 190.754307,89.3498538 L190.8496,88.1044 Z" id="Fill-33" fill="#EFC319"></path>
        <path d="M23.5093,94.2709 C22.9923,95.9289 21.4613,97.1439 19.6343,97.1439 C17.8093,97.1439 16.2783,95.9289 15.7613,94.2709 C15.6423,94.6539 15.5593,95.0519 15.5593,95.4739 C15.5593,97.7209 17.3873,99.5489 19.6343,99.5489 C21.8833,99.5489 23.7113,97.7209 23.7113,95.4739 C23.7113,95.0519 23.6283,94.6539 23.5093,94.2709" id="Fill-36" fill="#EFC319"></path>
        <path d="M198.9268,99.5492 C201.1738,99.5492 203.0018,97.7212 203.0018,95.4732 C203.0018,95.0522 202.9188,94.6532 202.7998,94.2712 C202.2828,95.9282 200.7518,97.1442 198.9268,97.1442 C197.1008,97.1442 195.5698,95.9282 195.0518,94.2712 C194.9328,94.6532 194.8508,95.0522 194.8508,95.4732 C194.8508,97.7212 196.6788,99.5492 198.9268,99.5492" id="Fill-37" fill="#EFC319"></path>
        <path d="M102.2881,20.06 C102.9321,20.06 103.4541,20.582 103.4541,21.226 C103.4541,21.87 102.9321,22.391 102.2881,22.391 C101.6441,22.391 101.1221,21.87 101.1221,21.226 C101.1221,20.582 101.6441,20.06 102.2881,20.06 M102.2881,23.787 C103.5381,23.787 104.5521,22.773 104.5521,21.522 C104.5521,20.272 103.5381,19.258 102.2881,19.258 C101.0381,19.258 100.0241,20.272 100.0241,21.522 C100.0241,22.773 101.0381,23.787 102.2881,23.787" id="Fill-38" fill="#EFC319"></path>
        <path d="M102.2881,36.0961 C102.9321,36.0961 103.4541,36.6181 103.4541,37.2621 C103.4541,37.9061 102.9321,38.4271 102.2881,38.4271 C101.6441,38.4271 101.1221,37.9061 101.1221,37.2621 C101.1221,36.6181 101.6441,36.0961 102.2881,36.0961 M102.2881,39.8231 C103.5381,39.8231 104.5521,38.8091 104.5521,37.5581 C104.5521,36.3081 103.5381,35.2941 102.2881,35.2941 C101.0381,35.2941 100.0241,36.3081 100.0241,37.5581 C100.0241,38.8091 101.0381,39.8231 102.2881,39.8231" id="Fill-39" fill="#EFC319"></path>
        <path d="M115.1172,28.078 C115.7612,28.078 116.2832,28.6 116.2832,29.244 C116.2832,29.888 115.7612,30.409 115.1172,30.409 C114.4732,30.409 113.9522,29.888 113.9522,29.244 C113.9522,28.6 114.4732,28.078 115.1172,28.078 M115.1172,31.805 C116.3682,31.805 117.3822,30.791 117.3822,29.54 C117.3822,28.29 116.3682,27.276 115.1172,27.276 C113.8662,27.276 112.8522,28.29 112.8522,29.54 C112.8522,30.791 113.8662,31.805 115.1172,31.805" id="Fill-40" fill="#EFC319"></path>
        <path d="M102.2881,52.1327 C102.9321,52.1327 103.4541,52.6537 103.4541,53.2987 C103.4541,53.9417 102.9321,54.4637 102.2881,54.4637 C101.6441,54.4637 101.1221,53.9417 101.1221,53.2987 C101.1221,52.6537 101.6441,52.1327 102.2881,52.1327 M102.2881,55.8597 C103.5381,55.8597 104.5521,54.8457 104.5521,53.5947 C104.5521,52.3447 103.5381,51.3307 102.2881,51.3307 C101.0381,51.3307 100.0241,52.3447 100.0241,53.5947 C100.0241,54.8457 101.0381,55.8597 102.2881,55.8597" id="Fill-41" fill="#EFC319"></path>
        <path d="M115.1172,44.1147 C115.7612,44.1147 116.2832,44.6357 116.2832,45.2807 C116.2832,45.9237 115.7612,46.4457 115.1172,46.4457 C114.4732,46.4457 113.9522,45.9237 113.9522,45.2807 C113.9522,44.6357 114.4732,44.1147 115.1172,44.1147 M115.1172,47.8417 C116.3682,47.8417 117.3822,46.8277 117.3822,45.5767 C117.3822,44.3267 116.3682,43.3127 115.1172,43.3127 C113.8662,43.3127 112.8522,44.3267 112.8522,45.5767 C112.8522,46.8277 113.8662,47.8417 115.1172,47.8417" id="Fill-42" fill="#EFC319"></path>
        <path d="M102.2881,68.1689 C102.9321,68.1689 103.4541,68.6899 103.4541,69.3349 C103.4541,69.9779 102.9321,70.4999 102.2881,70.4999 C101.6441,70.4999 101.1221,69.9779 101.1221,69.3349 C101.1221,68.6899 101.6441,68.1689 102.2881,68.1689 M102.2881,71.8959 C103.5381,71.8959 104.5521,70.8819 104.5521,69.6309 C104.5521,68.3809 103.5381,67.3669 102.2881,67.3669 C101.0381,67.3669 100.0241,68.3809 100.0241,69.6309 C100.0241,70.8819 101.0381,71.8959 102.2881,71.8959" id="Fill-43" fill="#EFC319"></path>
        <path d="M115.1172,60.1508 C115.7612,60.1508 116.2832,60.6718 116.2832,61.3168 C116.2832,61.9598 115.7612,62.4818 115.1172,62.4818 C114.4732,62.4818 113.9522,61.9598 113.9522,61.3168 C113.9522,60.6718 114.4732,60.1508 115.1172,60.1508 M115.1172,63.8778 C116.3682,63.8778 117.3822,62.8638 117.3822,61.6128 C117.3822,60.3628 116.3682,59.3488 115.1172,59.3488 C113.8662,59.3488 112.8522,60.3628 112.8522,61.6128 C112.8522,62.8638 113.8662,63.8778 115.1172,63.8778" id="Fill-44" fill="#EFC319"></path>
        <path d="M102.2881,84.205 C102.9321,84.205 103.4541,84.726 103.4541,85.371 C103.4541,86.014 102.9321,86.536 102.2881,86.536 C101.6441,86.536 101.1221,86.014 101.1221,85.371 C101.1221,84.726 101.6441,84.205 102.2881,84.205 M102.2881,87.932 C103.5381,87.932 104.5521,86.918 104.5521,85.667 C104.5521,84.417 103.5381,83.403 102.2881,83.403 C101.0381,83.403 100.0241,84.417 100.0241,85.667 C100.0241,86.918 101.0381,87.932 102.2881,87.932" id="Fill-45" fill="#EFC319"></path>
        <path d="M115.1172,76.1869 C115.7612,76.1869 116.2832,76.7079 116.2832,77.3529 C116.2832,77.9959 115.7612,78.5179 115.1172,78.5179 C114.4732,78.5179 113.9522,77.9959 113.9522,77.3529 C113.9522,76.7079 114.4732,76.1869 115.1172,76.1869 M115.1172,79.9139 C116.3682,79.9139 117.3822,78.8999 117.3822,77.6489 C117.3822,76.3989 116.3682,75.3849 115.1172,75.3849 C113.8662,75.3849 112.8522,76.3989 112.8522,77.6489 C112.8522,78.8999 113.8662,79.9139 115.1172,79.9139" id="Fill-46" fill="#EFC319"></path>
        <path d="M102.2881,100.2411 C102.9321,100.2411 103.4541,100.7631 103.4541,101.4071 C103.4541,102.0501 102.9321,102.5721 102.2881,102.5721 C101.6441,102.5721 101.1221,102.0501 101.1221,101.4071 C101.1221,100.7631 101.6441,100.2411 102.2881,100.2411 M102.2881,103.9681 C103.5381,103.9681 104.5521,102.9541 104.5521,101.7031 C104.5521,100.4531 103.5381,99.4391 102.2881,99.4391 C101.0381,99.4391 100.0241,100.4531 100.0241,101.7031 C100.0241,102.9541 101.0381,103.9681 102.2881,103.9681" id="Fill-47" fill="#EFC319"></path>
        <path d="M115.1172,94.5541 C114.4732,94.5541 113.9522,94.0321 113.9522,93.3881 C113.9522,92.7451 114.4732,92.2231 115.1172,92.2231 C115.7612,92.2231 116.2832,92.7451 116.2832,93.3881 C116.2832,94.0321 115.7612,94.5541 115.1172,94.5541 M115.1172,91.4211 C113.8662,91.4211 112.8522,92.4351 112.8522,93.6851 C112.8522,94.9361 113.8662,95.9501 115.1172,95.9501 C116.3682,95.9501 117.3822,94.9361 117.3822,93.6851 C117.3822,92.4351 116.3682,91.4211 115.1172,91.4211" id="Fill-48" fill="#EFC319"></path>
        <path d="M102.2881,134.6444 C101.6441,134.6444 101.1221,134.1224 101.1221,133.4784 C101.1221,132.8354 101.6441,132.3134 102.2881,132.3134 C102.9321,132.3134 103.4541,132.8354 103.4541,133.4784 C103.4541,134.1224 102.9321,134.6444 102.2881,134.6444 M102.2881,131.5114 C101.0381,131.5114 100.0241,132.5254 100.0241,133.7754 C100.0241,135.0264 101.0381,136.0404 102.2881,136.0404 C103.5381,136.0404 104.5521,135.0264 104.5521,133.7754 C104.5521,132.5254 103.5381,131.5114 102.2881,131.5114" id="Fill-49" fill="#EFC319"></path>
        <path d="M115.1172,126.6264 C114.4732,126.6264 113.9522,126.1044 113.9522,125.4604 C113.9522,124.8174 114.4732,124.2954 115.1172,124.2954 C115.7612,124.2954 116.2832,124.8174 116.2832,125.4604 C116.2832,126.1044 115.7612,126.6264 115.1172,126.6264 M115.1172,123.4934 C113.8662,123.4934 112.8522,124.5074 112.8522,125.7574 C112.8522,127.0084 113.8662,128.0224 115.1172,128.0224 C116.3682,128.0224 117.3822,127.0084 117.3822,125.7574 C117.3822,124.5074 116.3682,123.4934 115.1172,123.4934" id="Fill-50" fill="#EFC319"></path>
        <path d="M87.5332,94.2758 C87.5332,97.4808 86.2512,98.6828 84.2482,98.6828 C82.2432,98.6828 80.9622,97.4808 80.9622,94.2758 L80.9622,66.4708 C80.9622,63.2658 82.2432,62.0628 84.2482,62.0628 C86.2512,62.0628 87.5332,63.2658 87.5332,66.4708 L87.5332,94.2758 Z M92.5012,94.2758 L92.5012,66.4708 C92.5012,59.8188 88.4942,58.0558 84.2482,58.0558 C80.0012,58.0558 75.9942,59.8188 75.9942,66.4708 L75.9942,94.2758 C75.9942,100.9268 80.0012,102.6898 84.2482,102.6898 C88.4942,102.6898 92.5012,100.9268 92.5012,94.2758 L92.5012,94.2758 Z" id="Fill-51" fill="#EFC319"></path>
        <path d="M133.1582,102.6918 C135.1612,102.6918 136.4432,101.4898 136.4432,98.2848 L136.4432,62.4618 C136.4432,59.2558 135.1612,58.0538 133.1582,58.0538 C131.1542,58.0538 129.8722,59.2558 129.8722,62.4618 L129.8722,98.2848 C129.8722,101.4898 131.1542,102.6918 133.1582,102.6918" id="Fill-52" fill="#EFC319"></path>
        <path d="M107.9005,6.0396 L107.9005,110.8456 L92.7945,110.8456 C90.3635,110.8456 88.3845,112.8236 88.3845,115.2546 C88.3845,117.6866 90.3635,119.6646 92.7945,119.6646 L107.9005,119.6646 L107.9005,138.5756 C84.5705,138.4946 69.7455,134.9166 61.2975,127.3286 C54.2485,120.9976 51.3735,112.0226 51.3735,96.3506 C51.3735,68.3856 78.5925,7.1436 107.9005,6.0396 Z M39.7845,100.4016 C38.9795,97.0436 38.9495,93.7326 39.6945,90.5616 L39.8035,90.0966 C40.3155,88.1856 41.8605,86.8546 43.5825,86.8546 L43.7565,86.8546 L43.7565,104.0936 L43.6755,104.0936 C41.9495,104.0936 40.3995,102.7406 39.8795,100.7976 L39.7845,100.4016 Z M27.2145,96.7226 C27.2275,96.6456 27.2325,96.5686 27.2435,96.4916 C27.2575,96.3856 27.2735,96.2806 27.2835,96.1736 C27.3055,95.9406 27.3195,95.7076 27.3195,95.4736 C27.3195,95.2396 27.3055,95.0066 27.2835,94.7726 C27.2735,94.6666 27.2575,94.5626 27.2445,94.4576 C27.2335,94.3796 27.2275,94.3016 27.2145,94.2246 L36.9945,91.8886 C36.9925,91.9016 36.9925,91.9146 36.9905,91.9276 C36.7365,93.6706 36.6855,95.4426 36.8385,97.2336 C36.8415,97.2596 36.8445,97.2856 36.8465,97.3106 C36.8965,97.8646 36.9665,98.4206 37.0545,98.9786 C37.0595,99.0116 37.0615,99.0436 37.0665,99.0766 L27.2145,96.7226 Z M14.3565,95.4736 C14.3565,92.5626 16.7245,90.1946 19.6345,90.1946 C21.9355,90.1946 23.8915,91.6766 24.6125,93.7336 C24.7095,94.0096 24.7805,94.2886 24.8305,94.5686 C24.8345,94.5946 24.8385,94.6216 24.8425,94.6476 C24.8875,94.9226 24.9135,95.1986 24.9135,95.4736 C24.9135,95.7496 24.8875,96.0256 24.8425,96.2996 C24.8385,96.3256 24.8345,96.3516 24.8305,96.3786 C24.7805,96.6586 24.7095,96.9366 24.6135,97.2116 L24.6115,97.2176 C23.8885,99.2726 21.9345,100.7516 19.6345,100.7516 C16.7245,100.7516 14.3565,98.3846 14.3565,95.4736 Z M109.5045,138.5756 L109.5045,119.6646 L124.6105,119.6646 C127.0425,119.6646 129.0205,117.6866 129.0205,115.2546 C129.0205,112.8236 127.0425,110.8456 124.6105,110.8456 L109.5045,110.8456 L109.5045,6.0396 C138.8135,7.1436 166.0325,68.3856 166.0325,96.3506 C166.0325,124.2016 157.2565,138.4176 109.5045,138.5756 Z M178.8655,90.5526 L178.8685,90.5676 C179.6095,93.7326 179.5805,97.0356 178.7805,100.3856 C178.7775,100.3956 178.7755,100.4056 178.7735,100.4156 L178.6835,100.7906 C178.1665,102.7376 176.6135,104.0936 174.8855,104.0936 L174.8045,104.0936 L174.8045,86.8546 L174.9785,86.8546 C176.7015,86.8546 178.2475,88.1866 178.7585,90.0986 L178.8655,90.5526 Z M191.3465,94.2246 C191.3345,94.2976 191.3295,94.3716 191.3195,94.4456 C191.3045,94.5556 191.2875,94.6646 191.2775,94.7766 C191.2555,95.0086 191.2425,95.2416 191.2425,95.4736 C191.2425,95.7066 191.2555,95.9386 191.2775,96.1706 C191.2875,96.2826 191.3045,96.3926 191.3195,96.5036 C191.3295,96.5766 191.3345,96.6496 191.3465,96.7226 L181.4955,99.0766 C181.5005,99.0406 181.5025,99.0066 181.5075,98.9716 C181.5955,98.4186 181.6655,97.8666 181.7135,97.3176 L181.7225,97.2306 C181.8755,95.4386 181.8245,93.6656 181.5695,91.9216 C181.5685,91.9106 181.5685,91.8996 181.5665,91.8886 L191.3465,94.2246 Z M204.2055,95.4736 C204.2055,98.3846 201.8365,100.7516 198.9265,100.7516 C196.6355,100.7516 194.6865,99.2826 193.9585,97.2396 L193.9485,97.2116 C193.8515,96.9366 193.7805,96.6576 193.7305,96.3766 C193.7265,96.3516 193.7225,96.3266 193.7185,96.3016 C193.6735,96.0256 193.6475,95.7496 193.6475,95.4736 C193.6475,95.1976 193.6735,94.9216 193.7185,94.6466 L193.7305,94.5706 C193.7805,94.2896 193.8515,94.0106 193.9485,93.7346 L193.9565,93.7116 C194.6835,91.6666 196.6335,90.1946 198.9265,90.1946 C201.8365,90.1946 204.2055,92.5626 204.2055,95.4736 Z M124.6105,113.2506 C125.7155,113.2506 126.6155,114.1496 126.6155,115.2546 C126.6155,116.3606 125.7155,117.2596 124.6105,117.2596 L92.7945,117.2596 C91.6895,117.2596 90.7905,116.3606 90.7905,115.2546 C90.7905,114.1496 91.6895,113.2506 92.7945,113.2506 L124.6105,113.2506 Z M145.2755,136.2956 C159.1005,131.3956 165.1345,122.7196 167.3465,110.5746 L169.3265,110.5746 C171.8665,110.5746 173.9965,108.8436 174.6175,106.4986 L174.8855,106.4986 C177.6195,106.4986 180.0535,104.5356 180.9275,101.6846 L192.1125,99.0126 C193.3955,101.4726 195.9655,103.1576 198.9265,103.1576 C203.1635,103.1576 206.6105,99.7106 206.6105,95.4736 C206.6105,91.2366 203.1635,87.7896 198.9265,87.7896 C195.9665,87.7896 193.3955,89.4746 192.1135,91.9336 L181.0265,89.2866 C180.1795,86.4256 177.7315,84.4486 174.9785,84.4486 L174.6175,84.4486 C173.9965,82.1036 171.8665,80.3726 169.3265,80.3726 L166.3675,80.3726 C163.5075,67.6396 157.8895,52.7366 150.8135,39.8446 C143.3845,26.3116 128.0365,3.6076 108.7025,3.6076 C89.3685,3.6076 74.0205,26.3116 66.5925,39.8446 C59.5165,52.7356 53.8975,67.6396 51.0375,80.3726 L49.2355,80.3726 C46.6955,80.3726 44.5645,82.1036 43.9445,84.4486 L43.5825,84.4486 C40.8315,84.4486 38.3825,86.4256 37.5345,89.2856 L26.4485,91.9346 C25.1655,89.4746 22.5955,87.7896 19.6345,87.7896 C15.3975,87.7896 11.9515,91.2366 11.9515,95.4736 C11.9515,99.7106 15.3975,103.1576 19.6345,103.1576 C22.5955,103.1576 25.1655,101.4726 26.4485,99.0126 L37.6325,101.6846 C38.5075,104.5356 40.9425,106.4986 43.6755,106.4986 L43.9445,106.4986 C44.5645,108.8436 46.6955,110.5746 49.2355,110.5746 L50.0565,110.5746 C51.3455,117.4886 54.0725,124.0726 59.6895,129.1186 C62.9755,132.0686 67.1355,134.4416 72.2745,136.2706 C68.8802574,136.865818 88.5566945,141.994341 108.5,142.000005 C128.428704,142.005655 148.624273,136.888883 145.2755,136.2956 Z" id="Fill-60" fill="#EFC319"></path>
        <path d="M77.3729,136.7005 L72.7109,135.0415 C67.7239,133.2665 63.7509,131.0115 60.5609,128.1475 C55.7909,123.8635 52.7749,118.0375 51.3389,110.3355 L51.1409,109.2695 L49.2349,109.2695 C47.3469,109.2695 45.6899,107.9935 45.2059,106.1645 L44.9479,105.1945 L43.6759,105.1945 C41.5219,105.1945 39.5949,103.6305 38.8809,101.3015 L38.6609,100.5895 L25.7639,97.5075 L25.2929,98.4085 C24.1829,100.5335 22.0159,101.8535 19.6349,101.8535 C16.1169,101.8535 13.2549,98.9915 13.2549,95.4735 C13.2549,91.9555 16.1169,89.0935 19.6349,89.0935 C22.0169,89.0935 24.1829,90.4125 25.2919,92.5375 L25.7609,93.4395 L38.5689,90.3795 L38.7849,89.6565 C39.4769,87.3215 41.4049,85.7535 43.5829,85.7535 L44.9479,85.7535 L45.2059,84.7825 C45.6899,82.9535 47.3469,81.6765 49.2349,81.6765 L52.0809,81.6765 L52.3099,80.6585 C55.2309,67.6585 60.8529,53.0115 67.7359,40.4715 C75.0249,27.1915 90.0409,4.9125 108.7029,4.9125 C127.3639,4.9125 142.3799,27.1915 149.6689,40.4725 C156.5539,53.0125 162.1759,67.6605 165.0949,80.6585 L165.3229,81.6765 L169.3259,81.6765 C171.2149,81.6765 172.8719,82.9535 173.3569,84.7825 L173.6129,85.7535 L174.9789,85.7535 C177.1559,85.7535 179.0839,87.3215 179.7759,89.6565 L179.9889,90.3795 L192.7999,93.4395 L193.2709,92.5375 C194.3779,90.4125 196.5449,89.0935 198.9269,89.0935 C202.4439,89.0935 205.3069,91.9555 205.3069,95.4735 C205.3069,98.9915 202.4439,101.8535 198.9269,101.8535 C196.5449,101.8535 194.3769,100.5335 193.2689,98.4095 L192.7989,97.5075 L179.9009,100.5895 L179.6809,101.3025 C178.9679,103.6305 177.0409,105.1945 174.8859,105.1945 L173.6129,105.1945 L173.3569,106.1645 C172.8719,107.9935 171.2149,109.2695 169.3259,109.2695 L166.2589,109.2695 L166.0649,110.3405 C163.7469,123.0595 157.2019,130.6845 144.8399,135.0665 L140.1789,136.7185 L108.5,141 L77.3729,136.7005 Z M153.2759,135.5575 C161.9019,130.7095 167.1399,123.4385 169.4749,113.1815 C172.4189,113.1275 175.0529,111.4755 176.4229,108.9655 C179.1759,108.4525 181.5539,106.5835 182.8509,103.9075 L190.9509,101.9715 C192.8839,104.3505 195.7889,105.7665 198.9259,105.7665 C204.6019,105.7665 209.2189,101.1485 209.2189,95.4735 C209.2189,89.7985 204.6019,85.1815 198.9259,85.1815 C195.7889,85.1815 192.8839,86.5955 190.9509,88.9745 L182.9619,87.0665 C181.6639,84.3385 179.2349,82.4445 176.4109,81.9615 C175.0169,79.4195 172.3209,77.7645 169.3249,77.7645 L168.4379,77.7645 C165.3289,64.9445 159.7959,50.7875 153.0999,38.5895 C145.3929,24.5505 129.3779,0.9995 108.7029,0.9995 C88.0259,0.9995 72.0109,24.5505 64.3049,38.5895 C57.6089,50.7885 52.0739,64.9485 48.9669,77.7685 C46.0789,77.8635 43.5029,79.4955 42.1499,81.9615 C39.3269,82.4455 36.8989,84.3385 35.5999,87.0665 L27.6099,88.9745 C25.6769,86.5955 22.7719,85.1815 19.6349,85.1815 C13.9599,85.1815 9.3429,89.7985 9.3429,95.4735 C9.3429,101.1485 13.9599,105.7665 19.6349,105.7665 C22.7719,105.7665 25.6769,104.3505 27.6099,101.9715 L35.7109,103.9075 C37.0079,106.5835 39.3849,108.4525 42.1379,108.9655 C43.3219,111.1365 45.4529,112.6645 47.9109,113.0735 C49.6519,120.6685 52.9459,126.5675 57.9469,131.0585 C59.8079,132.7295 61.8909,134.2105 64.2349,135.5205 C62.3363208,136.179701 85.2930416,144.491823 108.5,144.500006 C131.692798,144.508172 155.135832,136.2128 153.2759,135.5575 Z" id="Fill-61" fill="#EFC319"></path>
    </g>
</svg>