<svg width="104px" height="104px" viewBox="0 0 104 104" version="1.1" xmlns="http://www.w3.org/2000/svg" xmlns:xlink="http://www.w3.org/1999/xlink">
    <g id="Symbols" stroke="none" stroke-width="1" fill="none" fill-rule="evenodd">
        <g id="Home-icons" transform="translate(-530.000000, -545.000000)" stroke="#FFFFFF" stroke-width="4">
            <g id="Group-5-Copy-2" transform="translate(532.000000, 547.000000)">
                <circle id="Oval-Copy-6" cx="50" cy="50" r="50"></circle>
                <g id="Line-5-+-Line-5-Copy-+-Line-5-Copy-2-+-Line-5-Copy-3-Mask" transform="translate(17.250000, 17.500000)">
                    <circle id="Mask" cx="32.75" cy="32.5" r="32.5"></circle>
                    <line x1="0.25" y1="32.5" x2="65.25" y2="32.5" id="Line-5" stroke-linecap="round"></line>
                    <path d="M10.4604565,55.8331021 C10.7792483,55.5815492 11.0876213,55.3434856 11.3855756,55.1189111 C12.1182752,54.56666 12.7879707,54.0959805 13.3946621,53.7068727 C19.8464414,49.5689576 26.2982207,47.5 32.75,47.5 C39.2018657,47.5 45.6537314,49.569013 52.1055972,53.707039 C52.7122768,54.0961445 53.3819593,54.5668198 54.1146447,55.1190649 C54.4125932,55.3436369 54.7209603,55.5816978 55.0397459,55.8332476" id="Line-5-Copy-4" stroke-linecap="round"></path>
                    <path d="M10.3756288,9.09983832 C10.4039862,9.12229702 10.4322621,9.14465021 10.4604565,9.16689788 C10.7792483,9.41845076 11.0876213,9.65651443 11.3855756,9.88108887 C12.1182752,10.43334 12.7879707,10.9040195 13.3946621,11.2931273 C19.8464414,15.4310424 26.2982207,17.5 32.75,17.5 C39.1663883,17.5 45.5827766,15.4536785 51.999165,11.3610356 C52.6072681,10.9731618 53.2781617,10.5038824 54.0118458,9.95319748 C54.3111779,9.7285263 54.6209615,9.49030503 54.9411968,9.23853366" id="Line-5-Copy-5" stroke-linecap="round"></path>
                    <line x1="0.25" y1="32.5" x2="65.25" y2="32.5" id="Line-5-Copy" stroke-linecap="round" transform="translate(32.750000, 32.500000) rotate(90.000000) translate(-32.750000, -32.500000) "></line>
                    <path d="M-8.5,23.75 C2.33333333,35.4166667 13.1666667,41.25 24,41.25 C34.8333333,41.25 45.6666667,35.4166667 56.5,23.75" id="Line-5-Copy-2" stroke-linecap="round" transform="translate(24.000000, 32.500000) rotate(90.000000) translate(-24.000000, -32.500000) "></path>
                    <path d="M9,41.25 C19.8333333,29.5833333 30.6666667,23.75 41.5,23.75 C52.3333333,23.75 63.1666667,29.5833333 74,41.25" id="Line-5-Copy-3" stroke-linecap="round" transform="translate(41.500000, 32.500000) rotate(90.000000) translate(-41.500000, -32.500000) "></path>
                </g>
            </g>
        </g>
    </g>
</svg>