<svg width="104px" height="104px" viewBox="0 0 104 104" version="1.1" xmlns="http://www.w3.org/2000/svg" xmlns:xlink="http://www.w3.org/1999/xlink">
    <g id="Symbols" stroke="none" stroke-width="1" fill="none" fill-rule="evenodd">
        <g id="Home-icons" transform="translate(-287.000000, -545.000000)" stroke="#FFFFFF" stroke-width="4">
            <g id="Group-3-Copy-2" transform="translate(289.000000, 547.000000)">
                <circle id="Oval-Copy-5" cx="50" cy="50" r="50"></circle>
                <g id="Group-2" transform="translate(20.000000, 29.000000)">
                    <path d="M47.7993829,17.7366723 C49.6690693,26.0477436 50,31.7598133 50,34.8728814 C50,40.4661017 37.4439662,42.5 29.4257481,42.5 C21.4075301,42.5 10,40.4661017 10,34.8728814 C10,31.7558683 10.8152348,26.0332622 12.4457043,17.7050631" id="Rectangle" stroke-linejoin="round"></path>
                    <polygon id="Line-2" stroke-linecap="square" stroke-linejoin="round" points="30.1158301 -4.11996826e-17 6.58257233e-15 12.5 30 25 60 12.5"></polygon>
                    <path d="M5,30.5 C6.1045695,30.5 7,31.3954305 7,32.5 L7,38 L7,38 L3,38 L3,32.5 C3,31.3954305 3.8954305,30.5 5,30.5 Z" id="Rectangle"></path>
                    <circle id="Oval" cx="5" cy="28.5" r="2"></circle>
                    <polyline id="Line-3" stroke-linecap="round" stroke-linejoin="round" points="30 12.5 5 14.75 5 26.5"></polyline>
                </g>
                <line x1="50" y1="-4.4408921e-13" x2="50" y2="100" id="Line-4" stroke-linecap="square" transform="translate(50.000000, 50.000000) rotate(-45.000000) translate(-50.000000, -50.000000) "></line>
            </g>
        </g>
    </g>
</svg>