<svg width="428" height="428" xmlns="http://www.w3.org/2000/svg" xmlns:xlink="http://www.w3.org/1999/xlink">
  <defs>
    <rect id="a" width="428" height="428" rx="40"/>
  </defs>
  <g fill="none" fill-rule="evenodd">
    <g>
      <mask id="b" fill="#fff">
        <use xlink:href="#a"/>
      </mask>
      <path fill="#EFC319" mask="url(#b)" d="M210.2 216.7l4.3 19.3 1.2-3.6 4.5-1.2 1.1 4.2 2-.6 45 35.4 19-25.2-27.9-22.1-.9-2.6 8.7-3-3.6-12.9-8.9 2.5 21.5-59 .9.3 1.7-4.8-2.3-.8 6.2-15.2-10.5-4-4.7 13-6.3-2.4-1 2.6-11.7-4.3-30 83.3-5.9 2z"/>
      <path d="M63.1 414.1l12.1 4.4-14.4 40.4-2.8-1-2 5.8-7-2.5 2-5.8-2.3-.9L63 414.1zm16-1.3l12.5 4.5-12.9 36.9-1-.4-2.9 8.2-7.5-2.6-.2.5-3.3-1 3.1-9-.8-.3 13-36.8zM48 410.6l12.3 4-16.8 47-12-4.3L48 410.6zm-30.8-7.4l13.5 4.8-15.5 44-4.7-1.6-1.3 3.9-3.6-1.3 1.4-4-5.2-1.8 15.4-44zm77.6 11l15.2 5.5-11.8 32.7-15.2-5.5 11.8-32.7zm-57.9-1.9l6.3 2.3-13.4 36.6-10-3.7 2.2-6-1.9-.6 10-27.9 5.8 2.2 1-2.9zm-30.2 2l5 1.6-5 15-9-3 1.5-4.7 4 1.4 3.5-10.3zm263.4-2.3l12.8 2.2-2.3 12-12.8-2.3 2.3-11.9zM10.5 401l5.3 2-4.5 11.9-5.3-2 4.5-11.9zm200.2-7.5l21.3 3.8-2.6 14.5-7.1-1.3-.4 2.4-7.8-1.4.5-2.5-6.4-1.1 2.5-14.4zm82-22.2l11 4.4-.5 1.5 6.5 2.6-12.8 32.3-17-6.7-.8 2.1-7.3-2.8 3.8-9.7 6.2 2.5.5-1.2-1.2-.5 4-10 1.6.7 6-15.2zm-130.4.7l31.7 11.3-3.3 9.2 1.7.6-1.9 5.2-1.6-.5-2.8 7.8-22.5-8.1-1 2.8-3.7-1.4.9-2.3-5.5-2 8-22.6zm-52.6-40.8l13.3 4.9-4 11.2-2.3-.8-1.3 4 3.8 1.5-3.6 10 2.7.9-5.7 15.9-2.8-1-3.8 10.6-15-5.4 4.6-13-.8-.3 4.6-12.8.8.3L104 347l-1.1-.4 1.8-4.9 1.2.4 4-10.9zm125.6 43l5.3 2.9-5 9-5.2-3 5-9zm-41-4.4l12.2 2.8-6.6 9.6-9.4-7.8 3.7-4.6zm59.5-28.2l13.4 6.9-8.9 17.4.8.4-7.5 14.8-15.2-7.8 11.5-22.8 1 .5 4.9-9.4zm-176.2 3.6l10.5 3.6-1 3.2.6.3-3.6 10.7 1.8.6-2.7 8-2-.7-3.5 10-17-5.8 9.7-28.7 6 2 1.2-3.2zm-22.1-4.6l11.1 3.4-3.4 11.8-1.5-.5-7 24.1-9-2.7L54 348l-.7-.2 2-7zm-26.5-5l16 5.5-11.3 32.6-16-5.6L29 335.5zm-14.4-12L24 327l-3 8.2-1.1-.4-3.6 10.2 2.5 1-3.6 9.9-2-.8-6 17-9.4-3.4L7 343l-.4-.2 5.5-15.6 1.1.4 1.4-3.8zm218.8 9.9l6.3 4 .9-1.3 8.6 5.6-7 11 2 1.3-5.8 9-5.4-3.4-5.1 8-5-3.2-4.5 7-5.9-3.8 5.4-8.4 1.8 1.2 3.6-5.7-2.5-1.6 12.6-19.7zm-69.4 8.2l24.2 8-3.6 10.9-11.8-4 1.7-5-12.4-4 2-6zm45.8-27.8l17.2 9.4-5 9.2 5.8 3.1-13.3 24.5-9-4.9 3.5-6.4-6.6-3.6-4.8 8.9-7.4-4 10.2-19.6.4.2 9-16.8zm-233.6 14l30.2 11L2 351l1.1.4-2.9 8.2-5.5-2 2.9-8-25.8-9.4 4.4-12.3zm68.5-8.3l7 2.4-2.7 7.8 2.1.8-.8 2.5 2.3.8-2.6 7.6-14.3-4.9 3.2-9.2 2.7.9 3-8.7zm378.8-26.7l12 4.2-13.6 39.2-12-4.2 13.6-39.2zm-435.1 19.4l24.2 9-2.4 6.6 1.2.4-2.8 7.5-25.4-9.4 5.2-14.1zM93.7 309l44.3 15.1-3.2 9.4-35.5-11.7-.9 2.7-9-2.9 4.3-12.6zm92.8-12.3l15.6 5.8-2.2 5.8-2.5-.9-2.2 6 .8 3.6-1.7 4.8-2.8 2.2-1.8 4.9-7.3-2.7-1 3-2.4-.8-1.1 3.1-7.5-2.8 4.1-11.2-1.7-.7 4-11 1.7.6 2.6-7.1 3.9 1.4 1.5-4zM410 282l12.1 4.1-15 45-12.1-4.1 15-45zM124 298.2l8 2.9.2-.8 8.6 3-.3.9 7.5 2.7.4-1.2 2.7 1-1.4 4 1.2.4-5 13.9-19.8-7.1.2-.8-6-2.2 3.4-9.6-2-.7 2.3-6.4zm-61.4 16l9 1.6-.2 1.5 8.2 1.5-1.1 6.2-11.4-2 .4-2.5-5.8-1 1-5.4zm337-37.3l9.5 3.2-15 41.6-16.5-5.5 8.8-26.4-2.4-.8 1.7-5.4 10.5 3.6 3.4-10.3zM50.3 312.8l7.2 2-1.6 6.1-7.3-2 1.7-6.1zm-27.9-10l12 2.6-.7 2.6 5 1.1-.5 2.2 11.2 2.4-1.2 5.2-28-6.1 2.2-10zM.2 278.7l7.5 2.6 2.8-.1 2.9 1 1.3 1.9 6.7 2.4-8 22-6.5-2.4h-3L1.2 305 0 303.1l-7.3-2.6 2.8-8.4-1.8-.8 2.6-7 1.7.6 2.3-6.2zm330.3-1.6l14 4.3-6.8 21.5-14-4.3 6.8-21.5zm-221.6-16l7.6 2.6-5.9 17.7 4.5 1.6-3.3 10-5.7-2-3 9-12.1-4 3.1-9.5-.4-.1 8.1-24.4 6.1 2 1-2.9zm31.9 10.1l8.9 3.3-1.3 3.6 5.9 2.2-7.1 19.5-21-7.8 4.6-13 1.1.5 2.3-6.3 5.2 1.9 1.4-3.9zM76.1 260l9.9 3.4-2.8 8 4 1.4 1.5-4.3 7.7 2.7-8.5 25-21.6-7.5 9.8-28.7zm226.1-14.9l8.6 3.1-4.4 12.7 6.7 2.3-3.1 9 4.7 1.6-6.6 18.6-20-7 14.1-40.3zm-249.4-4l12.2 4.2-15 44-12.7-4.3 3.4-9.8L37 274l3.1-9 3.6 1.3 4.8-14-3.2-1.1 2.6-7.6 3.5 1.2 1.3-3.7zM342 266l4.3 1.3-1 3 3.3.9-3 9.7-11.6-3.5 3-10 4.2 1.3.8-2.7zm-331.6 3.6l11.7 4.5-2 5.1-11.7-4.4 2-5.2zm379-22.8l36.8 13.2-4.7 12.9-36.6-13.2 4.6-13zM23.9 229l14.1 5-12.6 34.1-13.8-5.2 3.5-9.4-3.8-1.4 2.8-7.4 3.4 1.2 6.4-17zM331 243.8l9.2 3.4-4.1 12.1-.9-.3-1 3-8.3-2.8 5.1-15.4zm10.4 6.4l9.3 3.3-2 5.3-9.2-3.4 2-5.2zm53.8-19.4l37.3 13.4-4.7 13-37.2-13.4 4.6-13zm-71.2 9.8l6 2.3-3.2 8.3-5.9-2.2 3.1-8.4zm.2-28l17 5.8.3-1 7.2 2.4-.5 1.5 11.8 4-7 20.4-11.3-3.8-.7 1.7-6.8-2.4.8-2.2-17.8-6.5 7-20zm91.2-30.5l13.5 5.2-1 2.6 4 1.6 1-2.8 7.6 3-13.6 35.5-8-3-4.5 11.8-18-7 2.4-6.3 11.3 4.4 2.5-6.4-12.7-4.9 7.7-20 2.2.8 5.6-14.5zm-329.5 17l40.1 31-1.9 4.5L79 218.4l7-19.3zm251.9 4l7 2.6.9-2.4 8.1 2.9-.8 2.4 16.5 5.7-3.3 9.8-32-11.2.2-.6-4.7-1.7 2.2-6.5 5 1.7.9-2.6zm-274-2.5l11.4 4.4-3.5 9.2-11.5-4.4 3.5-9.2zM332.8 182l43.8 16-4.2 11.9-43.8-16 4.2-12zM35.5 169.3l12.8 4.8-3.5 10 7.3 2.3 2 2.1v2.4l-2.1 6.4 6.6 2.5-3 9-17.4-6.4-.5 1.1-12.7-4.7 10.5-29.5zm155.7-19.6l13 4.8-5.9 16.5 2 .7-2.8 8-2-.6-2.4 7 1.2.4-3.5 9.7-6.5-2.4-.8 2.4-8-2.9 15.7-43.6zm167.6 5l12.4 4.3-1.2 2.4 19 6.7-7.8 23.4-19.1-6.8-.8 2.2-12.6-4.5 2.4-7-4.4-1.3 1-3.3 4.9 1.7 6.2-17.9zm-370.3 8.8L9 172.3l-7 18.5-13.1-5.2 4.6-11.6-7.9-3.4 3-7.1zm177.9-48.7l14.2 5-2.2 6.4 5 1.7-1.4 4 5.3 1.8-4.4 12.8 1 .4-1.5 4-3.7-1.2-8.9 25.6-.4-.1-1.8 5-7.2-2.4-1 3-6.9-2.4 1.1-3.1-7.9-2.8-1.6-3 1-2.9 1.4-1 1.8.6 8.5-24.6-2.2-.7 2.5-7.1-2.7-1 3.4-9.7 5.1 1.7 3.5-10zM5.5 150.7l8 3-4.9 12-7.2-4 4.1-11zm332-3.5l10.7 3.7-3.1 8.8-10.8-3.7 3.1-8.8zM-8.7 130.5L8.9 137 1 158.6l-17.5-6.5 7.9-21.6zm132.9-18l4.6 1.7.3-.9 10.9 3.8-4 11.5 5.9 2.2-2.7 7.6 1.2.4-2.3 6.3-.9-.3-1.6 4.8 1 .4-2.2 6.3L120 151l1-2.8-8.3-2.9.5-1.4-.6-.3 3-8.6-.8-.3 4.2-12.1 1.6.5 3.8-10.7zm19.7 31.7l4.3 1.4.6 4-3 3-4-1.3-.7-4 2.8-3zm63.2-40.3l12.6 4.3-10.5 31-12.7-4.4 3.4-10-10.5-3.6 4.7-13.8 10.6 3.7 2.4-7.2zm189-8.8l9.6 3.2-.9 2.5 5.9 2.3-5.9 16.5-4.3-1.6-6.2 17.5-9.8-3.7 9.5-26.5-1.2-.3 3.2-10zm-26.3 5.4l16.1 5.1-1.9 6 .4.1-6.4 20.6-6.9-2.2 4.8-14.5-2.6-.8-4.2 12.6-7-2.3 7.7-24.6zM113.7 77.2l10.4 3.7-.8 2.4.6.2-3 8.8 5.4 2-4 11.4-5.4-2-3.2 9.2 2 .7-3.8 11-2.1-.9-3 8.5L86 125 100 85l8.9 3.1 3.1-8.9.8.3.9-2.4zm245 9.6l9 3.6-2.8 7.5 4.2 1.7-7 18.3-13.6-5.4 10.2-25.7zM70.7 77l9.7 3.2-1.9 5.7 8.5 2.8-5.7 17.4 2.5.9-2.3 6.8-3-1-.8 2.3-6-2-.7 2.4-5.9-2 .8-2.4-6-2L65.6 92l-.8-2.3.7-2.1 2-.8 3.3-9.8zm252.6 11.3l8.2 3.1-7 18.7-8.2-3.2 7-18.6zm-149.4-.7L208 100l-2.7 8.2-16.6-5.8-.4 1.1-17.9-6.3 3.4-9.5zm144.5-12.4l6.8 2.3-10 29.7-6.8-2.3 10-29.7zm-11.5-6.5L313 71l-1.5 4 1.6.6-.7 1.7 1.5.6-8.8 24-9.3-3.5 11-29.7zm-15-7l10.7 3.8-4 11.2 2.5.9-3.8 10.7-3-1-4 11.5-9.1-3.3 3.8-10.8-1.2-.4 3.4-9.6 1.4.5.8-2.3-2.7-1 2-5.7 1.5.6 1.8-5.1zM164 83.8l8.6 3-3.7 11.1-8.7-2.9 3.7-11.2zm-27.1-10.3l26.3 9.8-4.2 11.9-26.5-9.7 4.4-12zm257.1 12.4l9.4 3.2-1.5 4.4-9.4-3.2 1.5-4.4zM376.5 68l40.6 13.3-3 9.3-2.4-.8-.3 1-38-12.5.2-.8-6.3-2 1.8-5.6 6.1 2 1.3-4zM272.3 48.3l11.2 4.2-3.3 8.9 2.4.9-2.7 7.2-3.8-1.4-1.9 5 1.2.4 1.4-3.8 4.9 1.8-2.7 7.2-4.8-1.8.3-.8-1-.3-5.5 14.9-10.2-3.9 14.5-38.5zm-142.6 24l5.5 1.9-3.9 12-5.5-1.8 4-12zM36.1 48.9l13.2 4-8.1 26.5-4-1.2-.6 2.3-10.7-3.3 1.2-3.9-.7-.2 5.3-17.6 2.2.7 2.2-7.3zm202.2-28.6l10.3 3.6-5.8 16.8 2.5 1-2.2 6.4-2.3-.7-10.5 30.6-11-3.7 8-22.9-3.6-1.2 1.5-4.2 3.8 1.3 9.3-27zm121 35.7l8 2.6-3.2 10-3.3-1-2.2 6.9-4.8-1.6 5.5-17zm20.3-7.8l44.7 15.7-3.5 10-23.6-8.2-.9 2.4-7.5-2.6 1-3-7.4-2.5-.6 1.7-6.2-2.1 4-11.4zM107.9 63.5l11.5 4-2 5.7-11.4-4 2-5.7zm-94-20L27.3 48 26 51.9l4.8 1.6-4.4 13.2-6-2-1.3 3.8-11.5-4L9 61l-.9-.3 5.8-17.3zM208.5 13l11.8 4.3-4.4 12.2 1.5.6-.9 2.4-1.3-.4-12.5 34.7-12-4.4 17.8-49.4zm73.3 23.7L324 51.9l-4.3 12-42-15.6 4.2-11.5zm43 18l4.4 1.5-2.6 7.4-4.4-1.5 2.7-7.5zm-126.6-44l3.8 1.4 1.4 2.5 1.7.6-16.7 46.4L181 59l17.3-48.2zM401.1 39l26.7 10-4.4 12-30-11.2 1.9-5 3.2 1.2 2.6-7zM366 42.4l3.4 1.4-.5 1.2 2.9 1-4.2 11-7-2.7 4.1-11 .8.4.5-1.3zM179.5 21l7.4 2.8-3 8-2.7-1-9.3 24-10-3.9L173 22.1l5.2 2 1.3-3.2zm-191-2L5.4 25l-.4 1.2 1.8.6L5 31.6l3 1.1-.8 2 1.8.7-2.6 7-1.4-.6-.8 2.3-2.4-1-2.9 8-8.8-3.3-1.2 3.1-7-2.6.4-1-7-2.7 3.4-9.4.7.3 1.4-3.7-2.7-1 3-8.3 5.4 2 2-5.7zm428 9.3l16.4 5.7-.4 1.2 2.3.8-3.8 10.7-2.2-.8-.2.6-16.4-5.7 4.3-12.5zM158 5.6l8.7 3.2-6.8 19.1 5.4 2-3.2 8.8-3.3-1.2-2.8 7.9-7.4-2.7.5-1.5-5.8-2 7.4-20.8 2.4.8 5-13.6zm-22.4-8L151 3.2l-1.9 5 1 .4-11.7 31.5.7.3-1.5 4-18.4-6.8 1.5-3.9.6.2L133 2.2l.7.3 1.8-5zM9 27.7l9.5 3.2-3.4 9.5-6-2.8v-9.9zm383.3 1.4l8.5 2.7-.6 1.7 1.4.5-.8 2.4-1.5-.5-.3 1-8.3-2.7 1.6-5.1zm-83-12.9l5.2.4-.2 3.2 13.4.8-1 15.8-10.2-.6.5-9.9-30.2-1.9.3-6 22 1.5.1-3.3zm86-10.7l7.7 2.7 1-2.7 38 13.8-4.2 11.8-38.1-13.7 1-3-7.5-2.8 2.2-6.1zM104.7-12.5l18.6 7.7-4.9 12 1.5.7-3.8 9.4-.6-.2-5 12.6-5.8-2.4-1 2.2-6.6-2.7.8-2-6.3-2.6 4.5-11-1.4-.5L98 2.3l.5.2 6-15zm67 19.3l3.9 1.4-6.3 18-3.9-1.4 6.3-18zM332.7-7.7l14.6 5.4v.7h4.6l-.3 8.1-4.5.3v1l-2.5.5-1.9 6.7 7 2.3-1.8 5.6-18-6 1.7-5.8-1.1-4.9.4-9.3 1.8-4.6zM177.3 5.7l4.1 1.5-3.4 9.4L174 15l3.4-9.4zm-121-31.3l6.4 2.4.2-.5 8.6 3.3-5 13.3 2.2.9-3.2 8.6-2-.7L60.7 9l-1.6-.6-1.4 3.7-13.3-5 6.9-18.3-2-.8 2.8-7.6 1.7.7 2.5-6.8zM193.8-.2l5.3 2-3 8.3-5.4-2 3-8.3zm104-8l26.7 1.3-.8 16.5-24-1.2.3-6.3-2.7-.1.5-10.2zm-85 5.8l16.7 6-1.8 5.2-16.8-6 1.8-5.2zm7.7-21.7l17.6 6.4.5-1.4 8.7 3.1-.5 1.5 13.3 4.8-6 16.5L227.4-3l-.5 1.5-9.5-3.5.6-1.5-3.4-1.2 5.9-16.4z" fill="#FFF" mask="url(#b)"/>
      <g mask="url(#b)" stroke="#FFF" stroke-linecap="round" stroke-linejoin="round">
        <path stroke-width="11.4" d="M440 171.4l-34.5-12.8M275.7-7.4L237.5 96.8M304.3 443.4l27.5-76.7 2.8-8.4 11-31.2 59.9-168.5 29.4-80.9-.7-45.6z"/>
        <path stroke-width="11.4" d="M454.7 464.4l-45.2.1-105.2-21.1L126 407.9M-4.3 247.2L11.1 205l26-73.7 3.1-7.7L71 35.7 85.5-7.8"/>
        <path stroke-width="11.4" d="M237.5 96.7L186 240.6l-3 8-6 16.8L126 408l-9.6 27.1M126 408l-178-33.4"/>
        <path stroke-width="11.4" d="M405.5 158.6l-168-61.9-166.6-61L-6.7 7.2M227.3 283.8l-50.2-18.4L11 205l-20-7.3M251.8 292.7l93.8 34.4 93.6 33.6"/>
        <path stroke-width="19.4" d="M-4.5 98.4l41.7 32.8L183 248.6l44.2 35.2 104.5 83 122.9 97.6M430.3 434.2l-95.7-75.9-82.8-65.6-65.8-52.1L40.2 123.5-8 84.9"/>
      </g>
      <g mask="url(#b)">
        <path stroke="#FFF" stroke-width="2" stroke-linejoin="round" d="M274.7 314.8l-2.4-2 3.5-4.4 2.4 2-.4.5-1.9-1.5-1 1.3 1.7 1.5-.3.4-1.8-1.4-1.3 1.6 2 1.5zM278.5 316.3c-.3.3-.6.4-1 .4-.3 0-.7-.2-1-.5l-.6-.5a2 2 0 0 1-.3-.5l.3-.5.4.5.5.6c.2.2.5.3.7.3.2 0 .3 0 .4-.2l.1-.3v-.4l-.4-.6-.3-.7-.1-.5c0-.2 0-.4.2-.6.2-.2.5-.4.8-.3.4 0 .7.2 1.1.4a3.4 3.4 0 0 1 .9 1.1l-.5.3-.3-.5-.5-.5-.6-.2-.4.1v.7l.4.6.3.7c.1.2.2.4.1.5 0 .2 0 .4-.2.6zM282.8 315.7c.4.3.6.7.6 1.2s-.1 1-.6 1.6c-.4.5-.9.9-1.4 1-.5 0-.9 0-1.3-.4-.3-.2-.4-.4-.5-.6-.1-.3-.2-.5-.1-.7l-.3.3-.2.3-1 1.3-.6-.4 3.8-4.8.4.4-.3.5h.7c.3 0 .5 0 .8.3zm-.5.4c-.3-.3-.6-.4-.9-.3-.3 0-.6.3-.9.7v.1c-.4.4-.6.8-.6 1 0 .4.1.7.5 1 .2.2.4.2.6.2.2 0 .4 0 .6-.2.3-.1.5-.3.7-.6.3-.4.4-.7.4-1a1 1 0 0 0-.4-1zM283 321.2l-.6-.4 3.7-4.7.5.5zM287.8 319.7c.5.3.7.7.7 1 0 .3 0 .7-.3 1l-1.8 2.3-.4-.3.3-.6h-.8c-.3 0-.5-.1-.8-.3l-.6-.9c0-.3 0-.6.3-1 .3-.3.6-.4 1-.4s.9.3 1.4.7l.6.4.2-.2c.2-.3.3-.5.2-.7l-.3-.6-.6-.3a4 4 0 0 0-.6-.2l.2-.5.7.2.6.4zm-.7 2.3l-.5-.4c-.4-.3-.7-.5-1-.5-.2 0-.5.1-.6.3-.2.2-.2.4-.2.5 0 .2.2.4.4.5.2.2.5.3.8.3.4 0 .6-.1.9-.4l.2-.3zM291.6 322.7c.4.3.6.7.7 1 0 .4 0 .7-.4 1.2l-1.7 2.1-.6-.4 1.7-2.1c.4-.5.4-1-.1-1.4-.4-.3-.7-.4-1-.3a2 2 0 0 0-.9.7l-1.4 1.7-.5-.4 2.6-3.3.4.4-.2.5h.7c.3 0 .5.1.7.3zM295.1 325.5c.4.3.6.6.7 1 0 .3 0 .6-.4 1l-1.8 2.2-.4-.3.3-.5h-.8l-.8-.4-.5-.8c0-.3 0-.7.3-1 .2-.3.6-.5 1-.4.4 0 .8.2 1.4.6l.6.4.1-.2c.2-.2.3-.5.3-.7 0-.2-.2-.4-.4-.5-.1-.2-.3-.3-.5-.3a4 4 0 0 0-.6-.2l.2-.5c.2 0 .4 0 .6.2.3 0 .5.2.7.4zm-.7 2.2l-.5-.4-1-.4c-.3 0-.5 0-.7.3-.1.1-.2.3-.1.5 0 .2.1.3.3.5l.9.3c.3 0 .6-.2.8-.5l.3-.3zM295.8 331.5c-.4-.3-.7-.7-.7-1.2 0-.4.2-1 .7-1.5.4-.6.9-1 1.3-1 .5-.1 1 0 1.4.3l.5.7.1.6.2-.2.2-.3 1-1.3.6.5-3.7 4.6-.5-.3.3-.5h-.7l-.7-.4zm.4-.3c.3.2.7.3 1 .3.3-.1.6-.4.9-.7v-.1c.4-.4.6-.8.6-1.1 0-.4-.1-.7-.5-1a1 1 0 0 0-1-.1c-.3 0-.6.3-.9.7-.3.4-.5.8-.5 1.1 0 .3.1.6.4.9zM302.4 331.2l.5.8c.1.2.2.5.1.9 0 .3-.2.6-.5.9l-.2.3-2.3-1.8c-.3.4-.4.7-.4 1 0 .4.3.7.6 1l.6.4.6.2-.4.5a3.4 3.4 0 0 1-1.2-.7c-.3-.2-.6-.5-.7-.8-.1-.4-.2-.7-.1-1 0-.4.2-.8.5-1.1.3-.4.6-.6 1-.8.3-.2.6-.2 1-.2.3 0 .6.2.9.4zm-.4.4a1 1 0 0 0-.8-.2c-.3 0-.6.2-.8.5l1.7 1.3c.2-.3.3-.5.3-.8 0-.3-.1-.6-.4-.8zM306.3 339.8l.6-1.8-1.8-1.4-1.6 1-.5-.5 5.2-3 .5.4-1.8 5.8-.6-.5zm.8-2.4l.6-1.7v-.2l.2-.4v-.2l-.3.3c-.2 0-.3.1-.3.2l-1.6.9 1.4 1.1zM308.2 341.3l1.3-4.3.6.4-.9 2.5v.4a6.7 6.7 0 0 1-.4.7l.3-.2.4-.2.3-.2 2.3-1.4.5.4-3.8 2.3-.6-.4zM314.5 340.8c.3.2.4.5.6.8v.9c0 .3-.2.6-.4.9l-.3.3-2.2-1.8c-.3.4-.5.7-.4 1 0 .4.2.7.5 1l.6.4.6.2-.3.5a3.4 3.4 0 0 1-1.3-.7l-.7-.8v-1c0-.4.2-.7.5-1.1l.9-.8c.3-.2.6-.2 1-.2.3 0 .6.2.9.4zm-.4.4a1 1 0 0 0-.8-.2c-.3 0-.5.2-.8.5l1.7 1.3c.2-.3.3-.5.3-.8 0-.3 0-.6-.4-.8zM318.3 343.8c.4.3.6.6.6 1s0 .7-.4 1.2l-1.7 2.1-.5-.4 1.6-2.1c.5-.6.4-1 0-1.4-.4-.3-.8-.4-1-.3a2 2 0 0 0-1 .7l-1.3 1.7-.6-.4 2.6-3.3.5.4-.3.5c.3-.1.5-.1.8 0 .2 0 .5.1.7.3zM323.2 347.8l-2.6 3.3-.5-.4.3-.5c-.3.1-.5.1-.8 0a2 2 0 0 1-.7-.3c-.4-.3-.6-.7-.6-1 0-.3 0-.7.4-1.1l1.7-2.2.5.4-1.6 2.1c-.5.6-.4 1 0 1.4.4.3.8.4 1 .3a2 2 0 0 0 1-.7l1.3-1.7.6.4zM325.6 349.6l.5.7c.1.3.2.6.1 1 0 .2-.2.5-.5.8l-.2.4-2.3-1.8c-.3.3-.4.7-.4 1 0 .4.2.7.6 1l.6.3.6.3-.4.4a3.4 3.4 0 0 1-1.2-.6c-.3-.3-.6-.6-.7-.9-.1-.3-.2-.6-.1-1 0-.3.2-.7.5-1 .3-.4.6-.7 1-.8.3-.2.6-.3 1-.2.3 0 .6.1.9.4zm-.4.4a1 1 0 0 0-.8-.2c-.3 0-.6.2-.8.5l1.6 1.3c.3-.3.4-.6.4-.9 0-.2-.1-.5-.4-.7z"/>
        <path d="M274.7 314.8l-2.4-2 3.5-4.4 2.4 2-.4.5-1.9-1.5-1 1.3 1.7 1.5-.3.4-1.8-1.4-1.3 1.6 2 1.5zM278.5 316.3c-.3.3-.6.4-1 .4-.3 0-.7-.2-1-.5l-.6-.5a2 2 0 0 1-.3-.5l.3-.5.4.5.5.6c.2.2.5.3.7.3.2 0 .3 0 .4-.2l.1-.3v-.4l-.4-.6-.3-.7-.1-.5c0-.2 0-.4.2-.6.2-.2.5-.4.8-.3.4 0 .7.2 1.1.4a3.4 3.4 0 0 1 .9 1.1l-.5.3-.3-.5-.5-.5-.6-.2-.4.1v.7l.4.6.3.7c.1.2.2.4.1.5 0 .2 0 .4-.2.6zM282.8 315.7c.4.3.6.7.6 1.2s-.1 1-.6 1.6c-.4.5-.9.9-1.4 1-.5 0-.9 0-1.3-.4-.3-.2-.4-.4-.5-.6-.1-.2-.2-.5-.1-.7l-.3.3-.2.3-1 1.3-.6-.4 3.8-4.8.4.4-.3.5h.7c.3 0 .5 0 .8.3zm-.5.4c-.3-.3-.6-.4-.9-.3-.3 0-.6.3-.9.7v.1c-.4.4-.6.8-.6 1 0 .4.1.7.5 1 .2.2.4.2.6.2.2 0 .4 0 .6-.2.3-.1.5-.3.7-.6.3-.4.4-.7.4-1a1 1 0 0 0-.4-1zM283 321.2l-.6-.4 3.7-4.7.5.5zM287.9 319.7c.4.3.6.7.6 1 0 .3 0 .7-.3 1l-1.8 2.3-.4-.3.3-.6h-.8c-.3 0-.5-.1-.8-.3l-.6-.9c0-.3 0-.6.3-1 .3-.3.6-.4 1-.4s.9.3 1.4.7l.6.4.2-.2.3-.7c0-.2-.2-.4-.4-.6l-.6-.3a4 4 0 0 0-.6-.2l.2-.5.7.2.7.4zm-.8 2.3l-.5-.4c-.4-.3-.7-.5-1-.5-.2 0-.5.1-.6.3-.2.2-.2.4-.2.5 0 .2.2.4.4.5.2.2.5.3.8.3.4 0 .6-.1.9-.4l.2-.3zM291.6 322.7c.4.3.6.7.7 1 0 .4 0 .7-.4 1.2l-1.7 2.1-.6-.4 1.7-2.1c.4-.5.4-1-.1-1.4-.4-.3-.7-.4-1-.3a2 2 0 0 0-.9.7l-1.4 1.7-.5-.4 2.6-3.3.4.4-.2.5h.7c.3 0 .5.1.7.3zM295.1 325.5c.4.3.6.6.7 1 0 .3 0 .6-.4 1l-1.8 2.2-.4-.3.3-.5h-.8l-.8-.4c-.3-.2-.4-.5-.5-.8 0-.3 0-.7.3-1 .2-.3.6-.5 1-.4.4 0 .8.2 1.4.6l.6.4.1-.2c.2-.2.3-.5.3-.7 0-.2-.2-.4-.4-.5-.2-.2-.3-.3-.5-.3a4 4 0 0 0-.6-.2l.2-.6.6.3c.3 0 .5.2.7.4zm-.7 2.2l-.5-.4-1-.4c-.3 0-.5 0-.7.3-.1.1-.2.3-.1.5 0 .2.1.3.3.5l.9.3c.3 0 .6-.2.8-.5l.3-.3zM295.8 331.5c-.4-.3-.7-.7-.7-1.2 0-.4.2-1 .7-1.5.4-.6.9-1 1.3-1 .5-.1 1 0 1.4.3l.5.7.1.6.2-.2.2-.3 1-1.3.6.5-3.7 4.6-.5-.3.3-.5h-.7l-.7-.4zm.4-.3c.3.2.7.3 1 .3.3-.1.6-.4.9-.7v-.1c.4-.5.6-.8.6-1.1 0-.4-.1-.7-.5-1a1 1 0 0 0-1-.1c-.3 0-.6.3-.9.7-.3.4-.5.8-.5 1.1 0 .3.1.6.4.9zM302.4 331.2l.5.8c.1.2.2.5.1.9 0 .3-.2.6-.5.9l-.2.3-2.3-1.8c-.3.4-.4.7-.4 1 0 .4.3.7.6 1l.6.4.6.2-.4.5a3.4 3.4 0 0 1-1.2-.7c-.3-.2-.6-.5-.7-.8-.1-.4-.2-.7-.1-1 0-.4.2-.8.5-1.1.3-.4.6-.6 1-.8.3-.2.6-.2 1-.2.3 0 .6.2.9.4zm-.4.4a1 1 0 0 0-.8-.2c-.3 0-.6.2-.8.5l1.7 1.3c.2-.3.3-.5.3-.8 0-.3-.1-.6-.4-.8zM306.3 339.8l.6-1.8-1.8-1.4-1.6 1-.5-.5 5.2-3 .5.4-1.8 5.8-.6-.5zm.8-2.4l.6-1.7v-.2l.2-.4v-.2l-.3.3c-.2 0-.3.1-.3.2l-1.6.9 1.4 1.1zM308.2 341.3l1.3-4.3.6.4-.9 2.5v.4a6.7 6.7 0 0 1-.4.7l.3-.2.4-.2.3-.2 2.3-1.4.5.4-3.8 2.3-.6-.4zM314.5 340.8c.3.2.4.5.6.8v.9c0 .3-.2.6-.4.9l-.3.3-2.2-1.8c-.3.4-.5.7-.4 1 0 .4.2.7.5 1l.6.4.6.2-.3.5a3.4 3.4 0 0 1-1.3-.7l-.7-.8v-1c0-.4.2-.8.5-1.1l.9-.8c.3-.2.6-.2 1-.2.3 0 .6.2.9.4zm-.4.4a1 1 0 0 0-.8-.2c-.3 0-.5.2-.8.5l1.7 1.3c.2-.3.3-.5.3-.8 0-.3 0-.6-.4-.8zM318.3 343.8c.4.3.6.6.6 1s0 .7-.4 1.2l-1.7 2.1-.5-.4 1.6-2.1c.5-.6.4-1 0-1.4-.4-.3-.8-.4-1-.3a2 2 0 0 0-1 .7l-1.3 1.7-.6-.4 2.6-3.3.5.4-.3.5c.3-.1.5-.1.8 0 .2 0 .5.1.7.3zM323.2 347.8l-2.6 3.3-.5-.4.3-.5c-.3.1-.5.1-.8 0a2 2 0 0 1-.7-.3c-.4-.3-.6-.7-.6-1 0-.3 0-.7.4-1.2l1.7-2.1.5.4-1.6 2.1c-.5.6-.4 1 0 1.4.4.3.8.4 1 .3a2 2 0 0 0 1-.7l1.3-1.7.6.4zM325.6 349.6l.5.7c.1.3.2.6.1 1 0 .2-.2.5-.5.8l-.2.4-2.3-1.8c-.3.4-.4.7-.4 1 0 .4.2.7.6 1l.6.3.6.3-.4.4a3.4 3.4 0 0 1-1.2-.6c-.3-.3-.6-.6-.7-.9-.1-.3-.2-.6-.1-1 0-.3.2-.7.5-1 .3-.4.6-.7 1-.8.3-.2.6-.3 1-.2.3 0 .6.2.9.4zm-.4.4a1 1 0 0 0-.8-.2c-.3 0-.6.2-.8.5l1.6 1.3c.3-.3.4-.6.4-.9 0-.2-.1-.5-.4-.7z" fill="#000" fill-rule="nonzero"/>
        <path stroke="#FFF" stroke-width="2" stroke-linejoin="round" d="M54.5 138.8l-2.4-2 3.5-4.3 2.4 2-.4.4-1.8-1.5-1.1 1.4 1.7 1.4-.3.5-1.8-1.4-1.3 1.5 2 1.5zM58.3 140.3a1 1 0 0 1-1 .5c-.3 0-.7-.2-1.1-.6l-.6-.5-.3-.5.4-.5a3 3 0 0 0 .8 1.1l.7.4c.2 0 .4 0 .5-.2l.1-.3v-.4l-.4-.6-.3-.7-.2-.6.3-.5c.2-.3.5-.4.8-.4.4 0 .7.2 1.1.5a3.4 3.4 0 0 1 .9 1l-.5.4-.4-.5c0-.2-.2-.4-.4-.5l-.6-.3c-.1 0-.3 0-.4.2v.7l.4.6.3.6.1.6c0 .2 0 .4-.2.5zM62.6 139.8c.4.3.6.7.6 1.2s-.2 1-.6 1.6c-.5.5-1 .9-1.4 1-.5 0-1 0-1.4-.4l-.5-.7v-.6h-.1a8.2 8.2 0 0 0-.4.5l-1.1 1.4-.5-.4 3.8-4.8.4.4-.3.5h.7c.3 0 .5.1.8.3zm-.5.4c-.3-.3-.6-.4-1-.3-.2 0-.5.3-.8.7h-.1l-.6 1.2c0 .3.2.6.5.9l.6.2c.3 0 .5 0 .7-.2l.6-.6c.3-.4.5-.7.5-1 0-.4 0-.7-.4-1zM62.6 145.3l-.5-.4 3.7-4.6.6.4zM67.6 143.8l.7 1c0 .3-.1.7-.4 1l-1.8 2.3-.4-.3.3-.6c-.3 0-.6.1-.8 0l-.8-.3c-.3-.3-.5-.5-.5-.9-.1-.3 0-.6.3-1 .2-.3.6-.4 1-.4s.8.3 1.4.7l.5.4.2-.2c.2-.2.3-.5.3-.7 0-.2-.2-.4-.4-.6a2 2 0 0 0-.5-.3l-.6-.2.2-.5a3.7 3.7 0 0 1 1.3.6zm-.8 2.3l-.5-.4c-.4-.3-.7-.5-1-.5l-.6.3c-.1.2-.2.4-.1.6l.3.4c.3.2.6.4.9.4.3 0 .6-.2.8-.5l.2-.3zM71.4 146.9c.4.3.6.6.6 1 0 .3 0 .7-.4 1.1l-1.7 2.2-.6-.5 1.7-2c.4-.6.4-1 0-1.5-.4-.2-.8-.3-1-.2a2 2 0 0 0-1 .7l-1.4 1.7-.5-.5 2.6-3.2.5.3-.3.5h.8l.7.4zM74.8 149.6l.7 1c0 .3-.1.7-.4 1l-1.8 2.3-.4-.3.3-.6c-.3 0-.6.1-.8 0l-.8-.3c-.3-.3-.4-.6-.5-.9-.1-.3 0-.6.3-1 .2-.3.6-.4 1-.4s.8.3 1.4.7l.6.4.1-.2.3-.7c0-.2-.2-.4-.4-.6a2 2 0 0 0-.5-.3l-.6-.2.2-.5a3.7 3.7 0 0 1 1.3.6zm-.7 2.3l-.5-.4-1-.5c-.3 0-.5.1-.7.3-.1.2-.2.4-.1.6l.3.4c.3.2.6.4.9.4.3 0 .6-.2.8-.5l.3-.3zM75.4 155.7c-.4-.3-.6-.7-.6-1.2s.2-1 .6-1.6c.5-.5 1-.8 1.4-1 .5 0 1 .1 1.4.4a1.5 1.5 0 0 1 .6 1.3l.2-.2.2-.3 1-1.3.6.5-3.8 4.6-.4-.3.3-.5a1.6 1.6 0 0 1-1.5-.4zm.5-.4c.3.3.6.4 1 .3.2 0 .5-.3.8-.6l.1-.1.6-1.1c0-.4-.1-.7-.5-1a1 1 0 0 0-1-.1c-.3 0-.6.3-.9.7-.3.4-.5.8-.5 1.1 0 .3 0 .6.4.8zM82 155.4c.3.3.5.5.6.8v.9c0 .3-.2.6-.4.9l-.3.3-2.2-1.8c-.3.4-.4.7-.4 1 0 .4.2.7.5 1l.6.4.6.2-.3.5a4 4 0 0 1-.7-.3l-.6-.4-.7-.8v-1c0-.4.2-.7.5-1.1.3-.4.6-.6 1-.8.2-.2.6-.2 1-.2l.8.4zm-.3.5a1 1 0 0 0-.8-.3c-.3 0-.6.2-.9.5l1.7 1.3c.2-.2.4-.5.4-.8 0-.3-.2-.5-.4-.7zM86 164l.5-1.7-1.7-1.4-1.6 1-.6-.5 5.2-3 .5.4-1.8 5.7-.6-.4zm.7-2.3l.6-1.8v-.2l.2-.3.1-.3-.4.3-.3.2-1.6 1 1.4 1zM87.7 165.5l1.4-4.3.6.5-.8 2.5-.2.4-.1.4-.2.3a8.2 8.2 0 0 1 1-.7l2.3-1.3.5.4-3.8 2.3-.7-.5zM94.1 165.1c.3.2.4.5.6.8v.9c0 .3-.2.6-.5.9l-.2.3-2.3-1.8c-.2.4-.4.7-.4 1 0 .4.2.7.6 1l.6.4.6.2-.4.5a4 4 0 0 1-.6-.3c-.2 0-.4-.2-.6-.4-.3-.2-.6-.5-.7-.8-.1-.4-.2-.7-.1-1 0-.4.2-.8.6-1.1.2-.4.5-.6.9-.8.3-.2.6-.2 1-.2.3 0 .6.2.9.4zm-.4.4a1 1 0 0 0-.8-.2c-.3 0-.5.2-.8.5l1.7 1.3c.2-.3.3-.5.3-.8 0-.3-.1-.5-.4-.8zM97.8 168.1c.4.4.7.7.7 1 0 .4-.1.8-.4 1.2l-1.7 2.1-.6-.4 1.7-2c.4-.6.4-1-.1-1.5-.4-.3-.7-.4-1-.3a2 2 0 0 0-1 .7l-1.3 1.7-.5-.4 2.6-3.3.5.4-.3.5h.8l.6.3zM102.7 172.2l-2.6 3.2-.4-.3.2-.5h-.7a2 2 0 0 1-.7-.4c-.4-.3-.6-.6-.7-1 0-.3.1-.7.4-1.1l1.8-2.2.5.5-1.7 2.1c-.4.5-.4 1 .1 1.4.4.3.7.4 1 .3a2 2 0 0 0 1-.8l1.3-1.7.5.5zM105.1 174c.3.2.5.4.6.7v1c0 .2-.2.5-.5.8l-.2.3-2.2-1.7c-.3.3-.5.7-.5 1 0 .4.3.7.6 1l.6.3.6.3-.4.4a4 4 0 0 1-.6-.2l-.6-.4c-.3-.3-.6-.6-.7-.9-.1-.3-.2-.6-.1-1 0-.3.3-.7.6-1 .2-.4.5-.7.9-.9.3-.1.6-.2 1-.1.3 0 .6.1.9.4zm-.4.4a1 1 0 0 0-.8-.2c-.3 0-.5.2-.8.4l1.7 1.4.3-.9c0-.2-.1-.5-.4-.7z"/>
        <path d="M54.5 138.8l-2.4-2 3.5-4.3 2.4 2-.4.4-1.8-1.5-1.1 1.4 1.7 1.4-.3.5-1.8-1.4-1.3 1.5 2 1.5zM58.3 140.3a1 1 0 0 1-1 .5c-.3 0-.7-.2-1.1-.6l-.6-.5-.3-.5.4-.5a3 3 0 0 0 .8 1.1l.7.4c.2 0 .4 0 .5-.2l.1-.3v-.4l-.4-.6-.3-.7c-.1-.2-.2-.4-.1-.6 0-.1 0-.3.2-.5.2-.3.5-.4.8-.4.4 0 .7.2 1.1.5a3.4 3.4 0 0 1 .9 1l-.5.3-.4-.4c0-.2-.2-.4-.4-.5l-.6-.3c-.1 0-.3 0-.4.2v.7l.4.6.3.6.1.6c0 .2 0 .4-.2.5zM62.6 139.8c.4.3.6.7.6 1.2s-.2 1-.6 1.6c-.5.5-1 .9-1.4 1-.5 0-1 0-1.4-.4l-.5-.7v-.6h-.1a8.2 8.2 0 0 0-.4.5l-1.1 1.4-.5-.4 3.8-4.8.4.4-.3.5h.7c.3 0 .5 0 .8.3zm-.5.4c-.3-.3-.6-.4-1-.3-.2 0-.5.3-.8.7h-.1l-.6 1.2c0 .3.2.6.5.9l.6.2c.3 0 .5 0 .7-.2l.6-.6c.3-.4.5-.7.5-1 0-.4 0-.7-.4-1zM62.6 145.3l-.5-.4 3.7-4.6.6.4zM67.6 143.8l.7 1c0 .3-.1.7-.4 1l-1.8 2.3-.4-.3.3-.6c-.3 0-.6.1-.8 0l-.8-.3c-.3-.3-.5-.6-.5-.9-.1-.3 0-.6.3-1 .2-.3.6-.4 1-.4s.8.3 1.4.7l.5.4.2-.2c.2-.2.3-.5.3-.7 0-.2-.2-.4-.4-.6a2 2 0 0 0-.5-.3l-.6-.2.2-.5a3.7 3.7 0 0 1 1.3.6zm-.8 2.3l-.5-.4c-.4-.3-.7-.5-1-.5l-.6.3c-.1.2-.2.4-.1.6l.3.4c.3.2.6.4.9.4.3 0 .6-.2.8-.5l.2-.3zM71.4 146.9c.4.3.6.6.6 1 0 .3 0 .7-.4 1.1l-1.7 2.2-.6-.5 1.7-2c.4-.6.4-1 0-1.5-.4-.2-.8-.3-1-.2a2 2 0 0 0-1 .7l-1.4 1.7-.5-.5 2.6-3.2.5.3-.3.5h.8l.7.4zM74.8 149.6l.7 1c0 .3-.1.7-.4 1l-1.8 2.3-.4-.3.3-.6c-.3 0-.6.1-.8 0l-.8-.3c-.3-.3-.4-.6-.5-.9 0-.3 0-.6.3-1 .2-.3.6-.4 1-.4s.8.3 1.4.7l.6.4.1-.2.3-.7c0-.2-.2-.4-.4-.6a2 2 0 0 0-.5-.3l-.6-.2.2-.5a3.7 3.7 0 0 1 1.3.6zm-.7 2.3l-.5-.4-1-.5c-.3 0-.5.1-.7.3-.1.2-.2.4-.1.6l.3.4c.3.2.6.4.9.4.3 0 .6-.2.8-.5l.3-.3zM75.4 155.7c-.4-.3-.6-.7-.6-1.2s.2-1 .6-1.6c.5-.5 1-.8 1.4-1 .5 0 1 .1 1.4.4a1.5 1.5 0 0 1 .6 1.3l.2-.2.2-.3 1-1.3.6.5-3.8 4.6-.4-.3.3-.5a1.6 1.6 0 0 1-1.5-.4zm.5-.4c.3.3.6.4 1 .3.2 0 .5-.3.8-.6l.1-.1.6-1.2c0-.3-.1-.6-.5-.9a1 1 0 0 0-1-.1c-.3 0-.6.3-1 .7-.2.4-.4.8-.4 1.1 0 .3 0 .6.4.8zM82 155.4c.3.3.5.5.6.8v.9c0 .3-.2.6-.4.9l-.3.3-2.2-1.8c-.3.4-.4.7-.4 1 0 .4.2.7.5 1l.6.4.6.2-.3.5a4 4 0 0 1-.7-.3l-.6-.4-.7-.8v-1c0-.4.2-.7.5-1.1.3-.4.6-.6 1-.8.2-.2.6-.2.9-.2.3 0 .7.2 1 .4zm-.3.5a1 1 0 0 0-.8-.3c-.3 0-.6.2-.9.5l1.7 1.3c.2-.3.4-.5.4-.8 0-.3-.2-.5-.4-.7zM86 164l.5-1.7-1.7-1.4-1.6 1-.6-.5 5.2-3 .5.4-1.8 5.7-.6-.4zm.7-2.3l.6-1.8v-.2l.2-.3.1-.3-.4.3-.3.2-1.6 1 1.4 1zM87.7 165.5l1.4-4.3.6.5-.8 2.5-.2.4-.1.4-.2.3a8.2 8.2 0 0 1 1-.7l2.3-1.3.5.4-3.8 2.3-.7-.5zM94 165.1c.4.2.5.5.7.8v.9c0 .3-.2.6-.5.9l-.2.3-2.3-1.8c-.2.4-.4.7-.4 1 0 .4.2.7.6 1l.6.4.6.2-.4.5a4 4 0 0 1-.6-.3c-.2 0-.4-.2-.6-.4-.3-.2-.6-.5-.7-.8-.1-.4-.2-.7-.1-1 0-.4.2-.8.6-1.1.2-.4.5-.6.9-.8.3-.2.6-.2 1-.2.3 0 .6.2.9.4zm-.3.4a1 1 0 0 0-.8-.2c-.3 0-.5.2-.8.5l1.7 1.3c.2-.3.3-.5.3-.8 0-.3-.1-.5-.4-.8zM97.8 168.1c.4.4.7.7.7 1 0 .4-.1.8-.4 1.2l-1.7 2.1-.6-.4 1.7-2c.4-.6.4-1-.1-1.5-.4-.3-.7-.4-1-.3a2 2 0 0 0-1 .7l-1.3 1.7-.5-.4 2.6-3.3.5.4-.3.5h.8l.6.3zM102.7 172.2l-2.6 3.2-.4-.3.2-.5h-.7a2 2 0 0 1-.7-.4c-.4-.3-.6-.6-.7-1 0-.3.1-.7.4-1.1l1.8-2.2.5.5-1.7 2.1c-.4.5-.4 1 .1 1.4.4.3.7.4 1 .3a2 2 0 0 0 1-.8l1.3-1.7.5.5zM105.1 174l.6.7v1c0 .2-.2.5-.5.8l-.2.3-2.2-1.7c-.3.3-.5.7-.4 1 0 .4.2.7.5 1l.6.3.6.3-.4.4a4 4 0 0 1-.6-.2l-.6-.4c-.3-.3-.6-.6-.7-.9-.1-.3-.2-.6-.1-1 0-.3.3-.7.6-1 .2-.4.5-.7.9-.9.3-.1.6-.2 1-.1.3 0 .6.1.9.4zm-.4.4a1 1 0 0 0-.8-.2c-.3 0-.5.2-.8.4l1.7 1.4.3-.9c0-.2-.1-.5-.4-.7z" fill="#000" fill-rule="nonzero"/>
        <path stroke="#FFF" stroke-width="2" stroke-linejoin="round" d="M158.6 232.8l-2.5-2 3.6-4.4 2.4 2-.4.5-1.9-1.5-1 1.3 1.7 1.5-.4.5-1.8-1.5-1.2 1.6 1.9 1.5zM162.3 234.3c-.2.3-.5.5-.9.4-.4 0-.7-.2-1.1-.5l-.6-.5-.3-.5.4-.5a3 3 0 0 0 .8 1c.3.3.5.4.7.4.2 0 .4 0 .5-.2v-.2-.4l-.3-.7-.4-.6v-.6l.1-.5c.3-.3.6-.4 1-.4.3 0 .6.2 1 .5a3.4 3.4 0 0 1 .8 1l-.5.3-.3-.5-.4-.4-.6-.3-.4.1-.1.3v.4l.4.6.4.7v.6c0 .2 0 .3-.2.5zM166.6 233.8c.4.3.7.7.7 1.2 0 .4-.2 1-.7 1.5-.4.6-.9 1-1.4 1-.4.1-.9 0-1.3-.3l-.5-.7-.1-.6a8.2 8.2 0 0 0-.5.5l-1 1.3-.6-.4 3.8-4.7.5.3-.3.5h.7l.7.4zm-.4.3l-1-.3c-.3.1-.5.3-.9.7v.1c-.4.4-.5.8-.6 1.1 0 .4.1.7.5 1l.6.2.6-.2.7-.6.5-1c0-.4-.1-.7-.4-1zM166.7 239.3l-.5-.4 3.7-4.7.5.5zM171.7 237.8c.4.3.6.7.6 1 0 .3 0 .7-.4 1l-1.8 2.3-.3-.3.2-.6h-.8c-.2 0-.4-.1-.7-.4-.3-.2-.5-.5-.6-.8 0-.3 0-.6.3-1 .3-.3.6-.4 1-.4s.9.3 1.4.7l.6.4.2-.2.3-.7c0-.2-.2-.4-.4-.6l-.6-.3a8 8 0 0 0-.6-.2l.2-.5a3.2 3.2 0 0 1 1.4.6zm-.8 2.3l-.5-.4c-.4-.3-.7-.5-1-.5-.2 0-.5 0-.6.3-.2.2-.2.3-.2.5s.2.4.4.5c.2.2.5.3.8.3.3 0 .6-.1.9-.5l.2-.2zM175.4 240.8l.7 1c0 .4-.1.8-.5 1.2L174 245l-.5-.4 1.7-2c.4-.6.4-1-.1-1.5-.4-.3-.7-.4-1-.3a2 2 0 0 0-1 .7l-1.3 1.7-.5-.4 2.6-3.3.4.4-.2.5h.7c.3 0 .5.2.7.3zM178.9 243.6c.4.3.6.7.6 1 0 .3 0 .7-.4 1l-1.7 2.3-.4-.3.2-.6h-.8c-.2 0-.4-.1-.7-.4-.3-.2-.5-.5-.6-.8 0-.3 0-.6.3-1 .3-.3.6-.4 1-.4s.9.3 1.4.7l.6.4.2-.2.3-.7c0-.2-.2-.4-.4-.6l-.6-.3a8 8 0 0 0-.5-.2l.1-.5a3.2 3.2 0 0 1 1.4.6zm-.8 2.3l-.5-.4c-.4-.3-.7-.5-1-.5-.2 0-.4 0-.6.3-.2.2-.2.3-.2.5s.2.4.4.5c.2.2.5.3.8.3.3 0 .6-.1.9-.5l.2-.2zM179.5 249.7c-.4-.3-.6-.7-.7-1.2 0-.5.3-1 .7-1.6.5-.5 1-.9 1.4-1 .5 0 1 0 1.3.4a1.6 1.6 0 0 1 .7 1.3 21.8 21.8 0 0 0 .3-.5l1-1.3.6.4-3.7 4.7-.4-.4.2-.5h-.7l-.7-.3zm.4-.4c.4.3.7.4 1 .3.3 0 .6-.3.9-.7.4-.5.6-.8.6-1.2 0-.3 0-.6-.5-.9a1 1 0 0 0-.9-.2l-1 .8-.5 1c0 .4.1.7.4 1zM186 249.4c.4.2.6.5.7.7v1l-.4.8-.3.4-2.2-1.8c-.3.4-.5.7-.4 1 0 .4.2.7.5 1l.6.3.6.3-.3.4c-.3 0-.5 0-.7-.2-.2 0-.4-.2-.6-.4l-.7-.9v-1c0-.3.2-.7.5-1 .3-.4.6-.7.9-.8.3-.2.6-.2 1-.2.3 0 .6.2.9.4zm-.3.4a1 1 0 0 0-.8-.2c-.3 0-.5.2-.8.5l1.7 1.3.3-.8c0-.3 0-.6-.4-.8zM190 258l.6-1.8-1.7-1.4-1.6 1-.6-.5 5.2-3 .5.4-1.8 5.7-.5-.4zm.8-2.4l.6-1.7v-.2l.2-.4v-.2l-.3.3-.3.2-1.6.9 1.4 1zM191.9 259.4l1.3-4.2.6.4-.8 2.5a13.4 13.4 0 0 1-.5 1.1l.3-.2.4-.2.3-.2 2.3-1.4.6.5-4 2.2-.5-.5zM198.2 259c.3.2.5.5.6.8v.9c0 .3-.2.6-.4.9l-.3.3-2.2-1.8c-.3.4-.5.7-.4 1 0 .4.2.7.5 1l.6.4.6.2-.3.5-.7-.3-.6-.4-.7-.8v-1c0-.4.2-.8.5-1.1l.9-.8c.3-.2.6-.2 1-.2.3 0 .6.2.9.4zm-.3.4a1 1 0 0 0-.9-.2c-.3 0-.5.2-.8.5l1.7 1.3c.2-.3.3-.5.3-.8 0-.3 0-.5-.3-.8zM202 262c.4.3.6.6.6 1s0 .7-.4 1.2l-1.7 2.1-.5-.4 1.6-2.1c.5-.6.4-1 0-1.4-.4-.3-.8-.4-1-.3a2 2 0 0 0-1 .7l-1.3 1.7-.6-.4 2.6-3.3.5.4-.3.5c.3-.1.5-.1.8 0 .2 0 .5.1.7.3zM206.9 266l-2.6 3.3-.5-.3.3-.5h-.8a2 2 0 0 1-.7-.4c-.4-.3-.6-.7-.6-1 0-.3 0-.7.4-1.1l1.7-2.2.5.4-1.6 2.1c-.5.6-.4 1 0 1.4.4.3.8.4 1 .3a2 2 0 0 0 1-.7l1.3-1.7.6.4zM209.3 267.8l.5.7c.2.3.2.6.1 1 0 .2-.2.5-.5.8l-.2.4-2.3-1.8c-.3.4-.4.7-.4 1 0 .4.2.7.6 1l.6.3.6.3-.4.4c-.2 0-.4 0-.6-.2-.2 0-.4-.2-.6-.4-.3-.3-.6-.5-.7-.9-.1-.3-.2-.6-.1-1 0-.3.2-.7.5-1 .3-.4.6-.7 1-.8.3-.2.6-.3 1-.2.3 0 .6.2.9.4zm-.4.4a1 1 0 0 0-.8-.2c-.3 0-.6.2-.8.5l1.7 1.3.3-.8c0-.3-.1-.6-.4-.8z"/>
        <path d="M158.6 232.8l-2.5-2 3.6-4.4 2.4 2-.4.5-1.9-1.5-1 1.3 1.7 1.5-.4.5-1.8-1.5-1.2 1.6 1.9 1.5zM162.3 234.3c-.2.3-.5.5-.9.4-.4 0-.7-.2-1.1-.5l-.6-.5-.3-.5.4-.5a3 3 0 0 0 .8 1c.3.3.5.4.7.4.2 0 .4 0 .5-.2v-.2-.4l-.3-.6-.4-.7v-.6l.1-.5c.3-.3.6-.4.9-.4.4 0 .7.2 1 .5a3.4 3.4 0 0 1 1 1l-.6.3-.3-.5-.4-.4-.6-.3-.4.1-.1.3v.4l.4.6.4.7v.6c0 .2 0 .3-.2.5zM166.6 233.8c.4.3.7.7.7 1.2 0 .4-.2 1-.7 1.5-.4.6-.9 1-1.4 1-.4.1-.9 0-1.3-.3l-.5-.7-.1-.6a8.2 8.2 0 0 0-.5.5l-1 1.3-.6-.4 3.8-4.7.5.3-.3.5h.7l.7.4zm-.4.3l-1-.3c-.3.1-.5.3-.9.7v.1c-.4.4-.5.8-.6 1.1 0 .4.1.7.5 1l.6.2.6-.2.7-.6.5-1c0-.4-.1-.7-.4-1zM166.7 239.3l-.5-.4 3.7-4.7.5.5zM171.7 237.8c.4.3.6.7.6 1 0 .3 0 .7-.4 1l-1.8 2.3-.3-.3.2-.6h-.8c-.2 0-.4-.1-.7-.4-.3-.2-.5-.5-.6-.8 0-.3 0-.6.3-1 .3-.3.6-.4 1-.4s.9.3 1.4.7l.6.4.2-.2.3-.7c0-.2-.2-.4-.4-.6l-.6-.3a8 8 0 0 0-.6-.2l.2-.5a3.2 3.2 0 0 1 1.4.6zm-.8 2.3l-.5-.4c-.4-.3-.7-.5-1-.5-.2 0-.5 0-.6.3-.2.2-.2.3-.2.5s.2.4.4.5c.2.2.5.3.8.3.3 0 .6-.1.9-.5l.2-.2zM175.4 240.8l.7 1c0 .4-.1.8-.4 1.2l-1.8 2.1-.5-.4 1.7-2c.4-.6.4-1-.1-1.5-.4-.3-.7-.4-1-.3a2 2 0 0 0-1 .7l-1.3 1.7-.5-.4 2.6-3.3.4.4-.2.5h.7c.3 0 .5.2.7.3zM178.9 243.6c.4.3.6.7.6 1 0 .3 0 .7-.3 1l-1.8 2.3-.4-.3.2-.6h-.8c-.2 0-.4-.1-.7-.4-.3-.2-.5-.5-.6-.8 0-.3 0-.6.3-1 .3-.3.6-.4 1-.4s.9.3 1.4.7l.6.4.2-.2.3-.7c0-.2-.2-.4-.4-.6l-.6-.3a8 8 0 0 0-.5-.2l.1-.5a3.2 3.2 0 0 1 1.4.6zm-.8 2.3l-.5-.4c-.4-.3-.7-.5-1-.5-.2 0-.4 0-.6.3-.2.2-.2.3-.2.5s.2.4.4.5c.2.2.5.3.8.3.3 0 .6-.1.9-.5l.2-.2zM179.5 249.7c-.4-.3-.6-.7-.7-1.2 0-.5.3-1 .7-1.6.5-.5 1-.9 1.4-1 .5 0 1 0 1.3.4a1.6 1.6 0 0 1 .6 1.3 21.8 21.8 0 0 0 .4-.5l1-1.3.6.4-3.7 4.7-.4-.4.2-.5h-.7l-.7-.3zm.4-.4c.4.3.7.4 1 .3.3 0 .6-.3.9-.7.4-.5.6-.8.6-1.2 0-.3 0-.6-.5-.9a1 1 0 0 0-.9-.2l-1 .8-.5 1c0 .4.1.7.4 1zM186 249.4c.4.2.6.5.7.7v1l-.4.8-.3.4-2.2-1.8c-.3.4-.5.7-.4 1 0 .4.2.7.5 1l.6.3.6.3-.3.4c-.3 0-.5 0-.7-.2-.2 0-.4-.2-.6-.4l-.7-.9v-1c0-.3.2-.7.5-1 .3-.4.6-.7.9-.8.3-.2.6-.3 1-.2.3 0 .6.2.9.4zm-.3.4a1 1 0 0 0-.8-.2c-.3 0-.5.2-.8.5l1.7 1.3.3-.8c0-.3 0-.6-.4-.8zM190 258l.6-1.8-1.7-1.4-1.6 1-.6-.5 5.2-3 .5.4-1.8 5.7-.5-.4zm.8-2.4l.6-1.7v-.2l.2-.4v-.2l-.3.3-.3.2-1.6.9 1.4 1zM191.9 259.4l1.3-4.2.6.4-.8 2.5a13.4 13.4 0 0 1-.4 1.1l.2-.2.4-.2.3-.2 2.3-1.4.6.5-4 2.2-.5-.5zM198.2 259c.3.2.5.5.6.8v.9c0 .3-.2.6-.4.9l-.3.3-2.2-1.8c-.3.4-.5.7-.4 1 0 .4.2.7.5 1l.6.4.6.2-.3.5-.7-.3-.6-.4-.7-.8v-1c0-.4.2-.8.5-1.1l.9-.8c.3-.2.6-.2 1-.2.3 0 .6.2.9.4zm-.3.4a1 1 0 0 0-.9-.2c-.3 0-.5.2-.8.5l1.7 1.3c.2-.3.3-.5.3-.8 0-.3 0-.5-.3-.8zM202 262c.4.3.6.6.6 1s0 .7-.4 1.2l-1.7 2.1-.5-.4 1.6-2.1c.5-.6.4-1 0-1.4-.4-.3-.8-.4-1-.3a2 2 0 0 0-1 .7l-1.3 1.7-.6-.4 2.6-3.3.5.4-.3.5c.3-.1.5-.1.8 0 .2 0 .5.1.7.3zM206.9 266l-2.6 3.3-.5-.3.3-.5h-.8a2 2 0 0 1-.7-.4c-.4-.3-.6-.6-.6-1 0-.3 0-.7.4-1.1l1.7-2.2.5.4-1.6 2.1c-.5.6-.4 1 0 1.4.4.3.8.4 1 .3a2 2 0 0 0 1-.7l1.3-1.7.6.4zM209.3 267.8l.5.7c.2.3.2.6.1 1 0 .2-.2.5-.5.8l-.2.4-2.3-1.8c-.3.4-.4.7-.4 1 0 .4.2.7.6 1l.6.3.6.3-.4.4c-.2 0-.4 0-.6-.2-.2 0-.4-.2-.6-.4-.3-.3-.6-.5-.7-.9-.1-.3-.2-.6-.1-1 0-.3.2-.7.5-1 .3-.4.6-.7 1-.8.3-.2.6-.2 1-.2.3 0 .6.2.9.4zm-.4.4a1 1 0 0 0-.8-.2c-.3 0-.6.2-.8.5l1.7 1.3.3-.8c0-.3-.1-.6-.4-.8z" fill="#000" fill-rule="nonzero"/>
        <path d="M156.6 331.5l-.3.8-5.4 1.2.7.3.8.2 3 1-.3.7-5.3-2 .3-.7 5.4-1.2a23 23 0 0 0-1.4-.5l-3-1 .2-.7 5.3 1.9zM156.3 326c.7.2 1.1.6 1.4 1 .2.5.2 1 0 1.6 0 .3-.3.6-.5.8-.3.3-.6.4-1 .4l-1.2-.1c-.6-.3-1-.6-1.3-1-.3-.5-.3-1 0-1.6 0-.3.3-.6.5-.9l1-.4c.3 0 .7 0 1.1.2zm-1 3c.4.2.8.2 1.2.1.3 0 .6-.3.7-.7v-1c-.3-.3-.6-.6-1.1-.7a2 2 0 0 0-1.2-.1c-.3 0-.6.3-.7.7-.2.4-.1.8 0 1l1 .7zM155.3 322.4l.1-.2.1-.3.6.3a2.1 2.1 0 0 0-.2.4v.7l.3.6.6.4 2.1.7-.2.7-4-1.4.2-.6.8.2-.4-.7v-.8zM159.8 321.1a3.6 3.6 0 0 0 .1-.5l.5.1v.4a2 2 0 0 1-.4.9 1 1 0 0 1-.5.3l-.9-.1-2.3-.9-.2.6h-.3v-.8l-.8-.5.2-.4.9.3.4-1.1.5.2-.4 1 2.3 1h.6l.3-.5zM155.4 317.3l1.6.6.5.2-.2-.7v-.8c.3-.4.5-.8.8-1l1.2.1 2.6 1-.2.6-2.5-1c-.7-.2-1 0-1.3.6-.2.5-.1.8 0 1 .2.3.6.5 1 .7l2 .7-.2.7-5.6-2 .3-.7zM160 305.4l4.8 3.3-.3.7-3.8-.2a6.6 6.6 0 0 1-.9 0l-.2-.1.3.2.6.4 3.1 2.3-.2.6-5.8-.5.2-.7 3.5.4a9.8 9.8 0 0 1 1.4.2l-.6-.4c-.2 0-.4-.2-.6-.4l-2.9-2 .3-.7 3.6.2a6.6 6.6 0 0 1 1.3.1l-.5-.3-.6-.4-3-2 .3-.7zM160.1 304l1.7.5.5.3-.2-.7v-.8c.2-.5.5-.8.8-1h1.2l2.6 1-.2.6-2.5-.9c-.7-.2-1.1 0-1.3.6-.2.4-.2.8 0 1 .2.3.5.5 1 .6l2 .8-.2.6-5.6-2 .2-.6zM161.8 299.8l.2-.3h.4l.3.3v.3l-.2.2h-.4l-.3-.2v-.3zm1.6.2l4 1.4-.2.7-4-1.5.2-.6zM167.9 298.7a3.6 3.6 0 0 0 0-.6l.6.2v.3a2 2 0 0 1-.5.9 1 1 0 0 1-.5.3l-.8-.1-2.3-.8-.2.5h-.3v-.7l-.8-.6.1-.4 1 .3.3-1.1.5.2-.4 1.1 2.3.8h.6c.2 0 .3-.2.4-.3zM165.3 294.5l.5-.8.9-.3 1 .1.4.1-1 2.8h1.1c.4-.2.6-.4.7-.8a3 3 0 0 0 .2-1.4l.6.2a3.5 3.5 0 0 1-.2 1.4l-.6 1-1 .4c-.3 0-.7 0-1.1-.2l-1-.6-.6-.9.1-1zm.5.2a1 1 0 0 0 0 .8c.2.3.4.5.8.7l.7-2c-.3-.2-.6-.2-.9-.1-.3 0-.4.3-.6.6zM170.7 287.8c.4.2.7.5.9 1 .1.3 0 .8-.1 1.4a5.1 5.1 0 0 1-.8 1.4l-.6-.3.4-.5.4-.8c.1-.4.2-.7 0-1 0-.2-.2-.4-.4-.5h-.5a1 1 0 0 0-.4.2l-.6.6c-.4.4-.7.7-1 .8-.3.2-.7.2-1.1 0-.3 0-.5-.2-.6-.4-.2-.2-.3-.5-.3-.8 0-.3 0-.6.2-1a3.7 3.7 0 0 1 .8-1.3l.5.4a3.2 3.2 0 0 0-.8 1.2v.8c0 .2.2.4.4.5h.5l.5-.2.5-.6.7-.6.6-.4.8.1zM172.4 285.8a3.6 3.6 0 0 0 .2-.5l.5.1v.4a2 2 0 0 1-.5.9 1 1 0 0 1-.5.3l-.8-.1-2.3-.9-.2.6-.3-.1v-.7l-.8-.5.1-.4 1 .3.3-1.1.5.1-.4 1.2 2.3.8h.6c.2 0 .3-.2.3-.4zM170 281.4l.1-.3.1-.2.6.3a2.1 2.1 0 0 0-.2.4v.7l.3.6.6.4 2.1.7-.2.7-4-1.4.2-.6.8.2-.4-.7c-.1-.3 0-.5 0-.8zM171 278.8c0-.3.2-.6.5-.8.2-.2.5-.3.8-.3l1 .1.4.1-1 2.7c.5.2.9.2 1.2 0 .3 0 .5-.3.6-.7a3 3 0 0 0 .2-1.4l.6.2a3.5 3.5 0 0 1-.2 1.4c-.1.4-.3.7-.6 1l-1 .4c-.3 0-.7 0-1.1-.2l-1-.6c-.3-.3-.5-.6-.5-.9v-1zm.5.2a1 1 0 0 0 0 .8c.1.3.4.5.7.7l.7-2c-.3-.2-.6-.2-.9-.1-.2 0-.4.3-.5.6zM172.4 274.6c.1-.3.3-.6.6-.8.2-.2.5-.3.8-.3l1 .1.4.2-1 2.7h1.2c.3-.1.5-.4.6-.8a3 3 0 0 0 .2-1.4l.6.2a3.5 3.5 0 0 1-.2 1.4c-.1.4-.3.7-.6 1l-1 .4c-.3 0-.7 0-1.1-.2-.5-.1-.8-.3-1-.6-.3-.3-.5-.5-.5-.9v-1zm.6.2a1 1 0 0 0 0 .9l.7.6.7-2c-.3-.1-.6-.2-.9 0-.2 0-.4.2-.5.5zM177.4 272a3.6 3.6 0 0 0 .1-.6l.5.1v.4a2 2 0 0 1-.4.9 1 1 0 0 1-.5.3l-.8-.1-2.3-.9-.2.6-.3-.1-.1-.7-.8-.5.2-.4.9.3.4-1.1.5.1-.4 1.2 2.3.8h.6c.1 0 .3-.2.3-.4z" stroke="#FFF" stroke-width="2" stroke-linejoin="round"/>
        <path d="M156.6 331.5l-.3.8-5.4 1.2.7.3.8.2 3 1-.3.7-5.3-2 .3-.7 5.4-1.2a23 23 0 0 0-1.4-.5l-3-1 .2-.7 5.3 1.9zM156.3 326c.7.2 1.1.6 1.4 1 .2.5.2 1 0 1.6 0 .3-.3.6-.5.8-.3.3-.6.4-1 .4l-1.2-.1c-.6-.3-1-.6-1.3-1-.3-.5-.3-1 0-1.6 0-.3.3-.6.5-.9l1-.4c.3 0 .7 0 1.1.2zm-1 3c.4.2.8.2 1.2.1.3 0 .6-.3.7-.7v-1c-.3-.3-.6-.6-1.1-.7a2 2 0 0 0-1.2-.1c-.3 0-.6.3-.7.7-.2.4-.1.8 0 1l1 .7zM155.3 322.4l.1-.2.1-.3.6.3a2.1 2.1 0 0 0-.2.5v.6l.3.6.6.4 2.1.7-.2.7-4-1.4.2-.6.8.2-.4-.7v-.8zM159.8 321.1a3.6 3.6 0 0 0 .1-.5l.5.1v.4a2 2 0 0 1-.4.9 1 1 0 0 1-.5.3l-.9-.1-2.3-.9-.2.6h-.3v-.8l-.8-.5.2-.4.9.3.4-1.1.5.2-.4 1 2.3 1h.6l.3-.5zM155.3 317.3l1.7.6.5.2-.2-.7v-.8c.3-.4.5-.8.8-1l1.2.1 2.6 1-.2.6-2.5-1c-.7-.2-1 0-1.3.6-.2.5-.1.8 0 1 .2.3.6.5 1 .7l2 .7-.2.7-5.6-2 .2-.7zM160 305.4l4.8 3.3-.3.7-3.8-.2a6.6 6.6 0 0 1-.9 0l-.2-.1.3.2.6.4 3.1 2.3-.2.6-5.8-.5.2-.7 3.6.4a9.8 9.8 0 0 1 1.3.2l-.6-.4c-.2 0-.4-.2-.6-.4l-2.9-2 .3-.7 3.6.2a6.6 6.6 0 0 1 1.3.1l-.5-.3-.6-.4-3-2 .3-.7zM160.1 304l1.7.5.5.3-.2-.7v-.8c.2-.5.5-.8.8-1h1.2l2.6 1-.2.6-2.5-.9c-.7-.2-1.1 0-1.3.6-.2.4-.2.8 0 1 .2.3.5.5 1 .6l2 .8-.2.6-5.6-2 .2-.6zM161.8 299.8l.2-.3h.4l.3.3v.3l-.2.2h-.4l-.3-.2v-.3zm1.6.2l4 1.4-.2.7-4-1.5.2-.6zM167.9 298.7a3.6 3.6 0 0 0 0-.6l.6.2v.3a2 2 0 0 1-.5.9 1 1 0 0 1-.5.3l-.8-.1-2.3-.8-.2.5h-.3v-.7l-.8-.6.1-.4 1 .3.3-1.1.5.2-.4 1.1 2.3.8h.6c.2 0 .3-.2.4-.3zM165.3 294.5l.5-.8.9-.3 1 .1.4.1-1 2.8h1.1c.4-.2.6-.4.7-.8a3 3 0 0 0 .2-1.4l.6.2a3.5 3.5 0 0 1-.2 1.4l-.6 1-1 .4c-.3 0-.7 0-1.1-.2l-1-.6-.6-.9.1-1zm.5.2a1 1 0 0 0 0 .8c.2.3.4.5.8.7l.7-2c-.3-.2-.6-.2-.9-.1-.3 0-.4.3-.6.6zM170.7 287.8c.4.2.7.5.9 1 .1.3 0 .8-.1 1.4a5.1 5.1 0 0 1-.8 1.4l-.6-.3.4-.5.4-.8c.1-.4.2-.7 0-1 0-.2-.2-.4-.4-.5h-.5a1 1 0 0 0-.4.2l-.6.6c-.4.4-.7.7-1 .8-.3.2-.7.2-1.1 0-.3 0-.5-.2-.6-.4-.2-.2-.3-.5-.3-.8 0-.3 0-.6.2-1a3.7 3.7 0 0 1 .8-1.3l.5.4a3.2 3.2 0 0 0-.8 1.2v.8c0 .2.2.4.4.5h.5l.5-.2.5-.6.7-.7.6-.3.8.1zM172.4 285.8a3.6 3.6 0 0 0 .2-.5l.5.1v.4a2 2 0 0 1-.5.9 1 1 0 0 1-.5.3l-.8-.1-2.3-.9-.2.6-.3-.1v-.7l-.8-.5.1-.4 1 .3.3-1.1.5.2-.4 1 2.3 1h.6c.2-.1.3-.3.3-.5zM170 281.4l.1-.3.1-.2.6.3a2.1 2.1 0 0 0-.2.4v.7c0 .2 0 .4.3.6l.6.4 2.1.7-.2.7-4-1.4.2-.6.8.2-.4-.7c-.1-.3 0-.5 0-.8zM171 278.8c0-.3.2-.6.5-.8.2-.2.5-.3.8-.3l1 .1.4.1-1 2.7c.5.2.9.2 1.2 0 .3 0 .5-.3.6-.7a3 3 0 0 0 .2-1.4l.6.2a3.5 3.5 0 0 1-.2 1.4c-.1.4-.3.7-.6 1l-1 .4c-.3 0-.7 0-1.1-.2l-1-.6c-.3-.3-.5-.6-.5-.9v-1zm.5.2a1 1 0 0 0 0 .8c.1.3.4.5.7.7l.7-2c-.3-.2-.6-.2-.9-.1-.2 0-.4.3-.5.6zM172.4 274.6c.1-.3.3-.6.6-.8.2-.2.5-.3.8-.3l1 .1.4.2-1 2.7h1.2c.3-.1.5-.4.6-.8a3 3 0 0 0 .2-1.4l.6.2a3.5 3.5 0 0 1-.2 1.4c-.1.4-.3.7-.6 1l-1 .4c-.3 0-.7 0-1.1-.2-.5-.1-.8-.3-1-.6-.3-.3-.5-.5-.5-.9v-1zm.6.2a1 1 0 0 0 0 .9l.7.6.7-2c-.3-.1-.6-.2-.9 0-.2 0-.4.2-.5.5zM177.4 272a3.6 3.6 0 0 0 .1-.6l.5.1v.4a2 2 0 0 1-.4.9 1 1 0 0 1-.5.3l-.8-.1-2.3-.9-.2.6-.3-.1-.1-.7-.8-.5.2-.4.9.3.4-1.1.5.1-.4 1.2 2.3.8h.6c.1 0 .3-.2.3-.4z" fill="#000" fill-rule="nonzero"/>
        <path d="M59.9 76.4l-.3.8-5.4 1.3.7.2.8.2 3 1-.3.7-5.3-1.9.3-.7 5.3-1.3a4 4 0 0 1-.8-.3l-.6-.2-3-1 .3-.7 5.3 1.9zM59.6 70.9c.6.2 1 .6 1.3 1 .2.5.3 1 0 1.6a2 2 0 0 1-.5.8c-.3.2-.6.4-1 .4l-1.1-.1c-.7-.3-1.1-.6-1.4-1-.2-.5-.2-1 0-1.6 0-.4.3-.6.5-.9l1-.4c.3 0 .7 0 1.2.2zm-1 3c.4.2.8.2 1.1.1.3 0 .6-.3.7-.7.2-.4.1-.8 0-1a2 2 0 0 0-1-.7 2 2 0 0 0-1.3-.1c-.3 0-.6.3-.7.7v1l1.1.7zM58.5 67.3a2.8 2.8 0 0 1 .2-.5l.6.3a5.9 5.9 0 0 0-.2.4v.7l.3.6.6.4 2.1.7-.2.6-4-1.3.2-.6.8.2-.4-.7c-.1-.3 0-.5 0-.8zM63 66a2 2 0 0 0 0-.6l.6.2v.3l-.1.4-.3.5a1 1 0 0 1-.6.3h-.8l-2.3-.9-.2.6-.3-.1V66l-.8-.5.1-.4 1 .3.3-1.1.5.1-.4 1.2 2.3.8h.6c.2 0 .3-.2.4-.4zM58.5 62.2l1.6.6.6.2c-.2-.2-.2-.5-.3-.7l.1-.8c.2-.5.4-.8.7-1h1.3l2.6 1-.3.6-2.5-.9c-.6-.2-1 0-1.3.6-.1.4 0 .8.1 1 .2.3.5.5 1 .7l2 .7-.2.6-5.6-2 .2-.6zM65 53c.9.4 1.5.8 1.7 1.5a3 3 0 0 1 0 2.3l-.5 1.4-5.3-1.8.6-1.7c.2-.5.4-.9.8-1.2.3-.3.7-.5 1.2-.6.4-.1 1 0 1.5.1zm-.2.8c-.7-.3-1.3-.3-1.8 0-.4.2-.8.6-1 1.2l-.3.9 4.2 1.5.2-.8c.5-1.4 0-2.3-1.3-2.8zM65.3 48.2l4 1.4-.3.5h-.5l.2.6v.8c-.2.5-.5.8-.8 1-.3.2-.7.1-1.2 0l-2.6-1 .2-.6 2.6 1c.6.1 1 0 1.2-.7.2-.4.1-.7 0-1a2 2 0 0 0-1-.6l-2-.7.2-.7zM66.3 45c.1-.5.4-.8.9-1 .4-.2 1-.1 1.7.1.7.3 1.1.6 1.4 1 .2.4.3.9 0 1.4 0 .3-.2.5-.4.7l-.5.3.3.1.3.1 1.7.6-.3.6-5.7-2 .2-.5.5.1-.2-.6V45zm.5.3c-.2.5-.1.8 0 1 .2.3.5.5 1 .6h.1c.5.2.9.3 1.2.2.3 0 .6-.3.7-.7v-.7c0-.2-.2-.4-.4-.5l-.7-.4a2 2 0 0 0-1.2-.1c-.4 0-.6.3-.7.6zM67.9 40.5a2.8 2.8 0 0 1 .2-.4l.5.3a5.9 5.9 0 0 0-.2.4v.6l.3.6.7.4 2 .7-.2.7-4-1.4.3-.6.7.2-.4-.7v-.8zM68.8 38c0-.4.2-.7.5-.9.2-.2.5-.3.8-.3l1 .1.4.1-1 2.8h1.2c.3-.2.5-.4.7-.8a3 3 0 0 0 .1-1.4l.6.2v.7c0 .2 0 .4-.2.7-.1.4-.3.7-.6 1-.2.2-.5.3-.9.4-.3 0-.7 0-1.2-.2l-1-.6c-.3-.3-.4-.6-.5-.9v-1zm.5.1a1 1 0 0 0 0 .8l.7.7.8-2c-.4-.2-.7-.2-1-.1-.2 0-.4.3-.5.6zM74 31.1c.5.2.8.5 1 1l-.1 1.4A4.4 4.4 0 0 1 74 35l-.6-.2.4-.6.4-.8v-1c0-.2-.2-.4-.5-.5h-.4a1 1 0 0 0-.5.3 6 6 0 0 0-.6.6 3 3 0 0 1-1 .8c-.2.2-.6.2-1 0-.3 0-.5-.2-.7-.4l-.2-.8.1-1 .4-.7.4-.6.5.4-.4.6-.3.6c-.1.3-.1.6 0 .8 0 .3.2.4.4.5h.5l.5-.2.5-.6.6-.7c.2-.2.4-.3.7-.3h.7zM75.7 29.1a2.5 2.5 0 0 0 .2-.5l.4.1v.7l-.4.6a1 1 0 0 1-.5.3l-.8-.1-2.3-.8-.2.6-.3-.1v-.7l-.8-.5v-.4l1 .3.4-1.2.5.2-.4 1.2 2.3.7h.6c.2 0 .3-.2.3-.4zM73.2 24.7a2.8 2.8 0 0 1 .2-.4l.6.3a5.9 5.9 0 0 0-.2.4 1.2 1.2 0 0 0 .3 1.2l.7.4 2 .7-.1.6-4-1.3.2-.5.7.1-.4-.7v-.8zM74.1 22.1l.5-.8c.2-.2.5-.3.8-.3h1l.4.2L76 24c.5.2.9.2 1.2 0 .3-.1.5-.4.6-.8l.2-.7v-.6l.6.2v.6l-.2.8-.6.9c-.2.2-.5.4-.9.4l-1.2-.1-1-.6a1.7 1.7 0 0 1-.5-1.9zm.5.2a1 1 0 0 0 0 .8l.8.7.7-2c-.4-.2-.7-.2-1-.1-.2 0-.4.3-.5.6zM75.5 18c.1-.4.3-.7.5-.9.3-.2.5-.3.9-.3h1l.3.2-.9 2.7c.5.2.9.2 1.2 0 .3 0 .5-.4.6-.8l.2-.7v-.6l.6.2v.6l-.2.8c-.1.3-.3.7-.6.9-.2.2-.5.4-.9.4l-1.2-.1-1-.6a1.7 1.7 0 0 1-.5-1.9zm.5.1a1 1 0 0 0 0 .9l.8.6.7-2c-.3-.2-.6-.2-.9-.1-.3 0-.5.3-.6.6zM80.4 15.1a2.5 2.5 0 0 0 .2-.5l.5.1v.4l-.1.3-.3.6a1 1 0 0 1-.6.3l-.8-.1-2.3-.8-.2.6-.3-.1v-.7l-.8-.5v-.4l1 .3.4-1.2.5.2-.4 1.2 2.3.7h.6c.2 0 .3-.2.3-.4z" stroke="#FFF" stroke-width="2" stroke-linejoin="round"/>
        <path d="M59.9 76.4l-.3.8-5.4 1.3.7.2.8.2 3 1-.3.7-5.3-1.9.3-.7 5.3-1.3a4 4 0 0 1-.8-.3l-.6-.2-3-1 .3-.7 5.3 1.9zM59.6 70.9c.6.2 1 .6 1.3 1 .2.5.3 1 0 1.6a2 2 0 0 1-.5.8c-.3.2-.6.4-1 .4l-1.1-.1c-.7-.3-1.1-.6-1.4-1-.2-.5-.2-1 0-1.6 0-.4.3-.6.5-.9l1-.4c.3 0 .7 0 1.2.2zm-1 3c.4.2.8.2 1.1.1.3 0 .6-.3.7-.7.2-.4.1-.8 0-1a2 2 0 0 0-1-.7 2 2 0 0 0-1.3-.1c-.3 0-.6.3-.7.7v1l1.1.7zM58.5 67.3a2.8 2.8 0 0 1 .2-.5l.6.3a5.9 5.9 0 0 0-.2.4v.7l.3.6.6.4 2.1.7-.2.6-4-1.3.2-.6.8.2-.4-.7c-.1-.3 0-.5 0-.8zM63 66a2 2 0 0 0 0-.6l.6.2v.3l-.1.4-.3.5a1 1 0 0 1-.6.3h-.8l-2.3-.9-.2.6-.3-.1V66l-.8-.5.1-.4 1 .3.3-1.1.5.1-.4 1.2 2.3.8h.6c.2 0 .3-.2.4-.4zM58.5 62.2l1.6.6.6.2c-.2-.2-.2-.5-.3-.7l.1-.8c.2-.5.4-.8.8-1h1.2l2.6 1-.3.6-2.5-.9c-.6-.2-1 0-1.3.6-.1.4 0 .8.1 1 .2.3.5.5 1 .7l2 .7-.2.6-5.6-2 .2-.6zM65 53c.9.4 1.5.8 1.7 1.5a3 3 0 0 1 0 2.3l-.5 1.4-5.3-1.8.6-1.7c.2-.5.4-.9.8-1.2.3-.3.7-.5 1.2-.6.4-.1 1 0 1.5.1zm-.2.8c-.7-.3-1.3-.3-1.8 0-.4.2-.7.6-1 1.2l-.3.9 4.2 1.5.2-.8c.5-1.4 0-2.3-1.3-2.8zM65.3 48.2l4 1.4-.3.5h-.5l.2.6v.8c-.2.5-.5.8-.8 1-.3.2-.7.1-1.2 0l-2.6-1 .2-.6 2.6 1c.6.1 1 0 1.2-.7.2-.4.1-.7 0-1a2 2 0 0 0-1-.6l-2-.7.2-.7zM66.3 45c.1-.5.5-.8.9-1 .4-.2 1-.1 1.7.1.7.3 1.1.6 1.4 1 .2.4.3.9.1 1.4l-.5.7-.5.3.3.1.3.1 1.7.6-.3.6-5.7-2 .2-.5.5.1-.2-.6V45zm.5.3c-.2.5-.1.8 0 1 .2.3.5.5 1 .6h.1c.5.2.9.3 1.2.2.3 0 .6-.3.7-.7v-.7c0-.2-.2-.4-.4-.5l-.7-.4a2 2 0 0 0-1.2-.1c-.4 0-.6.3-.7.6zM67.9 40.5a2.8 2.8 0 0 1 .2-.4l.5.3a5.9 5.9 0 0 0-.2.4v.6l.3.6.7.4 2 .7-.1.7-4-1.4.2-.6.7.2-.4-.7v-.8zM68.8 38c0-.4.2-.7.5-.9.2-.2.5-.3.8-.3l1 .1.4.1-1 2.8h1.2c.3-.2.5-.4.7-.8a3 3 0 0 0 .1-1.4l.6.2v.7c0 .2 0 .4-.2.7-.1.4-.3.7-.6 1-.2.2-.5.3-.9.4-.3 0-.7 0-1.2-.2l-1-.6c-.3-.3-.4-.6-.5-.9v-1zm.5.1a1 1 0 0 0 0 .8l.7.7.8-2c-.4-.2-.7-.2-1-.1-.2 0-.4.3-.5.6zM74 31.1c.5.2.8.5 1 1l-.1 1.4A4.4 4.4 0 0 1 74 35l-.6-.2.4-.6.4-.8v-1c0-.2-.2-.4-.5-.5h-.4a1 1 0 0 0-.5.3 6 6 0 0 0-.6.6 3 3 0 0 1-1 .8c-.2.2-.6.2-1 0-.3 0-.5-.2-.7-.4l-.2-.8.1-1 .4-.7.4-.6.5.4-.4.6-.3.6c-.1.3-.1.6 0 .8 0 .3.2.4.4.5h.5l.5-.2.5-.6.6-.7c.2-.2.4-.3.7-.3h.7zM75.7 29.1a2.5 2.5 0 0 0 .2-.5l.4.1v.7l-.4.6a1 1 0 0 1-.5.3l-.8-.1-2.3-.8-.2.6-.3-.1v-.7l-.8-.5v-.4l1 .3.4-1.2.5.2-.4 1.2 2.3.7h.6c.2 0 .3-.2.3-.4zM73.2 24.7a2.8 2.8 0 0 1 .2-.4l.6.3a5.9 5.9 0 0 0-.2.4 1.2 1.2 0 0 0 .3 1.2l.7.4 2 .7-.1.6-4-1.3.2-.5.7.1-.4-.7v-.8zM74.1 22.1l.5-.8c.3-.2.5-.3.8-.3h1l.4.2L76 24c.5.2.9.2 1.2 0 .3-.1.5-.4.6-.8l.2-.7v-.6l.6.2v.6l-.2.7c-.1.4-.3.7-.6 1-.2.2-.5.4-.9.4l-1.2-.1-1-.6a1.7 1.7 0 0 1-.5-1.9zm.5.2a1 1 0 0 0 0 .8l.8.7.7-2c-.3-.2-.6-.2-1-.1-.2 0-.4.3-.5.6zM75.5 18c.1-.4.3-.7.5-.9.3-.2.5-.3.9-.3h1l.3.2-.9 2.7c.5.2.9.2 1.2 0 .3 0 .5-.4.6-.8l.2-.7v-.6l.6.2v.6l-.2.8c-.1.3-.3.7-.6.9-.2.2-.5.4-.9.4l-1.2-.1-1-.6a1.7 1.7 0 0 1-.5-1.9zm.5.1a1 1 0 0 0 0 .9l.8.6.7-2c-.3-.2-.6-.2-.9-.1-.3 0-.5.3-.6.6zM80.4 15.1a2.5 2.5 0 0 0 .2-.5l.5.1v.4l-.1.3-.3.6a1 1 0 0 1-.6.3l-.8-.1-2.3-.8-.2.6-.3-.1v-.7l-.8-.5v-.4l1 .3.4-1.2.5.2-.4 1.2 2.3.7h.6c.2 0 .3-.2.3-.4z" fill="#000" fill-rule="nonzero"/>
        <path stroke="#FFF" stroke-width="2" stroke-linejoin="round" d="M117 55.8l1.9-5.3.6.3-1.7 4.7 2.3.8-.2.6zM123.7 53.7c.3.2.6.3.8.6.2.2.3.5.3.8l-.1 1-.2.4-2.7-1v1.2c.1.3.4.5.8.6a3 3 0 0 0 1.4.2l-.3.6a3.5 3.5 0 0 1-1.3-.2l-1-.6-.4-1c0-.3 0-.7.2-1.1l.6-1a1.8 1.8 0 0 1 1.9-.5zm-.2.5a1 1 0 0 0-.9 0l-.6.8 2 .7c.2-.3.2-.6.1-.9 0-.2-.3-.4-.6-.6zM128.2 55.4c.5.2.8.5 1 1 .2.4.1 1-.1 1.6-.3.7-.6 1.1-1 1.4-.4.2-1 .3-1.4 0-.3 0-.5-.2-.7-.4l-.3-.5-.1.3-.1.3-.6 1.6-.7-.2 2.1-5.7.5.2v.5l.6-.2h.8zm-.3.5c-.4-.2-.7-.2-1 0-.2.2-.5.5-.6 1-.2.6-.3 1-.2 1.3 0 .3.3.6.7.7h.6c.3 0 .4-.2.6-.4l.4-.7c.2-.5.2-.9.1-1.2 0-.4-.3-.6-.6-.7zM132.4 57c.4 0 .7.3.9.6.2.3.1.7 0 1.2l-1 2.6-.5-.1.1-.6-.7.2h-.9l-.8-.7c-.1-.3-.2-.6 0-1 .1-.4.4-.7.8-.8.4 0 .9 0 1.5.2l.7.2.1-.2c.1-.3.1-.6 0-.8 0-.2-.2-.3-.5-.4l-.6-.1h-.6v-.6a3.2 3.2 0 0 1 1.5.2zm0 2.3l-.6-.2c-.5-.2-.9-.2-1.1-.1-.3 0-.4.2-.5.4v.6c0 .1.2.3.5.3.3.2.6.2.9 0 .3 0 .5-.3.6-.7l.2-.3zM136.4 58.4c.3 0 .5.2.6.4l.4.6.3-.4.5.1-1.4 4c-.2.6-.5 1-1 1.2-.3.2-.8.1-1.4 0l-1.3-.9.2-.6c.3.4.7.7 1.3.9h1c.2-.1.4-.4.5-.7v-.2a14.9 14.9 0 0 0 .3-.5c-.5.3-1 .4-1.5.2s-.8-.5-1-1c-.1-.5-.1-1 .1-1.7.3-.6.6-1 1-1.3.4-.3.9-.3 1.4-.1zm-.1.6a1 1 0 0 0-1 0 2 2 0 0 0-.6 1c-.2.6-.2 1-.2 1.3.1.3.3.6.7.7h1c.2-.2.5-.5.6-1l.1-.1c.2-.5.2-1 .1-1.3 0-.3-.3-.5-.7-.6zM141 60l.8.6.4.9c0 .3 0 .6-.2 1l-.1.4-2.7-1c-.2.4-.2.8 0 1.1 0 .3.3.6.7.7a3 3 0 0 0 1.4.2l-.2.5a3.5 3.5 0 0 1-1.4-.2c-.4 0-.7-.3-.9-.6-.2-.2-.4-.5-.4-.9 0-.3 0-.7.2-1.2.1-.4.3-.8.6-1a1.8 1.8 0 0 1 1.8-.4zm-.1.6a1 1 0 0 0-.9 0c-.3.2-.5.4-.6.8l2 .7v-1c0-.2-.2-.4-.5-.5zM147.7 65.5c-.2.4-.5.7-.9.9-.4.1-1 .1-1.5-.1l-.8-.4-.6-.4.3-.6a4.2 4.2 0 0 0 1.3.8c.4.2.7.2 1 .1.3 0 .4-.2.5-.5v-.5a1 1 0 0 0-.2-.4l-.6-.6c-.4-.4-.7-.7-.8-1-.2-.3-.2-.7 0-1.1 0-.3.3-.5.5-.6.2-.2.5-.3.7-.3.3 0 .6 0 1 .2.3 0 .5.2.7.4l.6.4-.4.5a3.6 3.6 0 0 0-1.2-.7c-.3-.2-.6-.2-.8-.1-.2 0-.3.2-.4.5-.1.1-.1.3 0 .4 0 .2 0 .3.2.5 0 .2.3.3.5.5l.7.7.3.7-.1.7zM149.7 67.3a2 2 0 0 0 .5.1l-.2.5h-.3a2 2 0 0 1-.9-.4 1 1 0 0 1-.3-.6l.1-.8.9-2.3-.6-.2.1-.3h.7l.6-.8.3.2-.3.9 1.2.4-.2.5-1.2-.4-.8 2.3v.5c0 .2.2.3.4.4zM154.1 64.9h.3l.2.2-.3.6-.2-.2h-.8c-.3 0-.5 0-.6.2-.2.2-.4.4-.4.7l-.8 2-.7-.2 1.5-4 .5.3-.2.7.7-.3c.3-.1.6-.1.8 0zM156.7 65.8c.4.1.6.3.8.6.2.2.3.5.3.8l-.1 1-.1.4-2.7-1c-.2.5-.2.8 0 1.1 0 .4.3.6.7.7a3 3 0 0 0 1.4.2l-.2.6a3.5 3.5 0 0 1-1.4-.2l-1-.6-.4-1c0-.3 0-.7.2-1.1l.6-1a1.8 1.8 0 0 1 2-.5zm-.2.5a1 1 0 0 0-.8 0c-.3.2-.5.4-.6.8l2 .7V67c0-.2-.2-.4-.6-.6zM160.9 67.3c.3.2.6.3.8.6.2.2.3.5.3.8l-.1 1-.2.4-2.7-1c-.1.5-.2.9 0 1.2.1.3.4.5.8.7a3 3 0 0 0 1.3.1l-.2.6a3.5 3.5 0 0 1-1.4-.2l-.9-.6-.4-1c0-.3 0-.7.2-1.1.1-.5.3-.8.6-1a1.8 1.8 0 0 1 1.9-.5zm-.2.6a1 1 0 0 0-.9 0l-.6.7 2 .8c.1-.4.2-.7 0-1 0-.2-.2-.4-.5-.5zM163.5 72.4a2 2 0 0 0 .6 0l-.2.6h-.3a2 2 0 0 1-1-.5 1 1 0 0 1-.2-.5l.1-.8.8-2.3-.5-.2v-.3h.8l.5-.8.4.1-.3 1 1.1.4-.2.5-1.1-.5-.8 2.3v.6c0 .2.1.3.3.4z"/>
        <path d="M117 55.8l1.9-5.3.6.3-1.7 4.7 2.3.8-.2.6zM123.7 53.7c.3.2.6.3.8.6.2.2.3.5.3.8l-.1 1-.2.4-2.7-1v1.2c.1.3.4.5.8.6a3 3 0 0 0 1.4.2l-.3.6a3.5 3.5 0 0 1-1.3-.2c-.4-.1-.7-.4-1-.6l-.4-1c0-.3 0-.7.2-1.1l.6-1a1.8 1.8 0 0 1 1.9-.5zm-.2.5a1 1 0 0 0-.9 0l-.6.8 2 .7c.2-.3.2-.6.1-.9 0-.2-.3-.4-.6-.6zM128.2 55.4c.5.2.8.5 1 1 .2.4.1 1-.1 1.6-.3.7-.6 1.1-1 1.4-.4.2-1 .3-1.4 0-.3 0-.5-.2-.7-.4-.1-.2-.3-.3-.3-.5l-.1.3-.1.3-.6 1.6-.7-.2 2.1-5.7.5.2v.5l.6-.2h.8zm-.3.5c-.4-.2-.7-.2-1 0-.2.2-.5.5-.6 1-.2.6-.3 1-.2 1.3 0 .3.3.6.7.7h.6c.3 0 .4-.2.6-.4l.4-.7c.2-.5.2-.9.1-1.2 0-.4-.3-.6-.6-.7zM132.4 56.9c.4.2.7.4.9.7.2.3.1.7 0 1.2l-1 2.6-.5-.1.1-.6-.7.2h-.9l-.8-.7c-.1-.3-.2-.6 0-1 .1-.4.4-.7.8-.8.4 0 .9 0 1.5.2l.7.2.1-.2c.1-.3.2-.6 0-.8 0-.2-.2-.3-.5-.4l-.6-.1h-.6v-.6a3.2 3.2 0 0 1 1.5.2zm0 2.4l-.6-.2c-.5-.2-.9-.2-1.1-.1-.3 0-.4.2-.5.4v.6c0 .1.2.3.5.3.3.2.6.2.9 0 .3 0 .5-.3.6-.7l.2-.3zM136.4 58.4c.3 0 .5.2.6.4l.4.6.3-.4.5.1-1.4 4c-.2.6-.5 1-1 1.2-.3.2-.8.1-1.4 0l-1.4-.9.3-.6c.3.4.7.7 1.3.9h1c.2-.1.4-.4.5-.7v-.2a14.9 14.9 0 0 0 .3-.5c-.5.3-1 .4-1.5.2s-.8-.5-1-1c-.1-.5-.1-1 .1-1.7.3-.6.6-1 1-1.3.4-.3.9-.3 1.4-.1zm-.1.6a1 1 0 0 0-1 0 2 2 0 0 0-.6 1c-.2.6-.2 1-.2 1.3.1.3.3.6.7.7h1c.2-.2.5-.5.6-1V61c.3-.5.3-1 .2-1.3 0-.3-.3-.5-.7-.6zM141 60l.8.6.4.9c0 .3 0 .6-.2 1l-.1.4-2.7-1c-.2.4-.2.8 0 1.1 0 .3.3.5.7.7a3 3 0 0 0 1.4.2l-.2.5a3.5 3.5 0 0 1-1.4-.2c-.4-.1-.7-.3-.9-.6-.2-.2-.4-.5-.4-.9 0-.3 0-.7.2-1.2.1-.4.3-.8.6-1a1.8 1.8 0 0 1 1.8-.4zm-.1.6a1 1 0 0 0-.9 0c-.3.2-.5.4-.6.8l2 .7v-1c0-.2-.2-.4-.5-.5zM147.7 65.5c-.2.4-.5.7-.9.9-.4.1-1 .1-1.5-.1l-.8-.4-.6-.4.3-.6a4.2 4.2 0 0 0 1.3.8c.4.2.7.2 1 .1.3 0 .4-.2.5-.5v-.5a1 1 0 0 0-.2-.4l-.6-.6c-.4-.4-.7-.7-.8-1-.2-.3-.2-.7 0-1.1 0-.3.3-.5.5-.6.2-.2.4-.3.7-.3.3 0 .6 0 1 .2.3 0 .5.2.7.4l.6.4-.4.5a3.6 3.6 0 0 0-1.2-.7c-.3-.2-.6-.2-.8-.1-.2 0-.3.2-.4.5-.1.1-.1.3 0 .4l.1.5.6.5.7.7.3.7-.1.7zM149.7 67.3a2 2 0 0 0 .5.1l-.2.5h-.3a2 2 0 0 1-.9-.4 1 1 0 0 1-.3-.6l.1-.8.9-2.3-.6-.2.1-.3h.7l.6-.8.4.2-.4.9 1.2.4-.2.5-1.2-.4-.8 2.3v.5c0 .2.2.3.4.4zM154.1 64.9h.3l.2.2-.3.6-.2-.2h-.8c-.3 0-.5 0-.6.2-.2.2-.4.4-.4.7l-.8 2-.7-.2 1.5-4 .5.3-.2.7.7-.3c.3-.1.6-.1.8 0zM156.7 65.8c.4.1.6.3.8.6.2.2.3.5.3.8l-.1 1-.1.4-2.7-1c-.2.5-.2.8 0 1.1 0 .4.3.6.7.7a3 3 0 0 0 1.4.2l-.2.6a3.5 3.5 0 0 1-1.4-.2l-1-.6-.4-1c0-.3 0-.7.2-1.1l.6-1a1.8 1.8 0 0 1 2-.5zm-.2.5a1 1 0 0 0-.8 0c-.3.2-.5.4-.6.8l2 .7V67c0-.2-.2-.4-.6-.6zM160.9 67.3c.3.2.6.3.8.6.2.2.3.5.3.8l-.1 1-.2.4-2.7-1c-.1.5-.2.9 0 1.2.1.3.4.5.8.7a3 3 0 0 0 1.3.1l-.2.6a3.5 3.5 0 0 1-1.4-.2l-.9-.6-.4-1c0-.3 0-.7.2-1.1.1-.5.3-.8.6-1a1.8 1.8 0 0 1 1.9-.5zm-.2.6a1 1 0 0 0-.9 0l-.6.7 2 .8c.1-.4.2-.7 0-1 0-.2-.2-.4-.5-.5zM163.5 72.4a2 2 0 0 0 .6 0l-.2.6h-.3a2 2 0 0 1-1-.5 1 1 0 0 1-.2-.5l.1-.8.8-2.3-.5-.2v-.3h.8l.5-.8.4.1-.3 1 1.1.4-.2.5-1.1-.5-.8 2.3v.6c0 .2.1.3.3.4z" fill="#000" fill-rule="nonzero"/>
        <path d="M397 345.7c-.4 1-.9 1.5-1.5 1.8a3 3 0 0 1-2.3 0l-1.5-.6 2-5.3 1.6.6c.5.2 1 .5 1.2.8.3.3.5.7.6 1.2 0 .4 0 1-.2 1.5zm-.8-.2c.3-.7.3-1.3 0-1.7-.2-.5-.6-.8-1.3-1l-.8-.4-1.5 4.2.7.2c1.4.5 2.4 0 3-1.3zM400 345.3l.8.5.3.9-.1 1-.1.4-2.7-1c-.2.4-.2.8 0 1.1 0 .4.3.6.7.7a3 3 0 0 0 1.4.2l-.2.6a3.5 3.5 0 0 1-1.4-.2l-1-.6-.4-1c0-.3 0-.7.2-1.1l.6-1c.3-.3.6-.5 1-.6l1 .1zm-.2.5a1 1 0 0 0-.8 0c-.3.2-.5.4-.6.8l2 .7v-.9c0-.3-.3-.4-.6-.6zM404.2 350.1a1 1 0 0 1-.8.7 2 2 0 0 1-1.2 0l-.7-.4-.5-.4.2-.6a3.1 3.1 0 0 0 1.2.8c.3.1.6.2.8.1l.3-.3v-.3c0-.1 0-.3-.2-.4a4 4 0 0 0-.5-.5l-.5-.5c-.2-.1-.3-.3-.3-.5v-.6c.1-.3.4-.5.7-.6.3-.1.7 0 1.2.1l.6.3.6.4-.4.5-.5-.4-.5-.3h-.7c-.2 0-.3 0-.4.2v.3l.3.4.5.4.6.5.2.5v.6zM408.9 350.8c-.2.7-.6 1.1-1 1.3-.5.3-1 .3-1.6.1-.3-.1-.6-.3-.8-.6-.3-.2-.4-.6-.4-1l.1-1.1c.3-.7.6-1.1 1-1.3.5-.3 1-.3 1.6 0 .4 0 .6.2.9.5.2.2.3.6.4 1 0 .3 0 .7-.2 1.1zm-3-1a2 2 0 0 0-.1 1.2c0 .3.3.5.7.7.4.1.8 0 1-.1.3-.2.6-.6.7-1 .2-.5.2-1 .1-1.2 0-.4-.3-.6-.7-.8-.4-.1-.8 0-1 .1a2 2 0 0 0-.7 1zM410.7 353.2a2 2 0 0 0 .6.1l-.2.5h-.3a2 2 0 0 1-1-.4 1 1 0 0 1-.2-.6v-.8l.9-2.3-.6-.2.1-.3h.7l.6-.8.4.1-.4 1 1.2.4-.2.5-1.1-.4-.9 2.3v.5l.4.4zM416 353.4c-.2.6-.6 1-1 1.3-.5.2-1 .3-1.5 0-.4 0-.7-.3-.9-.5l-.4-1c0-.3 0-.7.2-1.2.2-.6.6-1 1-1.3.5-.2 1-.2 1.5 0 .4.1.7.3.9.5.2.3.4.6.4 1 0 .3 0 .7-.2 1.2zm-3-1.1a2 2 0 0 0 0 1.2c0 .4.3.6.6.7.4.2.8.1 1 0 .4-.3.6-.6.8-1 .1-.5.2-1 0-1.3 0-.3-.3-.6-.7-.7h-1a2 2 0 0 0-.7 1zM421.8 356.1c-.1.5-.4.8-.8 1-.5 0-1 0-1.6-.2-.3 0-.5-.2-.8-.4-.2 0-.4-.2-.5-.4l.2-.6.6.5.8.3c.4.2.7.2 1 .1.2 0 .4-.2.5-.5v-.4a1 1 0 0 0-.3-.5l-.6-.6c-.4-.3-.6-.7-.8-1v-1l.5-.7c.2-.2.5-.2.7-.3.3 0 .7 0 1 .2l.8.4.5.4-.4.5a3.2 3.2 0 0 0-1.1-.7c-.4-.1-.6-.2-.9 0-.2 0-.3.2-.4.4v.5c0 .1 0 .3.2.4l.6.6.6.6c.2.2.3.4.3.7v.7zM423.8 357.9a2 2 0 0 0 .6.1l-.2.5h-.3a2 2 0 0 1-1-.4 1 1 0 0 1-.2-.6v-.8l1-2.3-.7-.2.2-.3h.6l.6-.8.4.1-.4 1 1.2.4-.2.5-1.1-.4-.9 2.3v.5l.4.4zM428.3 355.5h.2l.2.2-.3.5a2.1 2.1 0 0 0-.4-.2 1.2 1.2 0 0 0-1.2.3l-.4.6-.8 2.1-.6-.2 1.4-4 .5.2-.1.8.7-.4h.8zM430.9 356.4l.8.5c.1.2.3.5.3.8l-.1 1-.2.4-2.7-1c-.1.5-.2.9 0 1.2.1.3.4.5.8.7a3 3 0 0 0 1.3.2l-.2.5a3.5 3.5 0 0 1-1.4-.2l-.9-.6c-.2-.2-.4-.5-.4-.9 0-.3 0-.7.2-1.2.1-.4.3-.7.6-1 .2-.3.5-.4.9-.5h1zm-.2.5a1 1 0 0 0-.9 0l-.6.7 2 .8c.1-.4.2-.7 0-1 0-.2-.2-.4-.5-.5zM435 357.9c.4 0 .6.3.8.5l.4.8c0 .4 0 .7-.2 1l-.1.4-2.7-1c-.2.5-.2.9 0 1.2 0 .3.4.5.7.7a3 3 0 0 0 1.4.2l-.2.5a3.5 3.5 0 0 1-1.4-.2c-.4-.1-.7-.3-1-.6-.1-.2-.3-.5-.3-.9l.1-1.2c.2-.4.4-.8.7-1 .2-.3.5-.4.8-.5h1zm-.2.5a1 1 0 0 0-.8 0c-.3.2-.5.4-.6.7l2 .8v-1c0-.2-.2-.4-.6-.5z" stroke="#FFF" stroke-width="2" stroke-linejoin="round"/>
        <path d="M397 345.7c-.4 1-.9 1.5-1.5 1.8a3 3 0 0 1-2.3 0l-1.5-.6 2-5.3 1.6.6c.5.2 1 .5 1.2.8.3.3.5.7.6 1.2 0 .4 0 1-.2 1.5zm-.8-.2c.3-.7.3-1.3 0-1.7-.2-.5-.6-.8-1.3-1l-.8-.4-1.5 4.2.7.2c1.4.5 2.4 0 3-1.3zM400 345.3l.8.5.3.9-.1 1-.1.4-2.7-1c-.2.5-.2.8 0 1.1 0 .4.3.6.7.7a3 3 0 0 0 1.4.2l-.2.6a3.5 3.5 0 0 1-1.4-.2l-1-.6-.4-1c0-.3 0-.7.2-1.1l.6-1c.3-.3.6-.5 1-.6l1 .1zm-.2.5a1 1 0 0 0-.8 0c-.3.2-.5.4-.6.8l2 .7v-.9c0-.3-.3-.4-.6-.6zM404.2 350.1a1 1 0 0 1-.8.7 2 2 0 0 1-1.2 0l-.7-.4-.5-.4.2-.6a3.1 3.1 0 0 0 1.2.8c.3.1.6.2.8.1l.3-.3v-.3c0-.1 0-.3-.2-.4a4 4 0 0 0-.5-.5l-.5-.5c-.2-.2-.3-.3-.3-.5v-.6c.1-.3.4-.5.7-.6.3-.1.7 0 1.2.1l.6.3.6.4-.4.5-.5-.4-.5-.3h-.7c-.2 0-.3 0-.3.2v.3l.2.4.5.4.6.5.2.5v.6zM408.9 350.8c-.2.7-.6 1.1-1 1.3-.5.3-1 .3-1.6.1-.3-.1-.6-.3-.8-.6-.3-.2-.4-.6-.4-1l.1-1.1c.3-.7.6-1.1 1-1.3.5-.3 1-.3 1.6 0 .4 0 .6.2.9.5.2.2.3.6.4 1 0 .3 0 .7-.2 1.1zm-3-1a2 2 0 0 0-.1 1.2c0 .3.3.5.7.7.4.1.8 0 1-.1.3-.2.6-.6.7-1 .2-.5.2-1 .1-1.2 0-.4-.3-.6-.7-.8-.4-.1-.8 0-1 .1a2 2 0 0 0-.7 1zM410.7 353.2a2 2 0 0 0 .6.1l-.2.5h-.3a2 2 0 0 1-1-.4 1 1 0 0 1-.2-.6v-.8l.9-2.3-.6-.2.1-.3h.7l.6-.8.4.1-.4 1 1.2.4-.2.5-1.1-.4-.9 2.3v.5c0 .2.2.3.4.4zM416 353.4c-.2.6-.6 1-1 1.3-.5.2-1 .3-1.5 0-.4 0-.7-.3-.9-.5l-.4-1c0-.3 0-.7.2-1.1.2-.7.6-1.1 1-1.4.5-.2 1-.2 1.5 0 .4.1.7.3.9.5.2.3.4.6.4 1 0 .3 0 .7-.2 1.2zm-3-1.1a2 2 0 0 0 0 1.2c0 .4.3.6.6.7.4.2.8.1 1 0 .4-.3.6-.6.8-1 .1-.5.2-1 0-1.3 0-.3-.3-.6-.7-.7h-1a2 2 0 0 0-.7 1.1zM421.8 356.1c-.1.5-.4.8-.9 1-.4 0-.9 0-1.5-.2-.3 0-.5-.2-.8-.4-.2 0-.4-.2-.5-.4l.2-.6.6.5.8.3c.4.2.7.2 1 .1.2 0 .4-.2.5-.5v-.4a1 1 0 0 0-.3-.5l-.6-.6c-.4-.3-.6-.7-.8-1v-1l.5-.7c.2-.2.5-.2.7-.3.3 0 .7 0 1 .2l.8.4.5.4-.4.5a3.2 3.2 0 0 0-1.1-.7c-.4-.1-.6-.2-.9 0-.2 0-.3.2-.4.4v.5c0 .1 0 .3.2.4l.5.6.7.6c.2.2.3.4.3.7v.7zM423.8 357.9a2 2 0 0 0 .6.1l-.2.5h-.3a2 2 0 0 1-1-.4 1 1 0 0 1-.2-.6v-.8l1-2.3-.7-.2.2-.3h.6l.6-.8.4.1-.4 1 1.2.4-.2.5-1.1-.4-.9 2.3v.5l.4.4zM428.3 355.5h.2l.2.2-.3.5a2.1 2.1 0 0 0-.4-.2 1.2 1.2 0 0 0-1.2.3l-.4.6-.8 2.1-.6-.2 1.4-4 .5.2-.1.8.7-.4h.8zM430.9 356.4l.8.5c.1.2.3.5.3.8l-.1 1-.2.4-2.7-1c-.1.5-.2.9 0 1.2.1.3.4.5.8.7a3 3 0 0 0 1.3.2l-.2.5a3.5 3.5 0 0 1-1.4-.2l-.9-.6c-.2-.2-.4-.5-.4-.9 0-.3 0-.7.2-1.2.1-.4.3-.7.6-1 .2-.3.5-.4.9-.5h1zm-.2.5a1 1 0 0 0-.9 0l-.6.7 2 .8c.1-.4.2-.7 0-1 0-.2-.2-.4-.5-.5zM435 357.9c.4 0 .6.3.8.5l.4.8c0 .4 0 .7-.2 1l-.1.4-2.7-1c-.2.5-.2.9 0 1.2 0 .3.4.5.7.7a3 3 0 0 0 1.4.2l-.2.5a3.5 3.5 0 0 1-1.4-.2c-.4-.1-.7-.3-1-.6-.1-.2-.3-.5-.3-.9l.1-1.2c.2-.4.4-.8.7-1 .2-.3.5-.4.8-.5h1zm-.2.5a1 1 0 0 0-.8 0c-.3.2-.5.4-.6.7l2 .8v-1c0-.2-.2-.4-.6-.5z" fill="#000" fill-rule="nonzero"/>
        <path d="M31 212.3c-.3 1-.8 1.5-1.4 1.8a3 3 0 0 1-2.3-.1l-1.5-.5 2-5.3 1.6.6c.5.2 1 .4 1.2.8.4.3.5.7.6 1.2 0 .4 0 1-.2 1.5zm-.7-.2c.3-.7.3-1.3 0-1.7-.2-.5-.6-.8-1.2-1l-.9-.4-1.5 4.1.7.3c1.5.5 2.4 0 3-1.3zM34.1 212c.4 0 .6.2.8.5.2.2.3.5.3.8l-.1 1-.1.4-2.7-1c-.2.5-.2.8 0 1.2 0 .3.3.5.7.6a2.8 2.8 0 0 0 1.4.2l-.2.6h-.7l-.7-.2c-.4-.1-.7-.3-1-.6l-.4-1c0-.3 0-.7.2-1.1l.6-1c.3-.3.6-.5 1-.6l1 .1zm-.2.5a1 1 0 0 0-.8 0c-.3.1-.5.4-.6.7l2 .7v-.9c0-.2-.3-.4-.6-.5zM38.3 216.8c-.2.3-.4.6-.8.7a2 2 0 0 1-1.2-.1l-.7-.4-.5-.3.2-.6a3 3 0 0 0 1.2.7c.3.2.5.2.7.1.2 0 .3-.1.4-.3v-.3c0-.1 0-.2-.2-.3a6 6 0 0 0-.5-.5l-.5-.6c-.2-.1-.3-.3-.3-.5v-.6c.1-.3.4-.5.7-.6l1.2.1a3.3 3.3 0 0 1 1.1.8l-.4.4-.4-.4-.6-.3h-.6c-.2 0-.3 0-.3.2v.3c0 .1 0 .3.2.4a13.9 13.9 0 0 0 1 1c.2.1.3.3.3.5v.6zM43 217.5c-.3.6-.6 1-1 1.3-.5.2-1 .3-1.6 0-.4 0-.6-.3-.9-.5l-.4-1c0-.3 0-.7.2-1.2.3-.6.6-1 1-1.3.5-.2 1-.2 1.6 0 .4.1.6.3.9.6.2.2.3.5.3.9l-.1 1.2zm-3-1.1c-.2.4-.2.9-.1 1.2 0 .3.3.6.7.7.4.2.7.1 1 0l.7-1c.2-.5.2-1 .1-1.3 0-.3-.3-.5-.7-.7h-1a2 2 0 0 0-.7 1zM44.8 219.9a2 2 0 0 0 .5 0l-.1.6h-.4a2 2 0 0 1-.9-.5 1 1 0 0 1-.3-.5c0-.2 0-.5.2-.8l.8-2.3-.6-.2.1-.3h.7l.6-.8.3.1-.3 1 1.2.4-.2.5-1.2-.5-.8 2.3v.6c0 .2.2.3.4.4zM50.1 220c-.2.7-.6 1.2-1 1.4-.5.2-1 .3-1.6 0-.3 0-.6-.3-.8-.5-.3-.3-.4-.6-.4-1l.1-1.2c.3-.6.6-1 1-1.3.5-.2 1-.2 1.6 0 .4 0 .7.3.9.6.2.2.3.5.4.9 0 .3 0 .7-.2 1.2zm-3-1c-.2.4-.2.9-.1 1.2 0 .3.3.6.7.7.4.2.7.1 1 0 .3-.3.6-.6.7-1 .2-.5.2-1 .1-1.3 0-.3-.3-.5-.7-.7h-1a2 2 0 0 0-.7 1zM55.9 222.8c-.2.5-.5.8-1 1-.3 0-.8 0-1.4-.2-.3 0-.6-.2-.8-.3l-.6-.4.3-.7a4.3 4.3 0 0 0 1.3.9h1c.2 0 .4-.2.5-.4v-.5a1 1 0 0 0-.2-.5l-.6-.6c-.4-.3-.7-.6-.8-1-.2-.3-.2-.6 0-1 0-.3.2-.5.4-.7l.8-.2 1 .1a4 4 0 0 1 1.3.9l-.4.5a4 4 0 0 0-.5-.5l-.7-.3c-.3-.1-.6-.1-.8 0-.2 0-.4.2-.4.4l-.1.5.2.5.6.5.7.6.3.7-.1.7zM57.9 224.6a2 2 0 0 0 .5.2l-.1.4h-.4a2 2 0 0 1-.9-.4 1 1 0 0 1-.3-.5l.1-.8.9-2.3-.6-.2.1-.3.7-.1.6-.7.3.1-.3 1 1.1.3-.1.5-1.2-.4-.8 2.3v.6c0 .2.2.3.4.3zM62.3 222.2l.3.1.2.1-.3.6-.2-.1-.2-.1h-.7l-.6.3-.4.6-.7 2.1-.7-.2 1.5-4 .5.2-.2.8.7-.4h.8zM65 223.2c.3 0 .5.3.7.5.2.2.3.5.3.8l-.1 1-.2.4-2.6-1c-.2.5-.2.9 0 1.2 0 .3.3.5.7.7a2.8 2.8 0 0 0 1.4.2l-.2.5h-.7c-.2 0-.5 0-.7-.2-.4-.1-.7-.3-1-.6-.2-.2-.3-.5-.4-.9 0-.4 0-.8.2-1.2l.6-1c.3-.3.6-.5.9-.5h1zm-.3.5a1 1 0 0 0-.8 0c-.3.1-.5.4-.7.7l2 .8c.2-.4.2-.7.1-1 0-.2-.3-.4-.6-.5zM69 224.7c.4.1.7.3.9.5.1.3.3.5.3.9 0 .3 0 .6-.2 1v.4l-2.8-1c-.1.4-.2.8 0 1.1.1.3.4.5.8.7a2.8 2.8 0 0 0 1.3.2l-.2.5h-.7c-.2 0-.4 0-.7-.2-.3-.1-.7-.3-.9-.6-.2-.2-.4-.5-.4-.9 0-.3 0-.7.2-1.2.1-.4.3-.8.6-1 .2-.3.5-.4.9-.5h1zm-.1.5a1 1 0 0 0-.9 0l-.6.8 2 .7c.1-.4.2-.7 0-1 0-.2-.2-.4-.5-.5zM71.7 229.7a2 2 0 0 0 .6.1l-.2.5h-.3a2 2 0 0 1-1-.4 1 1 0 0 1-.2-.6l.1-.8.8-2.3-.5-.2v-.3h.8l.5-.8.4.2-.3.9 1.1.4-.2.5-1.1-.4-.8 2.3v.6l.3.3z" stroke="#FFF" stroke-width="2" stroke-linejoin="round"/>
        <path d="M31 212.3c-.3 1-.8 1.5-1.4 1.8a3 3 0 0 1-2.3-.1l-1.5-.5 2-5.3 1.6.6c.5.2 1 .4 1.2.8.4.3.5.7.6 1.2 0 .4 0 1-.2 1.5zm-.7-.2c.3-.7.3-1.3 0-1.7-.2-.5-.6-.8-1.2-1l-.9-.4-1.5 4.1.7.3c1.5.5 2.4 0 3-1.3zM34.1 212c.4 0 .6.2.8.5.2.2.3.5.3.8l-.1 1-.1.4-2.7-1c-.2.5-.2.8 0 1.2 0 .3.3.5.7.6a2.8 2.8 0 0 0 1.4.2l-.2.6h-.7l-.7-.2c-.4-.2-.7-.3-1-.6l-.4-1c0-.3 0-.7.2-1.1l.6-1c.3-.3.6-.5 1-.6l1 .1zm-.2.4a1 1 0 0 0-.8 0c-.3.2-.5.5-.6.8l2 .7v-.9c0-.2-.3-.4-.6-.6zM38.3 216.8c-.2.3-.4.6-.8.7a2 2 0 0 1-1.2-.1l-.7-.4-.5-.3.2-.6a3 3 0 0 0 1.2.7c.3.2.5.2.7.1.2 0 .3-.1.4-.3v-.3c0-.1 0-.2-.2-.3a6 6 0 0 0-.5-.5l-.5-.6c-.2-.1-.3-.3-.3-.5v-.6c.1-.3.4-.5.7-.6l1.2.1a3.3 3.3 0 0 1 1.2.8l-.5.4-.4-.4-.6-.3h-.6c-.2 0-.3 0-.3.2v.3c0 .1 0 .3.2.4a13.9 13.9 0 0 0 1 1c.2.1.3.3.3.5v.6zM43 217.5c-.3.6-.6 1-1 1.3-.5.2-1 .3-1.6 0-.4 0-.6-.3-.9-.5l-.4-1c0-.3 0-.7.2-1.2.3-.6.6-1 1-1.3.5-.2 1-.2 1.6 0 .4.1.6.3.9.6.2.2.3.5.3.9l-.1 1.2zm-3-1.1c-.2.4-.2.9-.1 1.2 0 .3.3.6.7.7.4.2.7.1 1 0l.7-1c.2-.5.2-1 .1-1.3 0-.3-.3-.5-.7-.7h-1a2 2 0 0 0-.7 1zM44.8 219.9a2 2 0 0 0 .5 0l-.1.6h-.4a2 2 0 0 1-.9-.5 1 1 0 0 1-.3-.5c0-.2 0-.5.2-.8l.8-2.3-.6-.2.1-.3h.7l.6-.8.3.1-.3 1 1.2.4-.2.5-1.2-.5-.8 2.3v.6c0 .2.2.3.4.4zM50.1 220c-.2.7-.6 1.2-1 1.4-.5.2-1 .3-1.6 0-.3 0-.6-.3-.8-.5-.3-.3-.4-.6-.4-1l.1-1.2c.3-.6.6-1 1-1.3.5-.2 1-.2 1.6 0 .4.1.7.3.9.6.2.2.3.5.4.9 0 .3 0 .7-.2 1.2zm-3-1c-.2.4-.2.9-.1 1.2 0 .3.3.6.7.7.4.2.7.1 1 0 .3-.3.6-.6.7-1 .2-.5.2-1 .1-1.3 0-.3-.3-.5-.7-.7h-1a2 2 0 0 0-.7 1zM55.9 222.8c-.2.5-.5.8-1 1-.3 0-.8 0-1.4-.2-.3 0-.6-.2-.8-.3l-.6-.4.3-.7a4.3 4.3 0 0 0 1.3.9h1c.2 0 .4-.2.5-.4v-.5a1 1 0 0 0-.2-.5l-.6-.6c-.4-.3-.7-.6-.8-1-.2-.3-.2-.6 0-1 0-.3.2-.5.4-.7l.8-.2 1 .1a4 4 0 0 1 1.3.9l-.4.5a4 4 0 0 0-.5-.5l-.7-.3c-.3-.1-.6-.1-.8 0-.2 0-.4.2-.4.4l-.1.5.2.5.6.5.7.6.3.7-.1.7zM57.9 224.6a2 2 0 0 0 .5.2l-.1.4h-.4a2 2 0 0 1-.9-.4 1 1 0 0 1-.3-.5l.1-.8.9-2.3-.6-.2.1-.3.7-.1.6-.7.3.1-.3 1 1.1.3-.1.5-1.2-.4-.8 2.3v.6c0 .2.2.3.4.3zM62.3 222.2l.3.1.2.1-.3.6-.2-.1-.2-.1h-.7l-.6.3-.4.6-.7 2.1-.7-.2 1.5-4 .5.2-.2.8.7-.4h.8zM65 223.2c.3 0 .5.3.7.5.2.2.3.5.3.8l-.1 1-.1.4-2.7-1c-.2.5-.2.9 0 1.2 0 .3.3.5.7.7a2.8 2.8 0 0 0 1.4.2l-.2.5h-.7c-.2 0-.5 0-.7-.2-.4-.1-.7-.3-1-.6-.2-.2-.3-.5-.4-.9 0-.4 0-.8.2-1.2l.6-1c.3-.3.6-.5.9-.5h1zm-.3.5a1 1 0 0 0-.8 0c-.3.1-.5.4-.7.7l2 .8c.2-.4.2-.7.1-1 0-.2-.3-.4-.6-.5zM69 224.7c.4.1.7.3.9.5.1.3.3.5.3.9 0 .3 0 .6-.2 1v.3l-2.8-1c-.1.5-.2.9 0 1.2.1.3.4.5.8.7a2.8 2.8 0 0 0 1.3.2l-.2.5h-.7c-.2 0-.4 0-.7-.2-.3-.1-.7-.3-.9-.6-.2-.2-.4-.5-.4-.9 0-.3 0-.7.2-1.2.1-.4.3-.8.6-1 .2-.3.5-.4.9-.5h1zm-.1.5a1 1 0 0 0-.9 0l-.6.8 2 .7c.1-.4.2-.7 0-1 0-.2-.2-.4-.5-.5zM71.7 229.7a2 2 0 0 0 .6.1l-.2.5h-.3a2 2 0 0 1-1-.4 1 1 0 0 1-.2-.6l.1-.8.8-2.3-.5-.2v-.3h.8l.5-.8.4.2-.3.9 1.1.4-.2.5-1.1-.4-.8 2.3v.6l.3.3z" fill="#000" fill-rule="nonzero"/>
        <path d="M330.9 363c-.2.5-.2 1 0 1.5.4.4.8.8 1.5 1 .6.2 1.2.2 1.7 0 .5-.1.8-.5 1-1.1l.2-.7v-.7l.7.2a4.2 4.2 0 0 1-.3 1.5c-.2.5-.4 1-.8 1.2a2 2 0 0 1-1.2.5c-.5 0-1 0-1.6-.2-.5-.2-1-.4-1.3-.8-.3-.3-.5-.7-.6-1.2v-1.5c.3-.5.5-1 .9-1.3l.5.4-.4.5-.3.6zM333 359a2.3 2.3 0 0 1 .2-.5l.6.3-.1.2v.2c-.2.2-.2.5-.1.7 0 .2.2.4.3.5l.7.4 2 .8-.1.6-4-1.3.2-.6.7.2a2 2 0 0 1-.4-.7v-.8zM334 356.4c0-.3.2-.6.5-.8l.8-.4c.3 0 .7 0 1 .2l.4.1-1 2.7c.5.2.9.2 1.2 0 .3 0 .5-.4.7-.7l.1-.7v-.7l.6.2v.7c0 .2 0 .4-.2.7-.1.3-.3.7-.6.9-.2.2-.5.4-.9.4l-1.2-.1-1-.6c-.3-.3-.5-.6-.5-.9v-1zm.5.2a1 1 0 0 0 0 .8c.2.3.4.5.7.6l.7-2h-.9c-.2 0-.4.2-.5.6zM339 353.7a2.5 2.5 0 0 0 0-.6l.5.2v.3a2 2 0 0 1-.4 1 1 1 0 0 1-.5.2l-.8-.1-2.3-.8-.2.6-.3-.2-.1-.6-.8-.6.2-.4.9.4.4-1.2.5.2-.4 1.1 2.3.8h.6c.1 0 .3-.1.3-.3zM336.4 349.5c0-.3.3-.6.5-.8.2-.2.5-.3.8-.3l1 .1.4.2-1 2.7h1.2c.3-.1.5-.4.7-.8a3 3 0 0 0 .2-1.4l.5.2a3.5 3.5 0 0 1-.2 1.4c-.1.4-.3.7-.6 1-.2.2-.5.3-.9.4-.3 0-.7 0-1.2-.2a3 3 0 0 1-1-.6c-.3-.2-.4-.5-.5-.9v-1zm.5.2a1 1 0 0 0 0 .9l.7.6.8-2c-.4-.1-.7-.2-1 0-.2 0-.4.2-.5.5zM341.7 342.8c.5.2.8.5.9 1v1.4a4.6 4.6 0 0 1-.9 1.4l-.6-.2.5-.6.3-.8c.2-.4.2-.7.1-1 0-.2-.2-.4-.5-.5h-.4a1 1 0 0 0-.5.2 5 5 0 0 0-.6.7c-.3.4-.7.6-1 .8h-1c-.3-.1-.6-.3-.7-.5-.2-.2-.2-.5-.3-.8 0-.3 0-.6.2-.9a3.6 3.6 0 0 1 .8-1.4l.5.5a4.2 4.2 0 0 0-.7 1.1c-.2.4-.2.6 0 .8 0 .3.1.4.4.5h.5c.1 0 .3 0 .4-.2l.6-.6.6-.6.6-.4.8.1zM343.5 340.8a2.5 2.5 0 0 0 0-.5l.6.1v.4a2 2 0 0 1-.5.9 1 1 0 0 1-.5.3l-.8-.1-2.3-.8-.2.5h-.3v-.7l-.8-.6.1-.4 1 .3.3-1.1.5.2-.4 1.1 2.3.8h.6c.2 0 .3-.2.4-.4zM341 336.4l.1-.2.1-.3.6.3a3.4 3.4 0 0 1-.2.4v.7l.3.6.6.4 2.1.7-.2.7-4-1.4.2-.6.8.2-.4-.7c-.1-.3 0-.5 0-.8zM342 333.8c0-.3.2-.6.5-.8.2-.2.5-.3.8-.3l1 .1.4.1-1 2.7c.5.2.9.2 1.2 0 .3 0 .5-.3.6-.7a3 3 0 0 0 .2-1.4l.6.2a3.5 3.5 0 0 1-.2 1.4c-.2.4-.3.7-.6 1-.3.2-.6.3-1 .3l-1.1-.1a3 3 0 0 1-1-.6l-.6-.9.1-1zm.4.2a1 1 0 0 0 0 .8l.8.7.7-2c-.3-.2-.6-.2-.9-.1-.2 0-.4.3-.6.6zM343.4 329.6l.5-.8c.3-.2.5-.3.8-.3l1 .1.4.2-1 2.7h1.2c.4-.1.6-.4.7-.8a3 3 0 0 0 .2-1.4l.6.2a3.5 3.5 0 0 1-.2 1.4l-.6 1-1 .4c-.3 0-.7 0-1.1-.2a3 3 0 0 1-1-.6c-.3-.2-.5-.5-.6-.9l.1-1zm.5.2a1 1 0 0 0 0 .9l.8.6.7-2c-.3-.1-.6-.2-1 0-.2 0-.4.2-.5.5zM348.4 327a2.5 2.5 0 0 0 0-.7l.6.2v.3a2 2 0 0 1-.4 1 1 1 0 0 1-.6.3l-.8-.2-2.3-.8-.2.6-.3-.1v-.7l-.8-.5.1-.4 1 .3.4-1.1.5.1-.4 1.2 2.2.8h.6c.2 0 .3-.2.4-.4z" stroke="#FFF" stroke-width="2" stroke-linejoin="round"/>
        <path d="M330.9 363c-.2.5-.2 1 0 1.5.4.4.8.8 1.5 1 .6.2 1.2.2 1.7 0 .5-.1.8-.5 1-1.1l.2-.7v-.7l.7.2a4.2 4.2 0 0 1-.3 1.5c-.2.5-.4 1-.8 1.2a2 2 0 0 1-1.2.5c-.5 0-1 0-1.6-.2-.5-.2-1-.4-1.3-.8-.3-.3-.5-.7-.6-1.2v-1.5c.3-.5.5-1 .9-1.3l.5.4-.4.5-.3.6zM333 359a2.3 2.3 0 0 1 .2-.5l.6.3-.1.2v.2c-.2.2-.2.5-.1.7 0 .2.2.4.3.5l.7.4 2 .8-.1.6-4-1.3.2-.6.7.2a2 2 0 0 1-.4-.7v-.8zM334 356.4c0-.3.2-.6.5-.8l.8-.4c.3 0 .7 0 1 .2l.4.1-1 2.7c.5.2.9.2 1.2 0 .3 0 .5-.4.7-.7l.1-.7v-.7l.6.2v.7c0 .2 0 .4-.2.7-.1.3-.3.7-.6.9-.2.2-.5.4-.9.4l-1.2-.1-1-.6c-.3-.3-.5-.6-.5-.9v-1zm.5.2a1 1 0 0 0 0 .8c.2.3.4.5.7.6l.7-2h-.9c-.2 0-.4.2-.5.6zM339 353.7a2.5 2.5 0 0 0 0-.6l.5.2v.3a2 2 0 0 1-.4 1 1 1 0 0 1-.5.2l-.8-.1-2.3-.8-.2.6-.3-.2-.1-.6-.8-.6.2-.4.9.4.4-1.2.5.2-.4 1.1 2.3.8h.6c.1 0 .3-.1.3-.3zM336.4 349.5c0-.3.3-.6.5-.8.2-.2.5-.3.8-.3l1 .1.4.2-1 2.7h1.2c.3-.1.5-.4.7-.8a3 3 0 0 0 .2-1.4l.5.2a3.5 3.5 0 0 1-.2 1.4c-.1.4-.3.7-.6 1-.2.2-.5.3-.9.4-.3 0-.7 0-1.2-.2a3 3 0 0 1-1-.6c-.3-.2-.4-.5-.5-.9v-1zm.5.2a1 1 0 0 0 0 .9l.7.6.8-2c-.4-.1-.7-.2-1 0-.2 0-.4.2-.5.5zM341.7 342.8c.5.2.8.5.9 1v1.4a4.6 4.6 0 0 1-.9 1.4l-.6-.2.5-.6.3-.8c.2-.4.2-.7.1-1 0-.2-.2-.4-.5-.5h-.4a1 1 0 0 0-.5.2 5 5 0 0 0-.6.7c-.3.4-.7.6-1 .8h-1c-.3-.1-.6-.3-.7-.5-.2-.2-.2-.5-.3-.8 0-.3 0-.6.2-.9a3.6 3.6 0 0 1 .8-1.4l.5.5a4.2 4.2 0 0 0-.7 1.1c-.2.4-.2.6 0 .8 0 .3.1.4.4.5h.5l.4-.2.6-.6.6-.6.6-.4.8.1zM343.5 340.8a2.5 2.5 0 0 0 0-.5l.6.1v.4a2 2 0 0 1-.5.9 1 1 0 0 1-.5.3l-.8-.1-2.3-.8-.2.5h-.3v-.7l-.8-.6.1-.4 1 .3.3-1.1.5.2-.4 1.1 2.3.8h.6c.2 0 .3-.2.4-.4zM341 336.4l.1-.2.1-.3.6.3a3.4 3.4 0 0 1-.2.4v.7l.3.6.6.4 2.1.7-.2.7-4-1.4.2-.6.8.2-.4-.7c-.1-.3 0-.5 0-.8zM342 333.8c0-.3.2-.6.4-.8l.9-.3 1 .1.4.1-1 2.7c.5.2.9.2 1.2 0 .3 0 .5-.3.6-.7a3 3 0 0 0 .2-1.4l.6.2a3.5 3.5 0 0 1-.2 1.4c-.2.4-.3.7-.6 1-.3.2-.6.3-1 .3l-1.1-.1a3 3 0 0 1-1-.6l-.6-.9.1-1zm.4.2a1 1 0 0 0 0 .8l.8.7.7-2c-.3-.2-.6-.2-.9-.1-.2 0-.4.3-.6.6zM343.4 329.6l.5-.8c.3-.2.5-.3.8-.3l1 .1.4.2-1 2.7h1.2c.4-.1.6-.4.7-.8a3 3 0 0 0 .2-1.4l.6.2a3.5 3.5 0 0 1-.2 1.4l-.6 1-1 .4c-.3 0-.7 0-1.1-.2a3 3 0 0 1-1-.6c-.3-.2-.5-.5-.6-.9l.1-1zm.5.2a1 1 0 0 0 0 .9l.8.6.7-2c-.3-.2-.6-.2-1 0-.2 0-.4.2-.5.5zM348.4 327a2.5 2.5 0 0 0 0-.7l.6.2v.3a2 2 0 0 1-.4 1 1 1 0 0 1-.6.3l-.8-.1-2.3-.9-.2.6-.3-.1v-.7l-.8-.5.1-.4 1 .3.4-1.1.5.1-.4 1.2 2.2.8h.6c.2 0 .3-.2.4-.4z" fill="#000" fill-rule="nonzero"/>
        <path d="M94.5 398.8l1.5.3c.7.1 1.2.3 1.5.6.3.3.4.7.4 1.2l-.5.7c-.2.2-.5.3-.8.3l.5.3.4.5v.8c0 .5-.3.8-.7 1-.4.2-.9.3-1.5.2l-2-.4 1.2-5.5zm.2 2.5l1 .2h1c.2-.2.4-.4.4-.7 0-.3 0-.5-.2-.7a2 2 0 0 0-1-.4l-.9-.2-.3 1.8zm-.1.5l-.4 2 1.1.2h1c.3-.2.4-.4.5-.7 0-.3 0-.6-.2-.8-.1-.2-.5-.4-1-.5l-1-.2zM100.7 401.4c.4 0 .6.2.9.4.2.2.4.4.4.7v1.5l-2.9-.6c0 .5 0 .9.2 1.2.2.2.5.4.9.5a3.3 3.3 0 0 0 1.3 0v.6a3.2 3.2 0 0 1-1.5 0l-1-.5-.5-.8v-1.2c0-.5.2-.8.4-1.1l.8-.7h1zm-.1.5a1 1 0 0 0-.8.2c-.3.1-.4.4-.5.8l2 .4v-1c-.1-.2-.4-.3-.7-.4zM103.3 406.2h-.7l1.2-6 .7.2zM105.3 406.6h-.7l1.2-6 .7.2zM112 406.5c0 .5-.3.8-.7 1-.4.2-.9.2-1.5.1a4.5 4.5 0 0 1-1.4-.5l.1-.7.6.4.9.2h1c.2-.1.3-.3.4-.6v-.5a1 1 0 0 0-.4-.4l-.7-.5-1-.8c-.1-.3-.2-.7 0-1.1 0-.3.1-.5.3-.7l.7-.4h1a4.2 4.2 0 0 1 1.4.6l-.3.6a3.3 3.3 0 0 0-1.3-.6l-.8.1-.4.5v.5l.4.4.6.5.8.5.4.6v.8zM114.3 408a2 2 0 0 0 .6 0l-.1.5h-.3a3 3 0 0 1-.4 0l-.6-.3a1 1 0 0 1-.4-.4v-.9l.5-2.3-.6-.2v-.3l.7-.1.5-.9.4.1-.2 1 1.2.2-.1.5-1.2-.2-.5 2.4v.6l.5.2zM118.4 404.9h.2l.2.1-.2.6h-.2l-.2-.1h-.6l-.6.4-.3.7-.4 2.2-.7-.1.8-4.1h.6v.8c.1-.2.3-.3.6-.4.2-.2.5-.2.8-.1zM121 405.4c.4 0 .7.2 1 .4l.4.8v1l-.1.4-2.8-.6c-.1.5 0 .9.1 1.2.2.3.5.5 1 .5a3.3 3.3 0 0 0 1.3 0l-.1.6a3.2 3.2 0 0 1-1.4 0c-.4 0-.8-.2-1-.4-.3-.3-.5-.5-.6-.9v-1.2c0-.4.2-.8.5-1.1.2-.3.4-.5.7-.6.4-.1.7-.2 1-.1zm0 .6a1 1 0 0 0-.9.1c-.2.2-.4.4-.5.8l2 .4c.2-.3.1-.6 0-.9-.1-.2-.3-.4-.7-.4zM125.4 406.3c.3 0 .6.2.9.4l.4.8v1.4l-2.9-.6c0 .5 0 .9.2 1.2.1.2.4.4.9.5H126.2v.6h-1.5l-1-.5c-.3-.2-.5-.5-.6-.8V408c.1-.5.3-.8.5-1.1a1.7 1.7 0 0 1 1.8-.7zm-.1.5a1 1 0 0 0-.9.2c-.2.1-.4.4-.5.8l2.1.4v-1l-.7-.4zM128.8 410.8a2.9 2.9 0 0 0 .6 0l-.1.6h-.4a1.6 1.6 0 0 1-1-.3 1 1 0 0 1-.3-.5v-.8l.5-2.4h-.6v-.4l.7-.2.5-.8h.4l-.2 1 1.1.3v.5l-1.2-.2-.5 2.3v.7l.5.2z" stroke="#FFF" stroke-width="2" stroke-linejoin="round"/>
        <path d="M94.5 398.8l1.5.3c.7.1 1.2.3 1.5.6.3.3.4.7.4 1.2l-.5.7c-.2.2-.5.3-.8.3l.5.3.4.5v.8c0 .5-.3.8-.7 1-.4.2-.9.3-1.5.2l-2-.4 1.2-5.5zm.2 2.5l1 .2h1c.2-.2.4-.4.4-.7 0-.3 0-.5-.2-.7a2 2 0 0 0-1-.4l-.9-.2-.3 1.8zm-.1.5l-.4 2 1.1.2h1c.3-.2.4-.4.5-.7 0-.3 0-.5-.2-.8-.1-.2-.5-.4-1-.5l-1-.2zM100.7 401.4c.4 0 .6.2.9.4.2.2.4.4.4.7v1.5l-2.9-.6c0 .5 0 .9.2 1.2.2.2.5.4.9.5a3.3 3.3 0 0 0 1.3 0v.6a3.2 3.2 0 0 1-1.5 0l-1-.5-.5-.8v-1.2c0-.5.2-.8.4-1.1l.8-.7h1zm-.1.5a1 1 0 0 0-.8.2c-.3.1-.4.4-.5.8l2 .4v-1c-.1-.2-.4-.3-.7-.4zM103.3 406.2h-.7l1.2-6 .7.2zM105.3 406.6h-.7l1.2-6 .7.2zM112 406.5c0 .5-.3.8-.7 1-.4.2-.9.2-1.5.1a4.5 4.5 0 0 1-1.4-.5l.1-.7.6.4.9.2h1c.2-.1.3-.3.4-.6v-.5a1 1 0 0 0-.4-.4l-.7-.5-1-.8c-.1-.3-.2-.7 0-1.1 0-.3.1-.5.3-.7l.7-.4h1a4.2 4.2 0 0 1 1.4.6l-.3.6a3.3 3.3 0 0 0-1.3-.6l-.8.1-.4.5v.5l.4.4.6.5.8.5.4.6v.8zM114.3 408a2 2 0 0 0 .6 0l-.1.5h-.3a3 3 0 0 1-.4 0l-.6-.3a1 1 0 0 1-.4-.4v-.9l.5-2.3-.6-.2v-.3l.7-.1.5-.9.4.1-.2 1 1.2.2-.1.5-1.2-.2-.5 2.4v.6l.5.2zM118.4 404.9h.2l.2.1-.2.6h-.2l-.2-.1h-.6l-.6.4-.3.7-.4 2.2-.7-.1.8-4.1h.6v.8c.1-.2.3-.3.6-.4.2-.2.5-.2.8-.1zM121 405.4c.4 0 .7.2 1 .4l.4.8v1l-.1.4-2.8-.6c-.1.5 0 .9.1 1.2.2.3.5.5 1 .5a3.3 3.3 0 0 0 1.3 0l-.1.6a3.2 3.2 0 0 1-1.4 0c-.4 0-.8-.2-1-.4-.3-.3-.5-.5-.6-.9v-1.2c0-.4.2-.8.5-1.1.2-.3.4-.5.7-.6.4-.1.7-.2 1-.1zm0 .5a1 1 0 0 0-.9.2c-.2.2-.4.4-.5.8l2 .4c.2-.3.1-.6 0-.9-.1-.2-.3-.4-.7-.5zM125.4 406.3c.3 0 .6.2.9.4l.4.8v1.4l-2.9-.6c0 .5 0 .9.2 1.2.1.2.4.4.9.5H126.2v.6h-1.5l-1-.5c-.3-.2-.5-.5-.6-.8V408c.1-.5.3-.8.5-1.1a1.7 1.7 0 0 1 1.8-.7zm-.1.5a1 1 0 0 0-.8.2c-.3.1-.5.4-.6.8l2.1.4v-1l-.7-.4zM128.8 410.8a2.9 2.9 0 0 0 .6 0l-.1.6h-.4a1.6 1.6 0 0 1-1-.3 1 1 0 0 1-.3-.5v-.8l.5-2.4h-.6v-.4l.7-.2.5-.8h.4l-.2 1 1.1.3v.5l-1.2-.2-.5 2.3v.7l.5.2z" fill="#000" fill-rule="nonzero"/>
        <path fill="#434343" fill-rule="nonzero" d="M400.2 410.8l-4-3.1-.8 1-1.7-3.5 3.9.8-.9 1.1 4 3.1zM265.9 304.4l-4-3.1-.8 1-1.7-3.5 3.9.8-.9 1.1 4 3.1zM196.6 249.5l-3.9-3-.9 1-1.6-3.6 3.9.8-1 1.2 4 3zM115.7 184.6l-3.9-3.1-.9 1-1.6-3.5 3.9.8-1 1.1 4 3.1zM-1.5 90.7l-3.9-3.1-.9 1-1.6-3.5 3.9.8-1 1.1 4 3.1zM41.6 134.4l4 3.1.8-1.1 1.7 3.6-4-.8 1-1.1-4-3.2zM141.7 214.8l3.9 3.2.9-1.1 1.6 3.6-3.9-.9 1-1-4-3.2zM242 295l4 3 .8-1 1.7 3.6-4-.9 1-1-4-3.2zM342.5 374.8l4 3.1.8-1 1.7 3.5-3.9-.8.9-1-4-3.2z"/>
        <path fill="#555" fill-rule="nonzero" d="M270.7 7.2l-1.8 4.7 1.4.5-3 2.8-.4-4 1.4.5L270 7zM24 167.4l1.6-4.7-1.3-.5 2.8-2.7.5 4-1.3-.6-1.7 4.8zM80.6 5.7L82.2 1 80.8.5l2.8-2.8.6 4-1.4-.5L81.3 6zM349.1 138.2l-4.7-1.7-.5 1.3-2.7-2.9 4-.4-.5 1.3 4.7 1.7zM228.6 93.9l-4.7-1.7-.5 1.3-2.7-2.9 4-.4-.5 1.3 4.7 1.7zM108 49.7l-4.7-1.7-.4 1.4-2.8-3 4-.4-.5 1.3 4.7 1.8zM308.1 313l4.7 1.7.5-1.3 2.8 3-4 .4.5-1.4-4.7-1.7zM318.4 403l1.7-4.7-1.4-.5 3-2.7.4 4-1.3-.6-1.7 4.7zM361.3 282l1.6-4.7-1.3-.5 2.9-2.8.5 4-1.4-.5-1.7 4.7zM404.2 161l1.7-4.7-1.3-.5 2.9-2.8.4 4-1.3-.5-1.7 4.7zM67 397.3l-4.8-1-.3 1.5-3.2-2.5 3.9-1-.3 1.3 4.9 1z"/>
      </g>
    </g>
    <g fill="#2E1B36">
      <path d="M227 221.6l.5 1.1-1.1-.7-.3 1.3-.5-1.3-1 1 .3-1.4-1.4.2 1.1-.9-1.2-.7h1.4l-.6-1.3 1.2.7.3-1.3.5 1.3 1-1-.3 1.2v.2c-1.2-.1-1.8.2-1.8.8 0 .7.6 1 2 .8zM248.7 219.8l-.4-1.1 1 .9.6-1.3.3 1.3 1.1-.7-.5 1.2 1.4.1-1.2.7 1 .9-1.3-.2.3 1.4-1-1-.5 1.3-.3-1.3-1.2.7.5-1c1.5 0 2.2-.2 2.2-.9s-.7-1-2-.8v-.2z"/>
      <path d="M226.4 220.6a.5.5 0 0 1-1 0v.2c0 .3.2.5.5.5s.5-.2.5-.5v-.2M249.7 221.3c.3 0 .6-.2.6-.5v-.2a.5.5 0 0 1-1 0l-.1.2c0 .3.2.5.5.5M237 211a.3.3 0 1 1 0 .5.3.3 0 0 1 0-.5m0 .8a.5.5 0 1 0 0-1 .5.5 0 0 0 0 1M237 213.1a.3.3 0 1 1 0 .5.3.3 0 0 1 0-.5m0 .8a.5.5 0 1 0 0-1 .5.5 0 0 0 0 1M238.8 212a.3.3 0 1 1 0 .6.3.3 0 0 1 0-.6m0 .9a.5.5 0 1 0 0-1 .5.5 0 0 0 0 1M237 215.2a.3.3 0 1 1 0 .5.3.3 0 0 1 0-.5m0 .8a.5.5 0 1 0 0-1 .5.5 0 0 0 0 1M238.8 214.1a.3.3 0 1 1 0 .6.3.3 0 0 1 0-.6m0 .9a.5.5 0 1 0 0-1 .5.5 0 0 0 0 1M237 217.3a.3.3 0 1 1 0 .5.3.3 0 0 1 0-.5m0 .8a.5.5 0 1 0 0-1 .5.5 0 0 0 0 1M238.8 216.2a.3.3 0 1 1 0 .6.3.3 0 0 1 0-.6m0 .9a.5.5 0 1 0 0-1 .5.5 0 0 0 0 1M237 219.4a.3.3 0 1 1 0 .5.3.3 0 0 1 0-.5m0 .8a.5.5 0 1 0 0-1 .5.5 0 0 0 0 1M238.8 218.3a.3.3 0 1 1 0 .6.3.3 0 0 1 0-.6m0 .9a.5.5 0 1 0 0-1 .5.5 0 0 0 0 1M237 221.5a.3.3 0 1 1 0 .5.3.3 0 0 1 0-.5m0 .8a.5.5 0 1 0 0-1 .5.5 0 0 0 0 1M238.8 221a.3.3 0 1 1 0-.6.3.3 0 0 1 0 .6m0-.7a.5.5 0 1 0 0 1 .5.5 0 0 0 0-1M237 226.2a.3.3 0 1 1 0-.5.3.3 0 0 1 0 .5m0-.7a.5.5 0 1 0 0 1 .5.5 0 0 0 0-1M238.8 225.2a.3.3 0 1 1 0-.5.3.3 0 0 1 0 .5m0-.7a.5.5 0 1 0 0 1 .5.5 0 0 0 0-1M235 220.6c0 .5-.3.6-.5.6-.3 0-.5-.1-.5-.6V217c0-.4.2-.6.5-.6.2 0 .4.2.4.6v3.6zm.6 0V217c0-.9-.6-1.1-1.1-1.1-.6 0-1.1.2-1.1 1.1v3.6c0 1 .5 1.1 1 1.1.6 0 1.2-.2 1.2-1zM241 221.7c.3 0 .4-.1.4-.5v-4.7c0-.4-.1-.6-.4-.6-.3 0-.5.2-.5.6v4.7c0 .4.2.5.5.5"/>
      <path d="M237.6 209v13.8h-2c-.3 0-.6.3-.6.6s.3.6.6.6h2v2.5c-3 0-5-.5-6.2-1.5-1-.9-1.3-2-1.3-4 0-3.7 3.6-11.8 7.5-12zm-9 12.4v-1.3c0-.3.2-.4.5-.4v2.2c-.2 0-.5-.1-.5-.4zm-1.7-.4v-.1a1 1 0 0 0 0-.2l1.3-.4a3 3 0 0 0 0 1l-1.3-.3zm-1.7-.2c0-.4.3-.7.7-.7a.7.7 0 0 1 .7.6.7.7 0 0 1 0 .2v.1c-.1.3-.4.5-.7.5a.7.7 0 0 1-.7-.7zm12.6 5.7V224h2c.4 0 .6-.3.6-.6s-.2-.6-.6-.6h-2v-13.7c4 .1 7.6 8.2 7.6 11.8 0 3.7-1.2 5.5-7.6 5.6zm9.3-6.3a2.7 2.7 0 0 1 0 1.3c-.1.3-.3.4-.6.4v-2.2c.3 0 .5.1.6.4zm1.6.4v.1a1 1 0 0 0 0 .2l-1.3.4v-.3-.7l1.3.3zm1.7.2c0 .4-.3.7-.7.7a.7.7 0 0 1-.6-.5.7.7 0 0 1 0-.3v-.1c0-.3.3-.5.6-.5.4 0 .7.3.7.7zm-10.6 2.3c.2 0 .3.2.3.3 0 .1-.1.3-.3.3h-4.2a.3.3 0 0 1-.2-.3c0-.1 0-.3.2-.3h4.2zm2.8 3a4 4 0 0 0 3-3.3h.2c.3 0 .6-.2.7-.6.4 0 .7-.2.8-.6l1.5-.3a1 1 0 0 0 2-.5c0-.6-.5-1-1-1a1 1 0 0 0-1 .5l-1.4-.3a.9.9 0 0 0-.8-.6h-.1c0-.3-.4-.6-.7-.6h-.4c-.4-1.6-1.1-3.6-2-5.3-1-1.8-3-4.7-5.7-4.7-2.5 0-4.6 3-5.6 4.7-1 1.7-1.7 3.7-2 5.3h-.3c-.3 0-.6.3-.7.6-.4 0-.7.2-.8.6l-1.5.3a1 1 0 0 0-2 .5c0 .6.5 1 1 1a1 1 0 0 0 1-.5l1.5.3c.1.4.4.6.8.6.1.4.4.6.7.6h.1c.2.9.6 1.8 1.3 2.4l1.7 1c-.5 0 2.2.7 4.8.7 2.7 0 5.3-.7 4.9-.7z"/>
      <path d="M233.6 226.2l-.7-.2c-.6-.2-1.1-.5-1.6-1a4 4 0 0 1-1.2-2.2v-.2h-.3a.6.6 0 0 1-.5-.4v-.1h-.2c-.3 0-.6-.2-.7-.5v-.1l-1.7-.4c-.2.4-.5.5-.8.5a.8.8 0 0 1-.9-.8c0-.5.4-.8.9-.8.3 0 .6.1.7.4l.1.1 1.7-.4c.1-.4.4-.6.7-.6h.2v-.1c0-.2.3-.4.5-.4h.4v-.1c.4-1.7 1.2-3.7 2-5.3 1-1.7 3-4.7 5.5-4.7s4.5 3 5.5 4.7c.9 1.6 1.6 3.6 2 5.3v.1h.6c.2 0 .5.2.5.4v.1h.3c.2 0 .5.2.6.5v.1l1.7.4c.2-.4.5-.5.8-.5.5 0 .9.3.9.8s-.4.8-.9.8a.8.8 0 0 1-.7-.4v-.1l-1.8.4c-.1.4-.4.6-.7.6h-.1v.1c-.1.2-.4.4-.6.4h-.4v.2a3.9 3.9 0 0 1-2.9 3.2l-.6.2-4.2.6-4.1-.6zm10-.1a4.2 4.2 0 0 0 2.2-3 1 1 0 0 0 1-.5c.3-.1.6-.3.8-.7l1-.2a1.4 1.4 0 0 0 2.5-.9c0-.7-.6-1.3-1.4-1.3-.4 0-.8.1-1 .5l-1-.3c-.3-.4-.6-.6-1-.7a1 1 0 0 0-.9-.5h-.1c-.4-1.7-1.2-3.6-2-5.2-1-1.8-3.2-4.9-6-4.9-2.7 0-4.8 3.1-5.9 5-.9 1.5-1.6 3.4-2 5a1 1 0 0 0-1 .6c-.3.1-.6.3-.8.7l-1 .3c-.3-.4-.7-.5-1.1-.5-.8 0-1.4.6-1.4 1.3 0 .7.6 1.4 1.4 1.4.4 0 .8-.2 1-.5l1.1.2c.2.4.5.6.9.7.1.3.4.5.7.5a4.3 4.3 0 0 0 2.2 3c-.2 0 2.8 1.1 6 1.1 3 0 6.1-1 5.9-1.1z"/>
    </g>
  </g>
</svg>