<?xml version="1.0" encoding="UTF-8"?>
<svg width="263px" height="116px" viewBox="0 0 263 116" version="1.1" xmlns="http://www.w3.org/2000/svg" xmlns:xlink="http://www.w3.org/1999/xlink">
    <!-- Generator: Sketch 59.1 (86144) - https://sketch.com -->
    <title>Operation Spark</title>
    <desc>Created with Sketch.</desc>
    <g id="Operation-Spark" stroke="none" stroke-width="1" fill="none" fill-rule="evenodd">
        <polygon id="Fill-1" fill="#FEFEFE" points="3 112 260 112 260 2 3 2"></polygon>
        <path d="M219.464281,62.7451025 L207.112792,84.2570232 C206.748933,84.8892234 207.322825,85.6522931 208.015045,85.4580023 L214.647339,83.6067026 L211.437687,95.6909881 C211.13102,96.8496862 212.679147,97.522154 213.282621,96.4913052 L224.884698,76.7018281 C225.213059,76.1431161 224.79891,75.4354143 224.16191,75.4656149 L218.316498,75.7374208 L222.105958,63.9611819 C222.650268,62.2669256 220.347799,61.2068829 219.464281,62.7451025" id="Fill-2" fill="#EFC319"></path>
        <path d="M29.4061065,100 C24.9285277,100 20.4519437,98.4972985 17,96.404992 L19.3188705,90.3971539 C22.4475054,92.4894605 26.2237527,93.776501 29.6219773,93.776501 C34.0995562,93.776501 36.1488369,91.5773533 36.1488369,89.1645232 C36.1488369,86.6428734 34.7471687,85.140172 27.8960055,82.6195115 C20.5056627,79.9366106 17.9699265,76.4494331 17.9699265,71.9442965 C17.9699265,66.2579712 22.6096572,61 30.7013315,61 C34.7471687,61 38.738292,62.1811886 41.1665901,63.5750704 L39.0088766,69.4770565 C36.7964493,68.241458 33.4519437,66.9554067 30.5391797,66.9554067 C26.5470615,66.9554067 24.7126569,69.1535652 24.7126569,71.7830454 C24.7126569,74.1968648 26.7629324,75.6995662 32.1039945,77.6306217 C40.5726967,80.9021383 43,84.2280648 43,89.1645232 C43,95.8688075 37.8748087,100 29.4061065,100" id="Fill-4" fill="#2E1B36"></path>
        <path d="M62.7510039,67.1633745 L62.7510039,82.0270455 L67.2141954,82.0270455 C73.5285173,82.0270455 75.7059042,78.6767136 75.7059042,74.5149655 C75.7059042,70.3512237 73.5827261,67.1633745 67.2141954,67.1633745 L62.7510039,67.1633745 Z M62.7510039,87.9741088 L62.7510039,99 L56,99 L56,61 L67.7040824,61 C77.8832912,61 83,66.5682695 83,74.5149655 C83,82.4596679 77.9375,87.9741088 66.3970479,87.9741088 L62.7510039,87.9741088 Z" id="Fill-6" fill="#2E1B36"></path>
        <path d="M143.665675,67.1633745 L143.665675,82.0270455 L148.613127,82.0270455 C154.848503,82.0270455 156.999009,78.6767136 156.999009,74.5149655 C156.999009,70.3512237 154.903034,67.1633745 148.613127,67.1633745 L143.665675,67.1633745 Z M137,61 L149.096966,61 C159.149514,61 164.204045,66.5682695 164.204045,74.5149655 C164.204045,79.7582697 162.05354,83.9200178 157.322229,86.1359618 L167,99 L159.204045,99 L151.193932,87.8116261 C150.118184,87.9192833 148.988895,87.9741088 147.807059,87.9741088 L143.665675,87.9741088 L143.665675,99 L137,99 L137,61 Z" id="Fill-8" fill="#2E1B36"></path>
        <polygon id="Fill-10" fill="#2E1B36" points="179 61 185.724681 61 185.724681 79.5947903 201.942736 61 210.132783 61 192.55939 81.0003148 211 99 202.592898 99 185.724681 82.7308045 185.724681 99 179 99"></polygon>
        <polygon id="Fill-12" fill="#2E1B36" points="248 82.7308045 231.316185 99 223 99 241.240008 81.0013116 223.858726 61 231.95924 61 248 79.5947903"></polygon>
        <path d="M21.2810543,31.2325046 C21.2810543,32.0510787 21.5011308,32.6516951 21.9403271,33.039285 C22.3795233,33.4258886 22.9000522,33.6201767 23.5,33.6201767 C24.0999478,33.6201767 24.6204767,33.4258886 25.0596729,33.039285 C25.4988692,32.6516951 25.7199026,32.0510787 25.7199026,31.2325046 L25.7199026,18.7684816 C25.7199026,17.9508938 25.4988692,17.3483049 25.0596729,16.960715 C24.6204767,16.5760838 24.0999478,16.3808095 23.5,16.3808095 C22.9000522,16.3808095 22.3795233,16.5760838 21.9403271,16.960715 C21.5011308,17.3483049 21.2810543,17.9508938 21.2810543,18.7684816 L21.2810543,31.2325046 Z M18,18.7684816 C18,17.8177522 18.1617084,16.9794535 18.4832116,16.2496404 C18.8047147,15.5188412 19.2276444,14.9182248 19.7529576,14.4418738 C20.2792276,13.9665091 20.86865,13.6085063 21.5221816,13.3658927 C22.1766701,13.1232792 22.8349861,13 23.5,13 C24.1650139,13 24.8242867,13.1232792 25.4778184,13.3658927 C26.13135,13.6085063 26.7217293,13.9665091 27.2470424,14.4418738 C27.7723556,14.9182248 28.1962422,15.5188412 28.5167884,16.2496404 C28.8392484,16.9794535 29,17.8177522 29,18.7684816 L29,31.2325046 C29,32.2039449 28.8392484,33.0511198 28.5167884,33.7681118 C28.1962422,34.4870762 27.7723556,35.0827615 27.2470424,35.5581262 C26.7217293,36.0334909 26.13135,36.39248 25.4778184,36.6360797 C24.8242867,36.8786932 24.1650139,37 23.5,37 C22.8349861,37 22.1766701,36.8786932 21.5221816,36.6360797 C20.86865,36.39248 20.2792276,36.0334909 19.7529576,35.5581262 C19.2276444,35.0827615 18.8047147,34.4870762 18.4832116,33.7681118 C18.1617084,33.0511198 18,32.2039449 18,31.2325046 L18,18.7684816 Z" id="Fill-14" fill="#2E1B36"></path>
        <path d="M50.3901672,24.3937571 L52.0175265,24.3937571 C52.7046558,24.3937571 53.236563,24.2924658 53.6132482,24.0888805 C53.9899335,23.8883039 54.2667625,23.612511 54.4437354,23.2635076 C54.6207083,22.9155071 54.7264965,22.4942961 54.7591228,21.9998746 C54.7927377,21.5054532 54.8095452,20.9548703 54.8095452,20.3481259 C54.8095452,19.7865112 54.7927377,19.2529773 54.7591228,18.7465212 C54.7264965,18.2410681 54.627629,17.803811 54.4605429,17.433747 C54.2944454,17.0606744 54.0344239,16.7698383 53.6804782,16.557227 C53.3245551,16.34261 52.8163761,16.2353015 52.1509977,16.2353015 L50.3901672,16.2353015 L50.3901672,24.3937571 Z M47,13 L52.0847564,13 C53.0150998,13 53.8347115,13.1233546 54.5435916,13.3710668 C55.2524717,13.618779 55.8951106,14.0560361 56.4715082,14.6858468 C57.0469171,15.3146546 57.4453532,16.050771 57.6678051,16.8931929 C57.8882797,17.7356149 58,18.877899 58,20.3150307 C58,21.3710668 57.9387021,22.2766704 57.8170951,23.02783 C57.695488,23.7809954 57.4344778,24.4830137 57.0360417,25.1348878 C56.5703757,25.9211483 55.9504764,26.53391 55.175355,26.97217 C54.399245,27.41043 53.3799209,27.6300614 52.1183714,27.6300614 L50.3901672,27.6300614 L50.3901672,37 L47,37 L47,13 Z" id="Fill-16" fill="#2E1B36"></path>
        <polygon id="Fill-18" fill="#2E1B36" points="75 13 85 13 85 16.2361691 78.3555142 16.2361691 78.3555142 23.2821327 84.1447304 23.2821327 84.1447304 26.517299 78.3555142 26.517299 78.3555142 33.5612569 85 33.5612569 85 37 75 37"></polygon>
        <path d="M105.34455,23.7188166 L107.246525,23.7188166 C107.83565,23.7188166 108.305779,23.6355773 108.655938,23.4670929 C109.005121,23.2976056 109.273348,23.0569136 109.458669,22.7410054 C109.643989,22.4271029 109.769812,22.0389871 109.836138,21.5776608 C109.901487,21.1183402 109.93465,20.5838034 109.93465,19.9780619 C109.93465,19.3713175 109.901487,18.8377836 109.836138,18.3764573 C109.769812,17.9161339 109.63326,17.5220008 109.425506,17.1970666 C109.217752,16.8711295 108.928066,16.6294346 108.557425,16.4709791 C108.184833,16.3145293 107.693246,16.2353015 107.081687,16.2353015 L105.34455,16.2353015 L105.34455,23.7188166 Z M102,13 L107.37625,13 C111.3109,13 113.278225,15.3477498 113.278225,20.0442522 C113.278225,21.43826 113.064618,22.6357026 112.639356,23.6355773 C112.213119,24.6354519 111.463058,25.4377586 110.393075,26.0455058 L114,37 L110.4594,37 L107.344062,26.7525385 L105.34455,26.7525385 L105.34455,37 L102,37 L102,13 Z" id="Fill-20" fill="#2E1B36"></path>
        <path d="M136.017052,19.91058 L135.948845,19.91058 L134.2106,28.6082233 L137.754263,28.6082233 L136.017052,19.91058 Z M134.523732,13 L137.475234,13 L143,37 L139.456337,37 L138.413597,31.8423868 L133.585369,31.8423868 L132.543663,37 L129,37 L134.523732,13 Z" id="Fill-22" fill="#2E1B36"></path>
        <polygon id="Fill-24" fill="#2E1B36" points="158.839979 16.2361691 155 16.2361691 155 13 166 13 166 16.2361691 162.160021 16.2361691 162.160021 37 158.839979 37"></polygon>
        <polygon id="Fill-26" fill="#2E1B36" points="183 37 186 37 186 13 183 13"></polygon>
        <path d="M207.28134,31.2325046 C207.28134,32.0510787 207.500478,32.6516951 207.94067,33.039285 C208.379904,33.4258886 208.899522,33.6201767 209.500478,33.6201767 C210.100478,33.6201767 210.620096,33.4258886 211.060287,33.039285 C211.499522,32.6516951 211.720574,32.0510787 211.720574,31.2325046 L211.720574,18.7684816 C211.720574,17.9508938 211.499522,17.3483049 211.060287,16.960715 C210.620096,16.5760838 210.100478,16.3808095 209.500478,16.3808095 C208.899522,16.3808095 208.379904,16.5760838 207.94067,16.960715 C207.500478,17.3483049 207.28134,17.9508938 207.28134,18.7684816 L207.28134,31.2325046 Z M204,18.7684816 C204,17.8177522 204.160766,16.9794535 204.483254,16.2496404 C204.804785,15.5188412 205.227751,14.9182248 205.75311,14.4418738 C206.278469,13.9665091 206.867943,13.6085063 207.522488,13.3658927 C208.177033,13.1232792 208.835407,13 209.500478,13 C210.16555,13 210.823923,13.1232792 211.478469,13.3658927 C212.132057,13.6085063 212.722488,13.9665091 213.247847,14.4418738 C213.773206,14.9182248 214.197129,15.5188412 214.517703,16.2496404 C214.840191,16.9794535 215,17.8177522 215,18.7684816 L215,31.2325046 C215,32.2039449 214.840191,33.0511198 214.517703,33.7681118 C214.197129,34.4870762 213.773206,35.0827615 213.247847,35.5581262 C212.722488,36.0334909 212.132057,36.39248 211.478469,36.6360797 C210.823923,36.8786932 210.16555,37 209.500478,37 C208.835407,37 208.177033,36.8786932 207.522488,36.6360797 C206.867943,36.39248 206.278469,36.0334909 205.75311,35.5581262 C205.227751,35.0827615 204.804785,34.4870762 204.483254,33.7681118 C204.160766,33.0511198 204,32.2039449 204,31.2325046 L204,18.7684816 Z" id="Fill-28" fill="#2E1B36"></path>
        <polygon id="Fill-29" fill="#2E1B36" points="232 13 235.303636 13 240.494776 27.4609728 240.560969 27.4609728 240.560969 13 244 13 244 37 240.76356 37 235.504221 22.572121 235.438028 22.572121 235.438028 37 232 37"></polygon>
        <path d="M5.21443259,109.79883 L256.785567,109.79883 L256.785567,49.5601647 L5.21443259,49.5601647 L5.21443259,109.79883 Z M5.21443259,44.3579974 L256.785567,44.3579974 L256.785567,5.20117035 L5.21443259,5.20117035 L5.21443259,44.3579974 Z M0,115 L262,115 L262,0 L0,0 L0,115 Z" id="Fill-30" fill="#2E1B36"></path>
        <path d="M101.978588,85.8528731 L113.799231,85.8528731 L107.888409,72.5412315 L101.978588,85.8528731 Z M96.1798573,99 L89,99 L107.225868,60 L108.773131,60 L127,99 L119.653006,99 L116.229213,91.2999125 L99.5496063,91.2999125 L96.1798573,99 Z" id="Fill-31" fill="#2E1B36"></path>
    </g>
</svg>