<?xml version="1.0" encoding="UTF-8"?>
<svg width="104px" height="104px" viewBox="0 0 104 104" version="1.1" xmlns="http://www.w3.org/2000/svg" xmlns:xlink="http://www.w3.org/1999/xlink">
    <!-- Generator: Sketch 59.1 (86144) - https://sketch.com -->
    <title>programadult</title>
    <desc>Created with Sketch.</desc>
    <g id="Symbols" stroke="none" stroke-width="1" fill="none" fill-rule="evenodd">
        <g id="Home-icons-Copy" transform="translate(-382.000000, -40.000000)" stroke="#FFFFFF" stroke-width="4">
            <g id="adult" transform="translate(384.000000, 42.000000)">
                <circle id="Oval-Copy-6" cx="50" cy="50" r="50"></circle>
                <g id="briefcase" transform="translate(20.000000, 26.000000)">
                    <rect id="Rectangle" stroke-linecap="round" stroke-linejoin="round" x="0" y="8" width="60" height="40" rx="3"></rect>
                    <path d="M24,27 L24,22 C24,21.4477153 24.4477153,21 25,21 L35,21 C35.5522847,21 36,21.4477153 36,22 L36,27 C36,27.5522847 36.4477153,28 37,28 L60,28 L0,28 L23,28 C23.5522847,28 24,27.5522847 24,27 Z" id="Rectangle" transform="translate(30.000000, 24.500000) scale(1, -1) translate(-30.000000, -24.500000) "></path>
                    <rect id="Rectangle" x="22" y="0" width="16" height="8" rx="1"></rect>
                </g>
            </g>
        </g>
    </g>
</svg>