<?xml version="1.0" encoding="UTF-8"?>
<svg width="780px" height="320px" viewBox="0 0 780 320" version="1.1" xmlns="http://www.w3.org/2000/svg" xmlns:xlink="http://www.w3.org/1999/xlink">
    <!-- Generator: Sketch 59.1 (86144) - https://sketch.com -->
    <title>CTA Copy</title>
    <desc>Created with Sketch.</desc>
    <defs>
        <rect id="path-1" x="0" y="0" width="780" height="320"></rect>
    </defs>
    <g id="CTA-Copy" stroke="none" stroke-width="1" fill="none" fill-rule="evenodd">
        <g id="CTA">
            <mask id="mask-2" fill="white">
                <use xlink:href="#path-1"></use>
            </mask>
            <g id="Rectangle"></g>
            <g id="Hallebot-outlines" opacity="0.4" mask="url(#mask-2)">
                <g transform="translate(362.000000, -32.000000)" id="Group">
                    <g>
                        <path d="M51.5151705,189.284151 L58.6655115,205.380037 L42.095447,194.528392 L37.9665622,213.909689 L30.936553,195.384556 L16.2128295,208.635342 L21.4058986,189.511834 L1.70908756,191.572273 L17.1435207,179.155071 L-3.4283687e-13,169.234857 L19.7795392,168.267674 L11.7361106,150.158392 L28.3061751,161.011918 L32.4331797,141.628739 L39.4631889,160.155754 L54.1887926,146.903086 L49.5729401,163.90406 L49.8242869,167.188533 C31.6495703,164.866916 22.562212,168.096692 22.562212,176.877863 C22.562212,185.659033 32.2131982,189.794463 51.5151705,189.284151 Z" id="Fill-32" fill="#2E1B36"></path>
                        <path d="M357.114879,163.903495 L352.499027,146.902522 L367.22463,160.15519 L374.25464,141.628174 L378.383524,161.011354 L394.951709,150.157827 L386.90828,168.26711 L406.687819,169.234293 L389.544299,179.154506 L404.976852,191.571709 L385.281921,189.51127 L390.47499,208.634777 L375.749386,195.383991 L368.721257,213.911006 L364.594253,194.527827 L348.024188,205.379472 L355.174529,189.283587 C375.350035,191.675954 385.437788,187.854326 385.437788,177.818702 C385.437788,167.783079 375.902256,164.381566 356.831193,167.614162 L357.114879,163.903495 Z" id="Fill-33" fill="#2E1B36"></path>
                        <path d="M42.4842691,175.506871 C41.5122138,178.626695 38.6336516,180.912936 35.1985548,180.912936 C31.7672184,180.912936 28.8886562,178.626695 27.9166009,175.506871 C27.692859,176.227554 27.5368037,176.976463 27.5368037,177.770531 C27.5368037,181.998665 30.9737806,185.438375 35.1985548,185.438375 C39.4270894,185.438375 42.8640664,181.998665 42.8640664,177.770531 C42.8640664,176.976463 42.7080111,176.227554 42.4842691,175.506871" id="Fill-36" fill="#2E1B36"></path>
                        <path d="M372.301504,185.438939 C376.526278,185.438939 379.963255,181.999229 379.963255,177.769214 C379.963255,176.977027 379.8072,176.226237 379.583458,175.507435 C378.611403,178.625378 375.732841,180.9135 372.301504,180.9135 C368.868288,180.9135 365.989725,178.625378 365.01579,175.507435 C364.792048,176.226237 364.637873,176.977027 364.637873,177.769214 C364.637873,181.999229 368.07485,185.438939 372.301504,185.438939" id="Fill-37" fill="#2E1B36"></path>
                        <path d="M190.602935,35.86575 C191.813773,35.86575 192.795229,36.8479866 192.795229,38.0597882 C192.795229,39.2715897 191.813773,40.2519447 190.602935,40.2519447 C189.392096,40.2519447 188.41064,39.2715897 188.41064,38.0597882 C188.41064,36.8479866 189.392096,35.86575 190.602935,35.86575 M190.602935,42.8787691 C192.953165,42.8787691 194.859672,40.9707462 194.859672,38.6167653 C194.859672,36.264666 192.953165,34.3566431 190.602935,34.3566431 C188.252704,34.3566431 186.346197,36.264666 186.346197,38.6167653 C186.346197,40.9707462 188.252704,42.8787691 190.602935,42.8787691" id="Fill-38" fill="#2E1B36"></path>
                        <path d="M190.602935,66.0405489 C191.813773,66.0405489 192.795229,67.0227855 192.795229,68.234587 C192.795229,69.4463885 191.813773,70.4267435 190.602935,70.4267435 C189.392096,70.4267435 188.41064,69.4463885 188.41064,68.234587 C188.41064,67.0227855 189.392096,66.0405489 190.602935,66.0405489 M190.602935,73.0535679 C192.953165,73.0535679 194.859672,71.145545 194.859672,68.7915641 C194.859672,66.4394649 192.953165,64.531442 190.602935,64.531442 C188.252704,64.531442 186.346197,66.4394649 186.346197,68.7915641 C186.346197,71.145545 188.252704,73.0535679 190.602935,73.0535679" id="Fill-39" fill="#2E1B36"></path>
                        <path d="M214.724007,50.9530553 C215.934846,50.9530553 216.916302,51.935292 216.916302,53.1470935 C216.916302,54.358895 215.934846,55.33925 214.724007,55.33925 C213.513169,55.33925 212.533593,54.358895 212.533593,53.1470935 C212.533593,51.935292 213.513169,50.9530553 214.724007,50.9530553 M214.724007,57.9660744 C217.076118,57.9660744 218.982625,56.0580515 218.982625,53.7040706 C218.982625,51.3519714 217.076118,49.4439485 214.724007,49.4439485 C212.371897,49.4439485 210.46539,51.3519714 210.46539,53.7040706 C210.46539,56.0580515 212.371897,57.9660744 214.724007,57.9660744" id="Fill-40" fill="#2E1B36"></path>
                        <path d="M190.602935,96.2162885 C191.813773,96.2162885 192.795229,97.1966435 192.795229,98.4103267 C192.795229,99.6202466 191.813773,100.602483 190.602935,100.602483 C189.392096,100.602483 188.41064,99.6202466 188.41064,98.4103267 C188.41064,97.1966435 189.392096,96.2162885 190.602935,96.2162885 M190.602935,103.229308 C192.953165,103.229308 194.859672,101.321285 194.859672,98.9673038 C194.859672,96.6152046 192.953165,94.7071817 190.602935,94.7071817 C188.252704,94.7071817 186.346197,96.6152046 186.346197,98.9673038 C186.346197,101.321285 188.252704,103.229308 190.602935,103.229308" id="Fill-41" fill="#2E1B36"></path>
                        <path d="M214.724007,81.1289832 C215.934846,81.1289832 216.916302,82.1093382 216.916302,83.3230214 C216.916302,84.5329412 215.934846,85.5151779 214.724007,85.5151779 C213.513169,85.5151779 212.533593,84.5329412 212.533593,83.3230214 C212.533593,82.1093382 213.513169,81.1289832 214.724007,81.1289832 M214.724007,88.1420023 C217.076118,88.1420023 218.982625,86.2339794 218.982625,83.8799985 C218.982625,81.5278992 217.076118,79.6198763 214.724007,79.6198763 C212.371897,79.6198763 210.46539,81.5278992 210.46539,83.8799985 C210.46539,86.2339794 212.371897,88.1420023 214.724007,88.1420023" id="Fill-42" fill="#2E1B36"></path>
                        <path d="M190.602935,126.391276 C191.813773,126.391276 192.795229,127.371631 192.795229,128.585314 C192.795229,129.795234 191.813773,130.77747 190.602935,130.77747 C189.392096,130.77747 188.41064,129.795234 188.41064,128.585314 C188.41064,127.371631 189.392096,126.391276 190.602935,126.391276 M190.602935,133.404295 C192.953165,133.404295 194.859672,131.496272 194.859672,129.142291 C194.859672,126.790192 192.953165,124.882169 190.602935,124.882169 C188.252704,124.882169 186.346197,126.790192 186.346197,129.142291 C186.346197,131.496272 188.252704,133.404295 190.602935,133.404295" id="Fill-43" fill="#2E1B36"></path>
                        <path d="M214.724007,111.303782 C215.934846,111.303782 216.916302,112.284137 216.916302,113.49782 C216.916302,114.70774 215.934846,115.689977 214.724007,115.689977 C213.513169,115.689977 212.533593,114.70774 212.533593,113.49782 C212.533593,112.284137 213.513169,111.303782 214.724007,111.303782 M214.724007,118.316801 C217.076118,118.316801 218.982625,116.408778 218.982625,114.054797 C218.982625,111.702698 217.076118,109.794675 214.724007,109.794675 C212.371897,109.794675 210.46539,111.702698 210.46539,114.054797 C210.46539,116.408778 212.371897,118.316801 214.724007,118.316801" id="Fill-44" fill="#2E1B36"></path>
                        <path d="M190.602935,156.566074 C191.813773,156.566074 192.795229,157.546429 192.795229,158.760113 C192.795229,159.970032 191.813773,160.952269 190.602935,160.952269 C189.392096,160.952269 188.41064,159.970032 188.41064,158.760113 C188.41064,157.546429 189.392096,156.566074 190.602935,156.566074 M190.602935,163.579094 C192.953165,163.579094 194.859672,161.671071 194.859672,159.31709 C194.859672,156.96499 192.953165,155.056968 190.602935,155.056968 C188.252704,155.056968 186.346197,156.96499 186.346197,159.31709 C186.346197,161.671071 188.252704,163.579094 190.602935,163.579094" id="Fill-45" fill="#2E1B36"></path>
                        <path d="M214.724007,141.478581 C215.934846,141.478581 216.916302,142.458936 216.916302,143.672619 C216.916302,144.882539 215.934846,145.864776 214.724007,145.864776 C213.513169,145.864776 212.533593,144.882539 212.533593,143.672619 C212.533593,142.458936 213.513169,141.478581 214.724007,141.478581 M214.724007,148.4916 C217.076118,148.4916 218.982625,146.583577 218.982625,144.229596 C218.982625,141.877497 217.076118,139.969474 214.724007,139.969474 C212.371897,139.969474 210.46539,141.877497 210.46539,144.229596 C210.46539,146.583577 212.371897,148.4916 214.724007,148.4916" id="Fill-46" fill="#2E1B36"></path>
                        <path d="M190.602935,186.740873 C191.813773,186.740873 192.795229,187.72311 192.795229,188.934911 C192.795229,190.144831 191.813773,191.127068 190.602935,191.127068 C189.392096,191.127068 188.41064,190.144831 188.41064,188.934911 C188.41064,187.72311 189.392096,186.740873 190.602935,186.740873 M190.602935,193.753892 C192.953165,193.753892 194.859672,191.845869 194.859672,189.491889 C194.859672,187.139789 192.953165,185.231766 190.602935,185.231766 C188.252704,185.231766 186.346197,187.139789 186.346197,189.491889 C186.346197,191.845869 188.252704,193.753892 190.602935,193.753892" id="Fill-47" fill="#2E1B36"></path>
                        <path d="M214.724007,176.039763 C213.513169,176.039763 212.533593,175.057526 212.533593,173.845724 C212.533593,172.635805 213.513169,171.653568 214.724007,171.653568 C215.934846,171.653568 216.916302,172.635805 216.916302,173.845724 C216.916302,175.057526 215.934846,176.039763 214.724007,176.039763 M214.724007,170.144461 C212.371897,170.144461 210.46539,172.052484 210.46539,174.404583 C210.46539,176.758564 212.371897,178.666587 214.724007,178.666587 C217.076118,178.666587 218.982625,176.758564 218.982625,174.404583 C218.982625,172.052484 217.076118,170.144461 214.724007,170.144461" id="Fill-48" fill="#2E1B36"></path>
                        <path d="M190.602935,251.476854 C189.392096,251.476854 188.41064,250.494617 188.41064,249.282816 C188.41064,248.072896 189.392096,247.090659 190.602935,247.090659 C191.813773,247.090659 192.795229,248.072896 192.795229,249.282816 C192.795229,250.494617 191.813773,251.476854 190.602935,251.476854 M190.602935,245.581552 C188.252704,245.581552 186.346197,247.489575 186.346197,249.841674 C186.346197,252.195655 188.252704,254.103678 190.602935,254.103678 C192.953165,254.103678 194.859672,252.195655 194.859672,249.841674 C194.859672,247.489575 192.953165,245.581552 190.602935,245.581552" id="Fill-49" fill="#2E1B36"></path>
                        <path d="M214.724007,236.389548 C213.513169,236.389548 212.533593,235.407312 212.533593,234.19551 C212.533593,232.98559 213.513169,232.003354 214.724007,232.003354 C215.934846,232.003354 216.916302,232.98559 216.916302,234.19551 C216.916302,235.407312 215.934846,236.389548 214.724007,236.389548 M214.724007,230.494247 C212.371897,230.494247 210.46539,232.40227 210.46539,234.754369 C210.46539,237.10835 212.371897,239.016373 214.724007,239.016373 C217.076118,239.016373 218.982625,237.10835 218.982625,234.754369 C218.982625,232.40227 217.076118,230.494247 214.724007,230.494247" id="Fill-50" fill="#2E1B36"></path>
                        <path d="M162.861003,175.516091 C162.861003,181.546874 160.450606,183.808652 156.684597,183.808652 C152.914828,183.808652 150.506312,181.546874 150.506312,175.516091 L150.506312,123.195996 C150.506312,117.165213 152.914828,114.901553 156.684597,114.901553 C160.450606,114.901553 162.861003,117.165213 162.861003,123.195996 L162.861003,175.516091 Z M172.201759,175.516091 L172.201759,123.195996 C172.201759,110.679065 164.66786,107.361664 156.684597,107.361664 C148.699454,107.361664 141.165556,110.679065 141.165556,123.195996 L141.165556,175.516091 C141.165556,188.031141 148.699454,191.348542 156.684597,191.348542 C164.66786,191.348542 172.201759,188.031141 172.201759,175.516091 L172.201759,175.516091 Z" id="Fill-51" fill="#2E1B36"></path>
                        <path d="M248.644413,191.352305 C252.410422,191.352305 254.820818,189.090526 254.820818,183.059744 L254.820818,115.652343 C254.820818,109.619679 252.410422,107.3579 248.644413,107.3579 C244.876524,107.3579 242.466127,109.619679 242.466127,115.652343 L242.466127,183.059744 C242.466127,189.090526 244.876524,191.352305 248.644413,191.352305" id="Fill-52" fill="#2E1B36"></path>
                        <path d="M143.914949,296.376358 C145.125788,296.376358 146.107244,297.358595 146.107244,298.570397 C146.107244,299.780316 145.125788,300.762553 143.914949,300.762553 C142.704111,300.762553 141.722654,299.780316 141.722654,298.570397 C141.722654,297.358595 142.704111,296.376358 143.914949,296.376358 M143.914949,303.389377 C146.26518,303.389377 148.171687,301.481355 148.171687,299.127374 C148.171687,296.775274 146.26518,294.867252 143.914949,294.867252 C141.564719,294.867252 139.658212,296.775274 139.658212,299.127374 C139.658212,301.481355 141.564719,303.389377 143.914949,303.389377" id="Fill-53" fill="#2E1B36"></path>
                        <path d="M162.829792,313.656949 C162.829792,312.445148 163.809368,311.462911 165.022087,311.462911 C166.231045,311.462911 167.212501,312.445148 167.212501,313.656949 C167.212501,314.868751 166.231045,315.850987 165.022087,315.850987 C163.809368,315.850987 162.829792,314.868751 162.829792,313.656949 M169.278824,314.215808 C169.278824,311.861827 167.372317,309.955686 165.022087,309.955686 C162.669976,309.955686 160.763469,311.861827 160.763469,314.215808 C160.763469,316.567907 162.669976,318.47593 165.022087,318.47593 C167.372317,318.47593 169.278824,316.567907 169.278824,314.215808" id="Fill-54" fill="#2E1B36"></path>
                        <path d="M168.036022,282.797595 C169.246861,282.797595 170.228317,283.779832 170.228317,284.991634 C170.228317,286.201553 169.246861,287.18379 168.036022,287.18379 C166.825183,287.18379 165.843727,286.201553 165.843727,284.991634 C165.843727,283.779832 166.825183,282.797595 168.036022,282.797595 M168.036022,289.810615 C170.386253,289.810615 172.292759,287.902592 172.292759,285.548611 C172.292759,283.196511 170.386253,281.288489 168.036022,281.288489 C165.685792,281.288489 163.779285,283.196511 163.779285,285.548611 C163.779285,287.902592 165.685792,289.810615 168.036022,289.810615" id="Fill-55" fill="#2E1B36"></path>
                        <path d="M142.407606,330.93754 C141.196767,330.93754 140.215311,329.955303 140.215311,328.743502 C140.215311,327.533582 141.196767,326.551345 142.407606,326.551345 C143.618444,326.551345 144.5999,327.533582 144.5999,328.743502 C144.5999,329.955303 143.618444,330.93754 142.407606,330.93754 M146.664343,329.302361 C146.664343,326.950261 144.757836,325.042239 142.407606,325.042239 C140.057375,325.042239 138.150868,326.950261 138.150868,329.302361 C138.150868,331.656342 140.057375,333.564365 142.407606,333.564365 C144.757836,333.564365 146.664343,331.656342 146.664343,329.302361" id="Fill-56" fill="#2E1B36"></path>
                        <path d="M164.337324,343.831748 C164.337324,342.619947 165.3169,341.63771 166.529618,341.63771 C167.738577,341.63771 168.720033,342.619947 168.720033,343.831748 C168.720033,345.04355 167.738577,346.025786 166.529618,346.025786 C165.3169,346.025786 164.337324,345.04355 164.337324,343.831748 M170.786356,344.390607 C170.786356,342.036626 168.879849,340.130485 166.529618,340.130485 C164.177508,340.130485 162.271001,342.036626 162.271001,344.390607 C162.271001,346.742706 164.177508,348.650729 166.529618,348.650729 C168.879849,348.650729 170.786356,346.742706 170.786356,344.390607" id="Fill-57" fill="#2E1B36"></path>
                        <path d="M146.246002,358.920182 C146.246002,357.708381 147.227458,356.726144 148.438297,356.726144 C149.649135,356.726144 150.628712,357.708381 150.628712,358.920182 C150.628712,360.131984 149.649135,361.112339 148.438297,361.112339 C147.227458,361.112339 146.246002,360.131984 146.246002,358.920182 M152.695034,359.479041 C152.695034,357.12506 150.788527,355.217037 148.438297,355.217037 C146.086186,355.217037 144.179679,357.12506 144.179679,359.479041 C144.179679,361.83114 146.086186,363.739163 148.438297,363.739163 C150.788527,363.739163 152.695034,361.83114 152.695034,359.479041" id="Fill-58" fill="#2E1B36"></path>
                        <path d="M169.543554,376.200585 C168.332715,376.200585 167.351259,375.218348 167.351259,374.006547 C167.351259,372.794745 168.332715,371.81439 169.543554,371.81439 C170.754393,371.81439 171.735849,372.794745 171.735849,374.006547 C171.735849,375.218348 170.754393,376.200585 169.543554,376.200585 M169.543554,370.305284 C167.193324,370.305284 165.286817,372.213306 165.286817,374.565406 C165.286817,376.919387 167.193324,378.82741 169.543554,378.82741 C171.893784,378.82741 173.800291,376.919387 173.800291,374.565406 C173.800291,372.213306 171.893784,370.305284 169.543554,370.305284" id="Fill-59" fill="#2E1B36"></path>
                        <path d="M349.212276,259.660654 C349.742488,258.221169 351.338765,257.483551 352.777106,258.014184 C354.217327,258.5467 354.954359,260.144245 354.422267,261.58373 C353.892055,263.025097 352.295779,263.760833 350.857438,263.2302 C349.417217,262.699566 348.682065,261.10202 349.212276,259.660654 L349.212276,259.660654 Z M360.209475,280.714765 L355.035207,278.366429 C356.334415,276.219432 357.524571,273.982116 358.626359,271.671413 L364.498175,273.701745 C363.176406,276.11594 361.738065,278.452986 360.209475,280.714765 L360.209475,280.714765 Z M340.646157,301.475333 L337.367115,298.186158 C340.053899,296.10502 342.582747,293.867703 344.932977,291.457272 L348.871963,294.319306 C346.275429,296.870864 343.526599,299.258715 340.646157,301.475333 L340.646157,301.475333 Z M288.346949,316.007543 C290.642654,315.798677 292.893235,315.529597 295.104332,315.204066 L295.335594,319.759612 C293.019207,320.006112 290.689659,320.173581 288.346949,320.235677 L288.346949,316.007543 Z M202.663189,391.146765 C186.548129,391.146765 173.689548,388.196291 163.418101,383.26441 C152.729253,340.584158 152.131355,304.811551 161.654488,274.270013 C173.928332,275.199562 187.868018,275.728314 202.663189,275.728314 C229.168147,275.728314 252.952479,274.040448 269.246157,271.362818 C277.759631,275.425364 282.563502,281.691356 282.563502,291.357543 C282.563502,318.651303 282.563502,391.146765 202.663189,391.146765 L202.663189,391.146765 Z M281.484276,476.140341 C281.527521,474.712146 281.555724,473.287715 281.565124,471.872692 L296.898028,471.872692 C296.845382,473.283952 296.758894,474.714028 296.674286,476.140341 L281.484276,476.140341 Z M247.114507,387.614852 C247.828977,388.681765 248.549088,389.743032 249.233475,390.815589 L243.241327,395.17544 C242.265512,393.764181 241.274654,392.354803 240.233032,390.954833 C241.972203,390.230387 244.371318,389.131486 247.114507,387.614852 L247.114507,387.614852 Z M256.039742,385.859245 C255.424922,384.961684 254.785659,384.073532 254.148276,383.185379 C258.098544,380.366623 262.219908,376.808368 265.899429,372.378894 C266.927889,373.75252 267.898065,375.137436 268.87388,376.520471 L256.039742,385.859245 Z M262.735078,396.582936 C261.161364,393.805577 259.48424,391.069616 257.714986,388.373169 L270.60741,378.989234 C272.703816,382.060135 274.647926,385.161142 276.486747,388.28473 L262.735078,396.582936 Z M268.219576,407.2991 C266.963613,404.572547 265.626802,401.881745 264.194101,399.224814 L278.019097,390.885211 C279.750747,393.956112 281.331982,397.060883 282.822968,400.188234 L268.219576,407.2991 Z M272.889954,418.741593 C271.838931,415.808055 270.7127,412.904623 269.471779,410.046352 L284.131576,402.909142 C285.628203,406.220898 286.953733,409.579696 288.187134,412.966719 L272.889954,418.741593 Z M276.62776,430.842673 C275.81176,427.719085 274.924313,424.623723 273.907134,421.581047 L289.223115,415.800528 C290.450876,419.411471 291.503779,423.076982 292.440111,426.78389 L276.62776,430.842673 Z M295.324313,441.218253 L279.432995,444.044535 C278.857659,440.574719 278.195834,437.138772 277.391115,433.763039 L293.160221,429.713665 C294.030747,433.492077 294.748977,437.32694 295.324313,441.218253 L295.324313,441.218253 Z M280.978507,456.489963 C280.70776,453.302398 280.378728,450.137413 279.923724,447.021352 L295.728553,444.212005 C296.185438,447.798486 296.525751,451.435772 296.738212,455.127627 L280.978507,456.489963 Z M265.250765,468.854478 C265.30529,466.165558 265.309051,463.5011 265.216922,460.879921 L272.560922,460.245795 C272.728258,463.100303 272.822267,465.9661 272.810986,468.854478 L265.250765,468.854478 Z M264.923613,476.140341 C265.021382,474.712146 265.117272,473.28207 265.175558,471.872692 L272.7433,471.872692 C272.707576,473.291478 272.656811,474.714028 272.577843,476.140341 L264.923613,476.140341 Z M264.350157,449.791184 L271.378286,448.541749 C271.797567,451.4226 272.124719,454.320387 272.357862,457.23699 L265.055226,457.865471 C264.899171,455.140799 264.671668,452.448116 264.350157,449.791184 L264.350157,449.791184 Z M268.911484,435.940142 C269.69176,439.125826 270.355465,442.334089 270.900719,445.561169 L263.938396,446.801196 C263.487152,443.709597 262.947539,440.651868 262.265032,437.644944 L268.911484,435.940142 Z M265.655005,424.69899 C266.581935,427.453768 267.416737,430.227364 268.166931,433.014131 L261.52612,434.720814 C260.873696,432.148558 260.157346,429.600765 259.328184,427.086841 L265.655005,424.69899 Z M261.543041,413.907558 C262.671152,416.540028 263.690212,419.191314 264.649106,421.85389 L258.324166,424.241742 C257.436719,421.767333 256.483465,419.311742 255.423041,416.886257 L261.543041,413.907558 Z M249.263558,404.70991 C247.906065,402.352165 246.454562,400.009474 244.918452,397.683719 L250.824111,393.387845 C252.392184,395.935639 253.883171,398.498486 255.283908,401.078268 L249.263558,404.70991 Z M256.707207,403.744608 C257.983853,406.2002 259.170249,408.672726 260.296479,411.156543 L254.165198,414.142768 C253.099134,411.85841 251.957862,409.592868 250.735742,407.346142 L256.707207,403.744608 Z M296.969475,468.854478 L281.561364,468.854478 C281.529401,465.704547 281.427871,462.579077 281.226691,459.496887 L296.881106,458.145841 C297.018359,461.6627 297.044682,465.234127 296.969475,468.854478 L296.969475,468.854478 Z M162.107613,395.17544 L156.115465,390.815589 C156.801733,389.743032 157.519963,388.681765 158.232553,387.614852 C160.977622,389.131486 163.376737,390.232268 165.115908,390.954833 C164.074286,392.354803 163.083429,393.764181 162.107613,395.17544 L162.107613,395.17544 Z M108.450912,471.872692 L123.783816,471.872692 C123.793217,473.287715 123.8233,474.712146 123.864664,476.140341 L108.674654,476.140341 C108.590046,474.714028 108.503558,473.283952 108.450912,471.872692 L108.450912,471.872692 Z M136.47506,376.520471 C137.452756,375.137436 138.421051,373.75252 139.451392,372.378894 C143.129032,376.808368 147.250396,380.366623 151.200664,383.183497 C150.561401,384.073532 149.924018,384.961684 149.307318,385.859245 L136.47506,376.520471 Z M142.613862,396.582936 L128.862194,388.28473 C130.702894,385.163024 132.645124,382.060135 134.74153,378.989234 L147.635834,388.373169 C145.8647,391.069616 144.187576,393.807459 142.613862,396.582936 L142.613862,396.582936 Z M150.065032,401.078268 C151.46765,398.500368 152.956756,395.935639 154.524829,393.387845 L160.428608,397.6856 C158.894378,400.009474 157.442876,402.352165 156.085382,404.70991 L150.065032,401.078268 Z M145.052461,411.156543 C146.178691,408.672726 147.366968,406.2002 148.643613,403.744608 L154.613198,407.346142 C153.389198,409.592868 152.249806,411.85841 151.183742,414.140887 L145.052461,411.156543 Z M140.699834,421.85389 C141.658728,419.191314 142.677788,416.540028 143.805899,413.905677 L149.925899,416.886257 C148.867355,419.311742 147.912221,421.767333 147.024774,424.23986 L140.699834,421.85389 Z M137.182009,433.014131 C137.932203,430.227364 138.767005,427.453768 139.695816,424.69899 L146.020756,427.086841 C145.193475,429.600765 144.475244,432.148558 143.82094,434.720814 L137.182009,433.014131 Z M141.410544,446.801196 L134.448221,445.561169 C134.995355,442.334089 135.65718,439.125826 136.437456,435.940142 L143.083908,437.644944 C142.401401,440.651868 141.861788,443.709597 141.410544,446.801196 L141.410544,446.801196 Z M132.788018,460.245795 L140.132018,460.879921 C140.039889,463.5011 140.04177,466.165558 140.100055,468.854478 L132.537954,468.854478 C132.526673,465.9661 132.620682,463.100303 132.788018,460.245795 L132.788018,460.245795 Z M140.293714,457.865471 L132.991078,457.23699 C133.226101,454.320387 133.551373,451.4226 133.972535,448.541749 L140.998783,449.791184 C140.677272,452.448116 140.44977,455.140799 140.293714,457.865471 L140.293714,457.865471 Z M125.425217,447.021352 C124.972092,450.137413 124.6393,453.302398 124.372313,456.489963 L108.610728,455.127627 C108.823189,451.435772 109.165382,447.798486 109.622267,444.212005 L125.425217,447.021352 Z M127.957825,433.763039 C127.151226,437.138772 126.491281,440.574719 125.915945,444.044535 L110.024627,441.218253 C110.599963,437.32694 111.318194,433.492077 112.188719,429.713665 L127.957825,433.763039 Z M131.441806,421.581047 C130.422747,424.623723 129.53906,427.719085 128.72306,430.842673 L112.91071,426.78389 C113.847041,423.076982 114.898065,419.411471 116.127705,415.800528 L131.441806,421.581047 Z M122.525972,400.190116 C124.018839,397.060883 125.600074,393.956112 127.331724,390.885211 L141.154839,399.222932 C139.722138,401.879864 138.385327,404.572547 137.131244,407.2991 L122.525972,400.190116 Z M135.879041,410.046352 C134.63624,412.904623 133.510009,415.808055 132.458986,418.741593 L117.163687,412.966719 C118.397088,409.579696 119.722618,406.220898 121.219244,402.909142 L135.879041,410.046352 Z M108.467834,458.143959 L124.122249,459.496887 C123.921069,462.579077 123.821419,465.704547 123.787576,468.854478 L108.379465,468.854478 C108.304258,465.234127 108.3287,461.6627 108.467834,458.143959 L108.467834,458.143959 Z M132.771097,476.140341 C132.692129,474.714028 132.641364,473.291478 132.605641,471.872692 L140.173382,471.872692 C140.231668,473.28207 140.327558,474.712146 140.425327,476.140341 L132.771097,476.140341 Z M136.082101,271.362818 C142.512332,272.420322 150.112037,273.319765 158.586028,274.025394 C149.292276,304.343013 149.730359,339.615093 159.864553,381.412837 C122.774157,360.716245 122.764756,312.490684 122.764756,291.357543 C122.764756,281.691356 127.566747,275.425364 136.082101,271.362818 L136.082101,271.362818 Z M110.97976,319.75773 L111.212903,315.204066 C113.42212,315.529597 115.674581,315.798677 117.970286,316.007543 L117.970286,320.235677 C115.625696,320.173581 113.296147,320.006112 110.97976,319.75773 L110.97976,319.75773 Z M57.4433917,294.319306 L61.3861382,291.457272 C63.7344885,293.867703 66.2633364,296.10502 68.9501198,298.186158 L65.6691982,301.475333 C62.7925161,299.258715 60.0418065,296.870864 57.4433917,294.319306 L57.4433917,294.319306 Z M47.6889954,271.671413 C48.7926636,273.982116 49.9828203,276.219432 51.2820276,278.366429 L46.1096406,280.714765 C44.5791705,278.452986 43.1408295,276.11594 41.8190599,273.701745 L47.6889954,271.671413 Z M75.5777696,267.337906 L58.6072258,275.041501 C57.4133088,273.137242 56.2964793,271.142661 55.2623779,269.055879 L72.3964977,263.132352 C73.389235,264.592535 74.4647005,265.983097 75.5777696,267.337906 L75.5777696,267.337906 Z M100.114175,304.647845 L104.711226,286.4012 C106.318783,286.858448 107.954544,287.223494 109.599705,287.539616 L108.622009,306.789196 C105.703963,306.17765 102.872406,305.456967 100.114175,304.647845 L100.114175,304.647845 Z M98.1437419,312.462459 C101.39082,313.361902 104.741309,314.13339 108.21777,314.739291 L107.980866,319.385158 C104.256221,318.856406 100.580461,318.092444 96.9742673,317.100799 L98.1437419,312.462459 Z M84.2096959,307.434612 C87.7087189,309.047211 91.3844793,310.460352 95.236977,311.655219 L94.0806636,316.252161 C89.9085346,314.953803 85.8416959,313.356257 81.9139908,311.474577 L84.2096959,307.434612 Z M81.507871,306.083566 L79.2121659,310.125413 C75.3540276,308.117661 71.6463041,305.833303 68.1134378,303.294917 C69.1042949,302.303272 70.2098433,301.1912 71.3981198,300.000097 C74.5587097,302.250585 77.9336406,304.275272 81.507871,306.083566 L81.507871,306.083566 Z M97.6060092,283.855287 C98.9935853,284.453661 100.401843,285.003112 101.832664,285.492348 L97.2299724,303.752165 C94.1295484,302.739822 91.1325346,301.595761 88.2596129,300.303047 L97.6060092,283.855287 Z M90.9257143,280.451329 C92.2117604,281.211528 93.5166083,281.934093 94.8552995,282.594562 L85.5258249,299.014097 C82.6134194,297.568967 79.8363871,295.962013 77.1984885,294.187589 C82.7393917,288.632871 88.4194286,282.946436 90.9257143,280.451329 L90.9257143,280.451329 Z M83.5873548,275.338806 C85.1009032,276.578833 86.6821382,277.730421 88.3084977,278.810505 C87.7068387,279.403234 86.9810876,280.125799 86.0898802,281.017715 C83.6494009,283.45449 80.4004424,286.707913 77.1533641,289.961337 L74.7091244,292.411284 C72.3344516,290.651913 70.0819908,288.747654 67.9667834,286.677806 L83.5873548,275.338806 Z M59.323576,289.2256 L55.3056221,292.142203 C52.6470415,289.344146 50.1614378,286.369211 47.8732535,283.228688 L52.9253088,280.936803 C54.8694194,283.866577 57.0015484,286.632646 59.323576,289.2256 L59.323576,289.2256 Z M60.2899908,277.593058 L77.6459724,269.712585 C78.7966452,270.96202 79.9849217,272.175703 81.2371244,273.316001 L65.8214931,284.50823 C63.8360184,282.366879 62.0009585,280.052413 60.2899908,277.593058 L60.2899908,277.593058 Z M117.970286,308.379215 C115.813714,308.083791 113.694747,307.743207 111.609622,307.359345 L112.592959,288.032616 C114.373493,288.277234 116.163429,288.461639 117.970286,288.535024 L117.970286,308.379215 Z M94.8741014,179.4202 C94.8741014,126.799035 146.050839,11.5612263 201.155281,9.48385229 L201.155281,206.695142 L172.753217,206.695142 C168.182488,206.695142 164.461604,210.417104 164.461604,214.991467 C164.461604,219.567711 168.182488,223.289673 172.753217,223.289673 L201.155281,223.289673 L201.155281,258.874112 C157.290581,258.721696 129.416848,251.989047 113.533051,237.710864 C100.279631,225.797952 94.8741014,208.909879 94.8741014,179.4202 L94.8741014,179.4202 Z M73.2632627,187.788028 L73.0846452,187.042883 C71.5710968,180.724203 71.5146912,174.493963 72.9154286,168.527158 L73.1203687,167.652177 C74.083023,164.056287 76.9879078,161.551772 80.2255853,161.551772 L80.5527373,161.551772 L80.5527373,193.990043 L80.4004424,193.990043 C77.1552442,193.990043 74.2409585,191.444131 73.2632627,187.788028 L73.2632627,187.788028 Z M49.4507281,180.120184 C49.4751705,179.975295 49.4845714,179.830406 49.5052535,179.685516 C49.531576,179.486058 49.561659,179.288482 49.5804608,179.087142 C49.6218249,178.648711 49.6481475,178.21028 49.6481475,177.769967 C49.6481475,177.329654 49.6218249,176.891223 49.5804608,176.45091 C49.561659,176.251452 49.531576,176.055757 49.5071336,175.858181 C49.4864516,175.71141 49.4751705,175.564639 49.4507281,175.419749 L67.8389309,171.024146 C67.8351705,171.048608 67.8351705,171.07307 67.8314101,171.097532 C67.3538433,174.377299 67.2579539,177.711635 67.5456221,181.081723 C67.5512627,181.130646 67.5569032,181.17957 67.5606636,181.226612 C67.6546728,182.269062 67.7862857,183.315276 67.9517419,184.365253 C67.9611429,184.427348 67.9649032,184.487562 67.9743041,184.549658 L49.4507281,180.120184 Z M35.1989309,187.701471 C29.7275945,187.701471 25.275318,183.247535 25.275318,177.769967 C25.275318,172.292398 29.7275945,167.836581 35.1989309,167.836581 C39.525235,167.836581 43.2028756,170.62523 44.5584885,174.495845 L44.5603687,174.497726 C44.7408664,175.015188 44.8743594,175.540177 44.9683687,176.067047 C44.9758894,176.115971 44.9834101,176.166776 44.9909309,176.2157 C45.0755392,176.733161 45.124424,177.252505 45.124424,177.769967 C45.124424,178.28931 45.0755392,178.808654 44.9909309,179.324234 C44.9834101,179.373158 44.9758894,179.422081 44.9683687,179.472887 C44.8743594,179.999757 44.7408664,180.522864 44.5603687,181.040326 L44.5566083,181.051616 C43.197235,184.918467 39.5233548,187.701471 35.1989309,187.701471 L35.1989309,187.701471 Z M310.454157,179.4202 C310.454157,231.826852 293.953659,258.576806 204.171097,258.874112 L204.171097,223.289673 L232.573161,223.289673 C237.14577,223.289673 240.864774,219.567711 240.864774,214.991467 C240.864774,210.417104 237.14577,206.695142 232.573161,206.695142 L204.171097,206.695142 L204.171097,9.48385229 C259.277419,11.5612263 310.454157,126.799035 310.454157,179.4202 L310.454157,179.4202 Z M334.381382,167.65594 L334.582562,168.510223 L334.588203,168.538448 C335.981419,174.493963 335.926894,180.70915 334.422747,187.012776 C334.417106,187.031593 334.413346,187.05041 334.409585,187.069226 L334.240369,187.774856 C333.268313,191.438486 330.348387,193.990043 327.099429,193.990043 L326.947134,193.990043 L326.947134,161.551772 L327.274286,161.551772 C330.513843,161.551772 333.420608,164.058169 334.381382,167.65594 L334.381382,167.65594 Z M358.049143,175.419749 C358.026581,175.557112 358.01718,175.696356 357.998378,175.8356 C357.970175,176.042585 357.938212,176.247688 357.91941,176.458436 C357.878046,176.894986 357.853604,177.333417 357.853604,177.769967 C357.853604,178.208398 357.878046,178.644948 357.91941,179.081497 C357.938212,179.292245 357.970175,179.49923 357.998378,179.708097 C358.01718,179.845459 358.026581,179.982822 358.049143,180.120184 L339.527447,184.549658 C339.536848,184.481917 339.540608,184.41794 339.550009,184.352081 C339.715465,183.311513 339.847078,182.272826 339.937327,181.239784 L339.954249,181.076077 C340.241917,177.704108 340.146028,174.36789 339.666581,171.086242 C339.6647,171.065543 339.6647,171.044845 339.66094,171.024146 L358.049143,175.419749 Z M372.30094,167.836581 C377.772276,167.836581 382.226433,172.292398 382.226433,177.769967 C382.226433,183.247535 377.772276,187.701471 372.30094,187.701471 C367.993438,187.701471 364.328959,184.937284 362.960184,181.093013 L362.941382,181.040326 C362.759005,180.522864 362.625512,179.997875 362.531502,179.469123 C362.523982,179.422081 362.516461,179.375039 362.50894,179.327997 C362.424332,178.808654 362.375447,178.28931 362.375447,177.769967 C362.375447,177.250623 362.424332,176.73128 362.50894,176.213818 L362.531502,176.07081 C362.625512,175.542058 362.759005,175.01707 362.941382,174.497726 L362.956424,174.454448 C364.323318,170.606413 367.989677,167.836581 372.30094,167.836581 L372.30094,167.836581 Z M232.573161,211.220581 C234.650765,211.220581 236.342931,212.912211 236.342931,214.991467 C236.342931,217.072604 234.650765,218.764234 232.573161,218.764234 L172.753217,218.764234 C170.675613,218.764234 168.985327,217.072604 168.985327,214.991467 C168.985327,212.912211 170.675613,211.220581 172.753217,211.220581 L232.573161,211.220581 Z M293.722396,288.032616 L294.705733,307.359345 C292.620608,307.743207 290.501641,308.085673 288.346949,308.379215 L288.346949,288.535024 C290.151926,288.461639 291.943742,288.277234 293.722396,288.032616 L293.722396,288.032616 Z M329.163871,289.961337 C325.914912,286.707913 322.667834,283.45449 320.225475,281.017715 C319.334267,280.125799 318.610396,279.403234 318.006857,278.812387 C319.635097,277.730421 321.214452,276.578833 322.72988,275.338806 L338.350452,286.677806 C336.237124,288.747654 333.982783,290.651913 331.608111,292.411284 L329.163871,289.961337 Z M320.79141,299.014097 L311.460055,282.594562 C312.798747,281.934093 314.105475,281.211528 315.389641,280.451329 C317.895926,282.946436 323.577843,288.632871 329.118747,294.187589 C326.480848,295.962013 323.703816,297.568967 320.79141,299.014097 L320.79141,299.014097 Z M324.809364,306.083566 C328.383594,304.275272 331.758525,302.250585 334.917235,300.000097 C336.105512,301.1912 337.21294,302.30139 338.203797,303.294917 C334.670931,305.833303 330.963207,308.117661 327.105069,310.125413 L324.809364,306.083566 Z M311.080258,311.655219 C314.932756,310.460352 318.610396,309.047211 322.107539,307.434612 L324.403244,311.474577 C320.475539,313.356257 316.4087,314.953803 312.238452,316.252161 L311.080258,311.655219 Z M308.173493,312.462459 L309.342968,317.100799 C305.736774,318.092444 302.061014,318.856406 298.334488,319.385158 L298.099465,314.739291 C301.575926,314.13339 304.924535,313.361902 308.173493,312.462459 L308.173493,312.462459 Z M304.484571,285.490467 C305.915392,285.003112 307.32365,284.453661 308.709346,283.855287 L318.055742,300.303047 C315.18282,301.595761 312.189567,302.739822 309.087263,303.752165 L304.484571,285.490467 Z M306.20306,304.647845 C303.442949,305.456967 300.611392,306.17765 297.697106,306.789196 L296.71941,287.539616 C298.364571,287.223494 299.996571,286.858448 301.606009,286.399318 L306.20306,304.647845 Z M353.391926,280.934921 L358.443982,283.228688 C356.155797,286.369211 353.670194,289.344146 351.009733,292.144085 L346.991779,289.2256 C349.315687,286.632646 351.445935,283.866577 353.391926,280.934921 L353.391926,280.934921 Z M340.493862,284.50823 L325.080111,273.316001 C326.330433,272.175703 327.51871,270.96202 328.669382,269.712585 L346.027244,277.593058 C344.316276,280.052413 342.479336,282.366879 340.493862,284.50823 L340.493862,284.50823 Z M333.918857,263.132352 L351.052977,269.055879 C350.020756,271.142661 348.903926,273.137242 347.708129,275.041501 L330.739465,267.337906 C331.854415,265.983097 332.928,264.592535 333.918857,263.132352 L333.918857,263.132352 Z M53.5382488,258.014184 C54.9765899,257.483551 56.5728664,258.221169 57.1049585,259.660654 C57.6351705,261.10202 56.8981382,262.699566 55.4597972,263.2302 C54.0214562,263.760833 52.4232995,263.025097 51.8949677,261.58373 C51.3628756,260.144245 52.0999078,258.5467 53.5382488,258.014184 L53.5382488,258.014184 Z M373.344442,218.690848 L368.984295,230.528494 C373.041733,234.3897 374.656811,240.443062 372.599889,246.026005 C369.843539,253.509444 361.516203,257.353715 354.036829,254.595173 C346.561217,251.834749 342.72,243.500791 345.47823,236.017352 C347.533272,230.43441 352.692498,226.879917 358.284166,226.578848 L362.646194,214.743085 C350.57729,213.074035 338.549751,219.930875 334.161401,231.840024 C330.244977,242.471513 333.582304,253.981745 341.637014,261.0117 L332.042433,257.696181 L331.083539,259.207169 C321.381788,274.514631 304.172461,284.028402 286.156535,284.052864 C284.567779,278.080413 280.974747,273.549329 275.902009,270.126555 C285.7993,268.041654 291.609069,265.512677 291.609069,262.786123 C291.609069,259.670062 284.024406,256.817436 271.427171,254.583883 C297.420719,245.363654 308.765751,229.038203 312.924719,206.185207 L316.647484,206.185207 C321.423152,206.185207 325.427945,202.92802 326.595539,198.515482 L327.099429,198.515482 C332.239853,198.515482 336.816221,194.821745 338.459502,189.457077 L359.489364,184.42923 C361.901641,189.058161 366.733714,192.228791 372.30094,192.228791 C380.267281,192.228791 386.748276,185.742642 386.748276,177.769967 C386.748276,169.797291 380.267281,163.311142 372.30094,163.311142 C366.735594,163.311142 361.901641,166.481772 359.491244,171.108822 L338.645641,166.128016 C337.053124,160.744532 332.450433,157.024452 327.274286,157.024452 L326.595539,157.024452 C325.427945,152.611913 321.423152,149.354726 316.647484,149.354726 L311.084018,149.354726 C305.706691,125.395303 295.143816,97.3526347 281.839631,73.094024 C267.871742,47.6292569 239.014673,4.90760802 202.663189,4.90760802 C166.311705,4.90760802 137.454636,47.6292569 123.488627,73.094024 C110.184442,97.3507531 99.6196866,125.395303 94.2423594,149.354726 L90.8542673,149.354726 C86.0785991,149.354726 82.0719263,152.611913 80.906212,157.024452 L80.2255853,157.024452 C75.0531982,157.024452 70.4486267,160.744532 68.8542304,166.126135 L48.0105069,171.110703 C45.5982304,166.481772 40.7661567,163.311142 35.1989309,163.311142 C27.2325899,163.311142 20.7534747,169.797291 20.7534747,177.769967 C20.7534747,185.742642 27.2325899,192.228791 35.1989309,192.228791 C40.7661567,192.228791 45.5982304,189.058161 48.0105069,184.42923 L69.0384885,189.457077 C70.6836498,194.821745 75.2618986,198.515482 80.4004424,198.515482 L80.906212,198.515482 C82.0719263,202.92802 86.0785991,206.185207 90.8542673,206.185207 L92.3978986,206.185207 C94.8214562,219.195139 99.9487189,231.584116 110.509714,241.07907 C116.688,246.630024 124.509567,251.095249 134.171834,254.536841 C121.412903,256.776039 113.719189,259.649364 113.719189,262.786123 C113.719189,265.512677 119.527078,268.041654 129.424369,270.126555 C124.362912,273.543684 120.76988,278.063478 119.179244,284.020875 C101.522433,283.657711 84.7568295,274.236142 75.2299355,259.207169 L74.2729217,257.696181 L64.6802212,261.0117 C72.7349309,253.981745 76.0722581,242.471513 72.1539539,231.840024 C67.7656037,219.930875 55.7399447,213.074035 43.6710415,214.743085 L48.0330691,226.578848 C53.6247373,226.879917 58.7820829,230.43441 60.8390046,236.017352 C63.5953548,243.500791 59.7560184,251.834749 52.2785253,254.595173 C44.7991521,257.353715 36.4736959,253.509444 33.7154654,246.026005 C31.6585438,240.443062 33.2755023,234.3897 37.3329401,230.528494 L32.9709124,218.690848 C22.7107465,225.263555 18.0121659,238.292303 22.4005161,250.203333 C26.1759263,260.450959 35.6088111,266.96157 45.8539355,267.516665 L35.3925899,271.133253 L36.5714654,273.451482 C52.4515023,304.640318 85.2908018,324.791223 120.230267,324.791223 L120.25659,324.791223 C122.486488,339.319669 127.188829,355.050509 137.104922,367.996463 C112.623041,399.971841 101.810101,435.403864 104.122728,476.140341 L73.0357604,476.140341 C69.3054747,476.140341 66.2520553,479.194306 66.2520553,482.92944 L66.2520553,486.924245 L151.319115,486.924245 L151.319115,482.92944 C151.319115,479.341077 148.491318,476.409421 144.960332,476.183619 C142.687189,443.811207 150.849069,416.722551 170.530839,391.301062 L170.654931,391.143001 C179.683576,394.027616 190.255853,395.674085 202.663189,395.674085 C215.079926,395.674085 225.657843,394.025734 234.690249,391.139238 L234.818101,391.301062 C254.501751,416.724432 262.663631,443.813089 260.388608,476.183619 C256.857622,476.409421 254.029825,479.342959 254.029825,482.92944 L254.029825,486.924245 L339.096885,486.924245 L339.096885,482.92944 C339.096885,479.194306 336.043465,476.140341 332.31318,476.140341 L301.228092,476.140341 C303.540719,435.398219 292.722138,399.960551 268.234618,367.98141 C278.141309,355.037337 282.84177,339.314024 285.071668,324.791223 L286.085088,324.791223 C321.026433,324.791223 353.865733,304.640318 369.74577,273.451482 L370.924645,271.133253 L360.461419,267.516665 C370.710304,266.96157 380.139429,260.450959 383.916719,250.203333 C388.305069,238.292303 383.606488,225.263555 373.344442,218.690848 L373.344442,218.690848 Z" id="Fill-60" fill="#2E1B36"></path>
                        <path d="M381.616125,249.354508 C378.291959,258.37716 369.93454,264.545305 360.328678,265.066531 L359.661213,269.838469 L367.462098,272.533034 C351.956218,302.796084 320.038208,322.337324 286.083959,322.337324 L282.966614,322.337324 L282.646982,324.418462 C280.010964,341.596313 274.505784,355.752187 266.287499,366.487168 L265.146227,367.97934 L266.287499,369.473393 C290.430946,401.000931 301.059628,435.84587 298.778964,475.999027 L298.630429,478.593863 L332.312052,478.593863 C334.701766,478.593863 336.645876,480.539519 336.645876,482.929252 L336.645876,484.470347 L256.482337,484.470347 L256.482337,482.929252 C256.482337,480.667473 258.268512,478.778267 260.543535,478.631496 L262.683185,478.492252 L262.83172,476.354664 C265.157508,443.284149 256.869655,415.77776 236.755443,389.799294 L235.7063,388.442603 L233.942688,388.79824 C224.769268,391.731779 214.243996,393.218305 202.663941,393.218305 C191.089526,393.218305 180.571775,391.73366 171.400236,388.803885 L169.781397,388.290187 L168.728494,389.624298 C148.477029,415.77776 140.191056,443.284149 142.516844,476.354664 L142.665379,478.492252 L144.803148,478.631496 C147.083812,478.778267 148.866227,480.667473 148.866227,482.929252 L148.866227,484.470347 L68.7045677,484.470347 L68.7045677,482.929252 C68.7045677,480.539519 70.6486783,478.593863 73.0365124,478.593863 L106.718135,478.593863 L106.57148,475.999027 C104.290817,435.851515 114.915738,401.012221 139.051665,369.488447 L140.192936,367.994393 L139.051665,366.502221 C130.825858,355.765359 125.320678,341.60384 122.6809,324.420344 L122.361268,322.337324 L120.257342,322.337324 C86.2748903,322.337324 54.3606415,302.796084 38.8566415,272.531153 L46.6537659,269.838469 L45.9881806,265.066531 C36.3804387,264.545305 28.0248995,258.37716 24.7007336,249.354508 C21.1829088,239.808748 24.1724018,229.030489 31.7984295,222.598908 L34.5058949,229.944985 C30.4917014,234.579561 29.2677014,241.052538 31.4129917,246.876336 C33.853471,253.496084 40.2366968,257.942492 47.2930286,257.940611 C49.2841438,257.940611 51.2470562,257.590618 53.1272406,256.896279 C57.3595355,255.334485 60.730706,252.212779 62.6240516,248.105073 C64.5173972,243.997366 64.6997751,239.402305 63.1392221,235.166645 C60.9939318,229.346611 55.8647889,225.216324 49.8049548,224.296183 L47.0974894,216.948225 C47.1576553,216.948225 47.2178212,216.948225 47.2761069,216.948225 C57.3125309,216.948225 66.3844203,223.274431 69.8514802,232.690355 C73.2809364,241.989615 70.5546691,252.630511 63.0696553,259.159939 L65.4819318,263.331622 L73.2395724,260.648347 C83.1650654,276.204191 100.731628,286.094298 119.129231,286.474397 L121.05266,286.512031 L121.547148,284.654813 C122.919683,279.521592 125.9449,275.434584 130.795775,272.162344 L135.597766,268.92021 L129.92901,267.727225 C119.153674,265.454156 116.733876,263.356084 116.254429,262.785935 C116.799683,262.142401 119.82678,259.545683 134.593747,256.952729 L143.757766,255.345775 L134.992347,252.224069 C125.615867,248.884088 118.145895,244.640901 112.148107,239.251771 C103.179628,231.190656 97.5089917,220.227992 94.809047,205.735298 L94.4367705,203.729427 L90.8531392,203.729427 C87.3033512,203.729427 84.1878857,201.328405 83.2778765,197.886813 L82.7927889,196.061584 L80.4011945,196.061584 C76.3512774,196.061584 72.7281622,193.118637 71.3857106,188.736206 L70.97207,187.39645 L46.7233327,181.597115 L45.8377659,183.292508 C43.7507613,187.291076 39.6764018,189.774893 35.1996829,189.774893 C28.5851945,189.774893 23.2041069,184.389527 23.2041069,177.769779 C23.2041069,171.150031 28.5851945,165.764664 35.1996829,165.764664 C39.678282,165.764664 43.7507613,168.246599 45.8358857,172.245168 L46.7176922,173.942443 L70.7990931,168.184504 L71.2052129,166.82405 C72.5063005,162.430328 76.1312959,159.479855 80.2263373,159.479855 L82.7927889,159.479855 L83.2778765,157.652744 C84.1878857,154.211153 87.3033512,151.808248 90.8531392,151.808248 L96.2041438,151.808248 L96.634706,149.892698 C102.126724,125.430866 112.697121,97.8699084 125.638429,74.2736489 C139.343093,49.2849466 167.575941,7.36301145 202.663941,7.36301145 C237.750061,7.36301145 265.982909,49.2849466 279.687572,74.2755305 C292.632641,97.8717901 303.203038,125.43463 308.691296,149.892698 L309.119978,151.808248 L316.646356,151.808248 C320.198024,151.808248 323.313489,154.211153 324.225379,157.652744 L324.706706,159.479855 L327.275038,159.479855 C331.368199,159.479855 334.993194,162.430328 336.294282,166.82405 L336.694761,168.184504 L360.781803,173.942443 L361.66737,172.245168 C363.748734,168.246599 367.823093,165.764664 372.301692,165.764664 C378.9143,165.764664 384.297268,171.150031 384.297268,177.769779 C384.297268,184.389527 378.9143,189.774893 372.301692,189.774893 C367.823093,189.774893 363.746853,187.291076 361.663609,183.294389 L360.779923,181.597115 L336.529305,187.39645 L336.115665,188.738088 C334.775093,193.118637 331.151978,196.061584 327.100181,196.061584 L324.706706,196.061584 L324.225379,197.886813 C323.313489,201.328405 320.198024,203.729427 316.646356,203.729427 L310.87983,203.729427 L310.515075,205.744706 C306.156807,229.677786 293.851001,244.025592 270.608162,252.271111 L261.844623,255.379645 L270.99736,256.999771 C285.534946,259.57579 288.531959,262.146164 289.073453,262.785935 C288.594006,263.356084 286.172328,265.454156 275.396992,267.727225 L269.726356,268.92021 L274.532107,272.162344 C279.392383,275.440229 282.4176,279.536645 283.786374,284.683038 L284.273342,286.510149 L286.161047,286.508267 C304.95913,286.480042 322.918651,276.574882 333.075406,260.648347 L340.836807,263.331622 L343.249084,259.159939 C335.76031,252.630511 333.034042,241.991496 336.463499,232.690355 C339.932439,223.274431 349.004328,216.948225 359.038872,216.948225 C359.097158,216.948225 359.159204,216.948225 359.21937,216.948225 L356.511904,224.296183 C350.45395,225.216324 345.321047,229.346611 343.175757,235.168527 C339.953121,243.922099 344.444881,253.667317 353.191499,256.896279 C355.071683,257.590618 357.034595,257.940611 359.02383,257.940611 C366.083923,257.940611 372.463388,253.494202 374.901987,246.876336 C377.047277,241.052538 375.823277,234.577679 371.812844,229.944985 L374.518429,222.598908 C382.142577,229.030489 385.13207,239.808748 381.616125,249.354508 M375.988734,214.556611 L370.85019,211.269317 L363.263646,231.860534 L365.600715,234.084679 C368.377747,236.728439 369.31784,240.747706 368.001711,244.32666 C366.621655,248.067439 363.011701,250.579481 359.02195,250.579481 C357.903241,250.579481 356.795812,250.380023 355.735388,249.988634 C353.347554,249.108008 351.442927,247.344874 350.373102,245.022882 C349.301397,242.699008 349.199867,240.104172 350.081674,237.714439 C351.401563,234.133603 354.721969,231.68742 358.546264,231.480435 L361.767019,231.307321 L369.355443,210.716103 L363.316291,209.880637 C361.902393,209.684943 360.462171,209.587095 359.035112,209.587095 C345.935867,209.587095 334.092586,217.847668 329.561342,230.142561 C326.895241,237.375737 327.079499,245.227985 329.723038,252.195844 L326.946006,256.576393 C318.757803,269.49224 304.678982,277.87324 289.603665,279.009775 C288.63913,276.719771 287.377526,274.591592 285.826374,272.629 C291.989618,270.583615 296.511462,267.66513 296.511462,262.785935 C296.511462,258.697046 293.465563,255.661897 286.469397,253.195015 C302.687867,244.072634 312.536273,230.390943 316.926503,211.090557 C322.461766,210.988947 327.414171,207.880412 329.990024,203.157397 C335.166171,202.192095 339.63725,198.675237 342.075849,193.639863 L357.305342,189.996931 C360.939738,194.473447 366.401674,197.137905 372.299812,197.137905 C382.971738,197.137905 391.652549,188.448309 391.652549,177.769779 C391.652549,167.091248 382.971738,158.403534 372.299812,158.403534 C366.401674,158.403534 360.939738,161.064229 357.305342,165.540744 L342.284549,161.9505 C339.84407,156.817279 335.277102,153.253378 329.967462,152.344527 C327.346485,147.561298 322.277508,144.447118 316.644476,144.447118 L314.976752,144.447118 C309.131259,120.323989 298.728199,93.6850534 286.138485,70.7323282 C271.647904,44.3154313 241.536752,0 202.663941,0 C163.78737,0 133.676218,44.3154313 119.187517,70.7323282 C106.597803,93.6869351 96.1909825,120.331515 90.3492498,144.454645 C84.9192774,144.633405 80.0759226,147.704305 77.5320332,152.344527 C72.2242728,153.25526 67.6591853,156.817279 65.2168258,161.9505 L50.194153,165.540744 C46.5597567,161.064229 41.0978212,158.403534 35.1996829,158.403534 C24.5296369,158.403534 15.8488258,167.091248 15.8488258,177.769779 C15.8488258,188.448309 24.5296369,197.137905 35.1996829,197.137905 C41.0978212,197.137905 46.5597567,194.473447 50.194153,189.996931 L65.4255263,193.639863 C67.8641253,198.675237 72.3333235,202.192095 77.509471,203.157397 C79.7356092,207.242523 83.742282,210.117729 88.3637751,210.887336 C91.637176,225.178691 97.8305032,236.278718 107.233305,244.72934 C110.732328,247.873626 114.648752,250.660393 119.055904,253.125393 C111.918724,255.605447 108.81454,258.661294 108.81454,262.785935 C108.81454,267.66513 113.336383,270.583615 119.499628,272.629 C117.972918,274.561485 116.726356,276.657676 115.765582,278.908164 C101.055019,277.489378 87.342835,269.151656 79.3708535,256.574511 L76.5938212,252.195844 C79.2373604,245.227985 79.4216184,237.375737 76.7555171,230.142561 C72.2242728,217.845786 60.3809917,209.587095 47.2798673,209.587095 C45.8546876,209.587095 44.4144664,209.684943 42.9986876,209.880637 L36.9614157,210.716103 L44.5460793,231.307321 L47.7687152,231.480435 C51.5948903,231.68742 54.9190562,234.133603 56.2370654,237.714439 C58.0589641,242.659492 55.5225954,248.167168 50.581471,249.988634 C49.5191668,250.380023 48.4117382,250.579481 47.2930286,250.579481 C43.3013972,250.579481 39.6952037,248.067439 38.3189088,244.328542 C36.9971392,240.745824 37.9372313,236.726557 40.7142636,234.084679 L43.0513327,231.860534 L35.4629088,211.267435 L30.3281253,214.556611 C18.0035171,222.450256 12.7333604,238.154752 17.798577,251.90042 C20.246577,258.54463 24.7834618,264.005263 30.5236645,267.623733 L28.4648627,268.335008 L32.2026691,275.681084 C48.2782452,307.255664 80.8768811,328.08021 116.092734,329.608134 C118.869766,344.712374 123.872936,357.575534 131.008236,367.943588 C108.323812,398.78055 97.8229825,432.650779 98.9999779,471.230851 L73.0365124,471.230851 C66.5912406,471.230851 61.3492866,476.480737 61.3492866,482.929252 L61.3492866,491.833359 L156.223388,491.833359 L156.223388,482.929252 C156.223388,478.356771 153.553526,474.352557 149.652144,472.444534 C148.302171,443.897576 155.584125,419.742458 172.515185,396.816076 C181.579554,399.316828 191.702466,400.583198 202.663941,400.583198 C213.631056,400.583198 223.761489,399.313065 232.835259,396.80855 C249.734356,419.642729 257.050153,443.835481 255.69642,472.444534 C251.795038,474.352557 249.125176,478.356771 249.125176,482.929252 L249.125176,491.833359 L344.001158,491.833359 L344.001158,482.929252 C344.001158,476.480737 338.755443,471.230851 332.312052,471.230851 L306.348586,471.230851 C307.527462,432.645134 297.026632,398.771141 274.329047,367.930416 C281.453065,357.573653 286.450595,344.729309 289.225747,329.647649 C324.808236,328.481008 357.884439,307.560496 374.11607,275.681084 L377.855757,268.336889 L375.793194,267.623733 C381.533397,264.005263 386.070282,258.54463 388.518282,251.90042 C393.583499,238.154752 388.315222,222.450256 375.988734,214.556611" id="Fill-61" fill="#2E1B36"></path>
                        <path d="M241.132888,302.058089 L230.33875,313.03957 L237.129976,316.025795 C237.870769,316.353208 237.951617,317.373078 237.26911,317.811509 L213.187709,333.316547 C211.933626,334.123788 210.542289,332.503662 211.533147,331.385944 L221.834676,319.736467 L213.281718,318.063654 C212.38675,317.89054 212.157368,316.718253 212.916962,316.217727 L238.80334,299.216753 C240.653441,298.001189 242.685921,300.47936 241.132888,302.058089 L241.132888,302.058089 Z M202.664317,339.095185 L248.39416,339.095185 L248.39416,293.33086 L202.664317,293.33086 L202.664317,339.095185 Z" id="Fill-62" fill="#2E1B36"></path>
                    </g>
                </g>
            </g>
        </g>
    </g>
</svg>