<?xml version="1.0" encoding="UTF-8"?>
<svg width="217px" height="262px" viewBox="0 0 217 262" version="1.1" xmlns="http://www.w3.org/2000/svg" xmlns:xlink="http://www.w3.org/1999/xlink">
    <!-- Generator: Sketch 59.1 (86144) - https://sketch.com -->
    <title>Hallebot</title>
    <desc>Created with Sketch.</desc>
    <g id="Hallebot" stroke="none" stroke-width="1" fill="none" fill-rule="evenodd">
        <polyline id="Fill-32" fill="#2E1B36" points="27.399 100.5932 31.202 109.1472 22.389 103.3802 20.193 113.6802 16.454 103.8352 8.623 110.8772 11.385 100.7142 0.909 101.8092 9.118 95.2102 0 89.9382 10.52 89.4242 6.242 79.8002 15.055 85.5682 17.25 75.2672 20.989 85.1132 28.821 78.0702 26.366 87.1052"></polyline>
        <polyline id="Fill-33" fill="#2E1B36" points="189.9361 87.1049 187.4811 78.0699 195.3131 85.1129 199.0521 75.2669 201.2481 85.5679 210.0601 79.7999 205.7821 89.4239 216.3021 89.9379 207.1841 95.2099 215.3921 101.8089 204.9171 100.7139 207.6791 110.8769 199.8471 103.8349 196.1091 113.6809 193.9141 103.3799 185.1011 109.1469 188.9041 100.5929"></polyline>
        <path d="M136.4136,257.4672 L136.4136,256.6482 C136.4136,255.4462 137.3626,254.4422 138.5736,254.3632 L139.7116,254.2902 L139.7906,253.1542 C141.0266,235.5782 136.6196,220.9612 125.9216,207.1542 L125.3626,206.4342 L124.4256,206.6232 C119.5466,208.1822 113.9486,208.9722 107.7886,208.9722 C101.6336,208.9722 96.0386,208.1832 91.1616,206.6262 L90.2996,206.3532 L89.7406,207.0622 C78.9696,220.9612 74.5616,235.5782 75.7986,253.1542 L75.8776,254.2902 L77.0156,254.3632 C78.2276,254.4422 79.1766,255.4462 79.1766,256.6482 L79.1766,257.4672 L36.5416,257.4672 L36.5416,256.6482 C36.5416,255.3782 37.5756,254.3442 38.8456,254.3442 L56.7596,254.3442 L56.6816,252.9652 C55.4686,231.6292 61.1196,213.1132 73.9556,196.3612 L74.5636,195.5672 L73.9556,194.7742 C69.5806,189.0682 66.6526,181.5422 65.2486,172.4102 L65.0796,171.3032 L63.9596,171.3032 C45.8866,171.3032 28.9126,160.9182 20.6656,144.8342 L24.8136,143.4032 L24.4596,140.8672 C19.3496,140.5902 14.9056,137.3122 13.1376,132.5162 C11.2666,127.4442 12.8556,121.7162 16.9126,118.2982 L18.3516,122.2012 C16.2176,124.6652 15.5666,128.1052 16.7076,131.2002 C18.0056,134.7182 21.3996,137.0812 25.1536,137.0802 C26.2116,137.0802 27.2566,136.8942 28.2566,136.5252 C30.5066,135.6952 32.3006,134.0362 33.3076,131.8532 C34.3136,129.6702 34.4116,127.2282 33.5816,124.9772 C32.4406,121.8842 29.7116,119.6892 26.4896,119.2002 L25.0486,115.2952 C25.0806,115.2952 25.1126,115.2952 25.1446,115.2952 C30.4826,115.2952 35.3076,118.6562 37.1516,123.6602 C38.9756,128.6032 37.5246,134.2582 33.5446,137.7282 L34.8276,139.9452 L38.9536,138.5192 C44.2316,146.7862 53.5756,152.0422 63.3606,152.2442 L64.3826,152.2642 L64.6466,151.2772 C65.3766,148.5492 66.9846,146.3772 69.5656,144.6382 L72.1196,142.9152 L69.1046,142.2802 C63.3726,141.0732 62.0866,139.9582 61.8316,139.6552 C62.1216,139.3132 63.7306,137.9322 71.5856,136.5552 L76.4586,135.7002 L71.7966,134.0422 C66.8106,132.2672 62.8366,130.0122 59.6476,127.1482 C54.8776,122.8632 51.8616,117.0372 50.4256,109.3362 L50.2266,108.2702 L48.3216,108.2702 C46.4336,108.2702 44.7756,106.9932 44.2916,105.1652 L44.0346,104.1952 L42.7626,104.1952 C40.6086,104.1952 38.6816,102.6312 37.9666,100.3022 L37.7476,99.5902 L24.8506,96.5082 L24.3786,97.4092 C23.2696,99.5342 21.1016,100.8542 18.7216,100.8542 C15.2036,100.8542 12.3416,97.9922 12.3416,94.4742 C12.3416,90.9562 15.2036,88.0942 18.7216,88.0942 C21.1026,88.0942 23.2696,89.4132 24.3776,91.5382 L24.8476,92.4402 L37.6556,89.3802 L37.8716,88.6572 C38.5626,86.3222 40.4916,84.7542 42.6686,84.7542 L44.0346,84.7542 L44.2916,83.7832 C44.7756,81.9542 46.4336,80.6772 48.3216,80.6772 L51.1666,80.6772 L51.3966,79.6592 C54.3166,66.6592 59.9386,52.0112 66.8226,39.4712 C74.1116,26.1922 89.1266,3.9122 107.7886,3.9122 C126.4506,3.9122 141.4666,26.1922 148.7556,39.4722 C155.6406,52.0132 161.2626,66.6602 164.1816,79.6592 L164.4096,80.6772 L168.4126,80.6772 C170.3016,80.6772 171.9586,81.9542 172.4426,83.7832 L172.6996,84.7542 L174.0646,84.7542 C176.2426,84.7542 178.1706,86.3222 178.8616,88.6572 L179.0756,89.3802 L191.8866,92.4402 L192.3566,91.5382 C193.4646,89.4132 195.6316,88.0942 198.0136,88.0942 C201.5306,88.0942 204.3926,90.9562 204.3926,94.4742 C204.3926,97.9922 201.5306,100.8542 198.0136,100.8542 C195.6316,100.8542 193.4636,99.5342 192.3546,97.4092 L191.8856,96.5082 L178.9866,99.5902 L178.7676,100.3032 C178.0546,102.6312 176.1276,104.1952 173.9726,104.1952 L172.6996,104.1952 L172.4426,105.1652 C171.9586,106.9932 170.3016,108.2702 168.4126,108.2702 L165.3456,108.2702 L165.1506,109.3412 C162.8336,122.0602 156.2886,129.6852 143.9266,134.0672 L139.2656,135.7182 L144.1336,136.5802 C151.8656,137.9492 153.4596,139.3152 153.7476,139.6552 C153.4926,139.9582 152.2046,141.0732 146.4736,142.2802 L143.4576,142.9152 L146.0136,144.6382 C148.5986,146.3802 150.2076,148.5562 150.9346,151.2922 L151.1936,152.2632 L152.1986,152.2612 C162.1956,152.2472 171.7486,146.9832 177.1496,138.5192 L181.2776,139.9452 L182.5606,137.7282 C178.5786,134.2582 177.1286,128.6042 178.9526,123.6612 C180.7976,118.6562 185.6226,115.2952 190.9596,115.2952 C190.9906,115.2952 191.0226,115.2952 191.0556,115.2952 L189.6156,119.2002 C186.3926,119.6892 183.6636,121.8842 182.5216,124.9782 C180.8086,129.6302 183.1976,134.8092 187.8496,136.5252 C188.8496,136.8942 189.8926,137.0802 190.9516,137.0802 C194.7066,137.0802 198.0996,134.7172 199.3956,131.1992 C200.5376,128.1052 199.8866,124.6642 197.7536,122.2012 L199.1926,118.2982 C203.2476,121.7162 204.8376,127.4442 202.9676,132.5172 C201.1996,137.3122 196.7546,140.5902 191.6436,140.8672 L191.2906,143.4032 L195.4386,144.8352 C187.1916,160.9182 170.2166,171.3032 152.1576,171.3032 L150.4996,171.3032 L150.3296,172.4092 C148.9276,181.5382 145.9996,189.0612 141.6286,194.7662 L141.0206,195.5592 L141.6286,196.3532 C154.4696,213.1082 160.1226,231.6262 158.9096,252.9652 L158.8306,254.3442 L176.7446,254.3442 C178.0156,254.3442 179.0496,255.3782 179.0496,256.6482 L179.0496,257.4672 L136.4136,257.4672 Z" id="Fill-34" fill="#FEFEFE"></path>
        <path d="M127.0103,159.0156 L113.2423,168.0516 C112.8383,168.3166 112.9603,168.9396 113.4363,169.0326 L117.9863,169.9206 L112.5063,176.1126 C111.9803,176.7056 112.7193,177.5666 113.3863,177.1386 L126.1953,168.8976 C126.5573,168.6646 126.5143,168.1226 126.1203,167.9496 L122.5083,166.3616 L128.2493,160.5256 C129.0753,159.6866 127.9943,158.3696 127.0103,159.0156" id="Fill-35" fill="#EFC319"></path>
        <path d="M22.5958,93.2714 C22.0788,94.9294 20.5478,96.1444 18.7208,96.1444 C16.8958,96.1444 15.3648,94.9294 14.8478,93.2714 C14.7288,93.6544 14.6458,94.0524 14.6458,94.4744 C14.6458,96.7214 16.4738,98.5494 18.7208,98.5494 C20.9698,98.5494 22.7978,96.7214 22.7978,94.4744 C22.7978,94.0524 22.7148,93.6544 22.5958,93.2714" id="Fill-36" fill="#2E1B36"></path>
        <path d="M198.0133,98.5497 C200.2603,98.5497 202.0883,96.7217 202.0883,94.4737 C202.0883,94.0527 202.0053,93.6537 201.8863,93.2717 C201.3693,94.9287 199.8383,96.1447 198.0133,96.1447 C196.1873,96.1447 194.6563,94.9287 194.1383,93.2717 C194.0193,93.6537 193.9373,94.0527 193.9373,94.4737 C193.9373,96.7217 195.7653,98.5497 198.0133,98.5497" id="Fill-37" fill="#2E1B36"></path>
        <path d="M101.3746,19.0605 C102.0186,19.0605 102.5406,19.5825 102.5406,20.2265 C102.5406,20.8705 102.0186,21.3915 101.3746,21.3915 C100.7306,21.3915 100.2086,20.8705 100.2086,20.2265 C100.2086,19.5825 100.7306,19.0605 101.3746,19.0605 M101.3746,22.7875 C102.6246,22.7875 103.6386,21.7735 103.6386,20.5225 C103.6386,19.2725 102.6246,18.2585 101.3746,18.2585 C100.1246,18.2585 99.1106,19.2725 99.1106,20.5225 C99.1106,21.7735 100.1246,22.7875 101.3746,22.7875" id="Fill-38" fill="#2E1B36"></path>
        <path d="M101.3746,35.0966 C102.0186,35.0966 102.5406,35.6186 102.5406,36.2626 C102.5406,36.9066 102.0186,37.4276 101.3746,37.4276 C100.7306,37.4276 100.2086,36.9066 100.2086,36.2626 C100.2086,35.6186 100.7306,35.0966 101.3746,35.0966 M101.3746,38.8236 C102.6246,38.8236 103.6386,37.8096 103.6386,36.5586 C103.6386,35.3086 102.6246,34.2946 101.3746,34.2946 C100.1246,34.2946 99.1106,35.3086 99.1106,36.5586 C99.1106,37.8096 100.1246,38.8236 101.3746,38.8236" id="Fill-39" fill="#2E1B36"></path>
        <path d="M114.2037,27.0785 C114.8477,27.0785 115.3697,27.6005 115.3697,28.2445 C115.3697,28.8885 114.8477,29.4095 114.2037,29.4095 C113.5597,29.4095 113.0387,28.8885 113.0387,28.2445 C113.0387,27.6005 113.5597,27.0785 114.2037,27.0785 M114.2037,30.8055 C115.4547,30.8055 116.4687,29.7915 116.4687,28.5405 C116.4687,27.2905 115.4547,26.2765 114.2037,26.2765 C112.9527,26.2765 111.9387,27.2905 111.9387,28.5405 C111.9387,29.7915 112.9527,30.8055 114.2037,30.8055" id="Fill-40" fill="#2E1B36"></path>
        <path d="M101.3746,51.1332 C102.0186,51.1332 102.5406,51.6542 102.5406,52.2992 C102.5406,52.9422 102.0186,53.4642 101.3746,53.4642 C100.7306,53.4642 100.2086,52.9422 100.2086,52.2992 C100.2086,51.6542 100.7306,51.1332 101.3746,51.1332 M101.3746,54.8602 C102.6246,54.8602 103.6386,53.8462 103.6386,52.5952 C103.6386,51.3452 102.6246,50.3312 101.3746,50.3312 C100.1246,50.3312 99.1106,51.3452 99.1106,52.5952 C99.1106,53.8462 100.1246,54.8602 101.3746,54.8602" id="Fill-41" fill="#2E1B36"></path>
        <path d="M114.2037,43.1152 C114.8477,43.1152 115.3697,43.6362 115.3697,44.2812 C115.3697,44.9242 114.8477,45.4462 114.2037,45.4462 C113.5597,45.4462 113.0387,44.9242 113.0387,44.2812 C113.0387,43.6362 113.5597,43.1152 114.2037,43.1152 M114.2037,46.8422 C115.4547,46.8422 116.4687,45.8282 116.4687,44.5772 C116.4687,43.3272 115.4547,42.3132 114.2037,42.3132 C112.9527,42.3132 111.9387,43.3272 111.9387,44.5772 C111.9387,45.8282 112.9527,46.8422 114.2037,46.8422" id="Fill-42" fill="#2E1B36"></path>
        <path d="M101.3746,67.1694 C102.0186,67.1694 102.5406,67.6904 102.5406,68.3354 C102.5406,68.9784 102.0186,69.5004 101.3746,69.5004 C100.7306,69.5004 100.2086,68.9784 100.2086,68.3354 C100.2086,67.6904 100.7306,67.1694 101.3746,67.1694 M101.3746,70.8964 C102.6246,70.8964 103.6386,69.8824 103.6386,68.6314 C103.6386,67.3814 102.6246,66.3674 101.3746,66.3674 C100.1246,66.3674 99.1106,67.3814 99.1106,68.6314 C99.1106,69.8824 100.1246,70.8964 101.3746,70.8964" id="Fill-43" fill="#2E1B36"></path>
        <path d="M114.2037,59.1513 C114.8477,59.1513 115.3697,59.6723 115.3697,60.3173 C115.3697,60.9603 114.8477,61.4823 114.2037,61.4823 C113.5597,61.4823 113.0387,60.9603 113.0387,60.3173 C113.0387,59.6723 113.5597,59.1513 114.2037,59.1513 M114.2037,62.8783 C115.4547,62.8783 116.4687,61.8643 116.4687,60.6133 C116.4687,59.3633 115.4547,58.3493 114.2037,58.3493 C112.9527,58.3493 111.9387,59.3633 111.9387,60.6133 C111.9387,61.8643 112.9527,62.8783 114.2037,62.8783" id="Fill-44" fill="#2E1B36"></path>
        <path d="M101.3746,83.2055 C102.0186,83.2055 102.5406,83.7265 102.5406,84.3715 C102.5406,85.0145 102.0186,85.5365 101.3746,85.5365 C100.7306,85.5365 100.2086,85.0145 100.2086,84.3715 C100.2086,83.7265 100.7306,83.2055 101.3746,83.2055 M101.3746,86.9325 C102.6246,86.9325 103.6386,85.9185 103.6386,84.6675 C103.6386,83.4175 102.6246,82.4035 101.3746,82.4035 C100.1246,82.4035 99.1106,83.4175 99.1106,84.6675 C99.1106,85.9185 100.1246,86.9325 101.3746,86.9325" id="Fill-45" fill="#2E1B36"></path>
        <path d="M114.2037,75.1874 C114.8477,75.1874 115.3697,75.7084 115.3697,76.3534 C115.3697,76.9964 114.8477,77.5184 114.2037,77.5184 C113.5597,77.5184 113.0387,76.9964 113.0387,76.3534 C113.0387,75.7084 113.5597,75.1874 114.2037,75.1874 M114.2037,78.9144 C115.4547,78.9144 116.4687,77.9004 116.4687,76.6494 C116.4687,75.3994 115.4547,74.3854 114.2037,74.3854 C112.9527,74.3854 111.9387,75.3994 111.9387,76.6494 C111.9387,77.9004 112.9527,78.9144 114.2037,78.9144" id="Fill-46" fill="#2E1B36"></path>
        <path d="M101.3746,99.2416 C102.0186,99.2416 102.5406,99.7636 102.5406,100.4076 C102.5406,101.0506 102.0186,101.5726 101.3746,101.5726 C100.7306,101.5726 100.2086,101.0506 100.2086,100.4076 C100.2086,99.7636 100.7306,99.2416 101.3746,99.2416 M101.3746,102.9686 C102.6246,102.9686 103.6386,101.9546 103.6386,100.7036 C103.6386,99.4536 102.6246,98.4396 101.3746,98.4396 C100.1246,98.4396 99.1106,99.4536 99.1106,100.7036 C99.1106,101.9546 100.1246,102.9686 101.3746,102.9686" id="Fill-47" fill="#2E1B36"></path>
        <path d="M114.2037,93.5546 C113.5597,93.5546 113.0387,93.0326 113.0387,92.3886 C113.0387,91.7456 113.5597,91.2236 114.2037,91.2236 C114.8477,91.2236 115.3697,91.7456 115.3697,92.3886 C115.3697,93.0326 114.8477,93.5546 114.2037,93.5546 M114.2037,90.4216 C112.9527,90.4216 111.9387,91.4356 111.9387,92.6856 C111.9387,93.9366 112.9527,94.9506 114.2037,94.9506 C115.4547,94.9506 116.4687,93.9366 116.4687,92.6856 C116.4687,91.4356 115.4547,90.4216 114.2037,90.4216" id="Fill-48" fill="#2E1B36"></path>
        <path d="M101.3746,133.6449 C100.7306,133.6449 100.2086,133.1229 100.2086,132.4789 C100.2086,131.8359 100.7306,131.3139 101.3746,131.3139 C102.0186,131.3139 102.5406,131.8359 102.5406,132.4789 C102.5406,133.1229 102.0186,133.6449 101.3746,133.6449 M101.3746,130.5119 C100.1246,130.5119 99.1106,131.5259 99.1106,132.7759 C99.1106,134.0269 100.1246,135.0409 101.3746,135.0409 C102.6246,135.0409 103.6386,134.0269 103.6386,132.7759 C103.6386,131.5259 102.6246,130.5119 101.3746,130.5119" id="Fill-49" fill="#2E1B36"></path>
        <path d="M114.2037,125.6269 C113.5597,125.6269 113.0387,125.1049 113.0387,124.4609 C113.0387,123.8179 113.5597,123.2959 114.2037,123.2959 C114.8477,123.2959 115.3697,123.8179 115.3697,124.4609 C115.3697,125.1049 114.8477,125.6269 114.2037,125.6269 M114.2037,122.4939 C112.9527,122.4939 111.9387,123.5079 111.9387,124.7579 C111.9387,126.0089 112.9527,127.0229 114.2037,127.0229 C115.4547,127.0229 116.4687,126.0089 116.4687,124.7579 C116.4687,123.5079 115.4547,122.4939 114.2037,122.4939" id="Fill-50" fill="#2E1B36"></path>
        <path d="M86.6197,93.2763 C86.6197,96.4813 85.3377,97.6833 83.3347,97.6833 C81.3297,97.6833 80.0487,96.4813 80.0487,93.2763 L80.0487,65.4713 C80.0487,62.2663 81.3297,61.0633 83.3347,61.0633 C85.3377,61.0633 86.6197,62.2663 86.6197,65.4713 L86.6197,93.2763 Z M91.5877,93.2763 L91.5877,65.4713 C91.5877,58.8193 87.5807,57.0563 83.3347,57.0563 C79.0877,57.0563 75.0807,58.8193 75.0807,65.4713 L75.0807,93.2763 C75.0807,99.9273 79.0877,101.6903 83.3347,101.6903 C87.5807,101.6903 91.5877,99.9273 91.5877,93.2763 L91.5877,93.2763 Z" id="Fill-51" fill="#2E1B36"></path>
        <path d="M132.2447,101.6923 C134.2477,101.6923 135.5297,100.4903 135.5297,97.2853 L135.5297,61.4623 C135.5297,58.2563 134.2477,57.0543 132.2447,57.0543 C130.2407,57.0543 128.9587,58.2563 128.9587,61.4623 L128.9587,97.2853 C128.9587,100.4903 130.2407,101.6923 132.2447,101.6923" id="Fill-52" fill="#2E1B36"></path>
        <path d="M76.543,157.5063 C77.187,157.5063 77.709,158.0283 77.709,158.6723 C77.709,159.3153 77.187,159.8373 76.543,159.8373 C75.899,159.8373 75.377,159.3153 75.377,158.6723 C75.377,158.0283 75.899,157.5063 76.543,157.5063 M76.543,161.2333 C77.793,161.2333 78.807,160.2193 78.807,158.9683 C78.807,157.7183 77.793,156.7043 76.543,156.7043 C75.293,156.7043 74.279,157.7183 74.279,158.9683 C74.279,160.2193 75.293,161.2333 76.543,161.2333" id="Fill-53" fill="#2E1B36"></path>
        <path d="M86.6031,166.6899 C86.6031,166.0459 87.1241,165.5239 87.7691,165.5239 C88.4121,165.5239 88.9341,166.0459 88.9341,166.6899 C88.9341,167.3339 88.4121,167.8559 87.7691,167.8559 C87.1241,167.8559 86.6031,167.3339 86.6031,166.6899 M90.0331,166.9869 C90.0331,165.7359 89.0191,164.7229 87.7691,164.7229 C86.5181,164.7229 85.5041,165.7359 85.5041,166.9869 C85.5041,168.2369 86.5181,169.2509 87.7691,169.2509 C89.0191,169.2509 90.0331,168.2369 90.0331,166.9869" id="Fill-54" fill="#2E1B36"></path>
        <path d="M89.3721,150.29 C90.0161,150.29 90.5381,150.812 90.5381,151.456 C90.5381,152.099 90.0161,152.621 89.3721,152.621 C88.7281,152.621 88.2061,152.099 88.2061,151.456 C88.2061,150.812 88.7281,150.29 89.3721,150.29 M89.3721,154.017 C90.6221,154.017 91.6361,153.003 91.6361,151.752 C91.6361,150.502 90.6221,149.488 89.3721,149.488 C88.1221,149.488 87.1081,150.502 87.1081,151.752 C87.1081,153.003 88.1221,154.017 89.3721,154.017" id="Fill-55" fill="#2E1B36"></path>
        <path d="M75.7413,175.8735 C75.0973,175.8735 74.5753,175.3515 74.5753,174.7075 C74.5753,174.0645 75.0973,173.5425 75.7413,173.5425 C76.3853,173.5425 76.9073,174.0645 76.9073,174.7075 C76.9073,175.3515 76.3853,175.8735 75.7413,175.8735 M78.0053,175.0045 C78.0053,173.7545 76.9913,172.7405 75.7413,172.7405 C74.4913,172.7405 73.4773,173.7545 73.4773,175.0045 C73.4773,176.2555 74.4913,177.2695 75.7413,177.2695 C76.9913,177.2695 78.0053,176.2555 78.0053,175.0045" id="Fill-56" fill="#2E1B36"></path>
        <path d="M87.4049,182.726 C87.4049,182.082 87.9259,181.56 88.5709,181.56 C89.2139,181.56 89.7359,182.082 89.7359,182.726 C89.7359,183.37 89.2139,183.892 88.5709,183.892 C87.9259,183.892 87.4049,183.37 87.4049,182.726 M90.8349,183.023 C90.8349,181.772 89.8209,180.759 88.5709,180.759 C87.3199,180.759 86.3059,181.772 86.3059,183.023 C86.3059,184.273 87.3199,185.287 88.5709,185.287 C89.8209,185.287 90.8349,184.273 90.8349,183.023" id="Fill-57" fill="#2E1B36"></path>
        <path d="M77.7828,190.7446 C77.7828,190.1006 78.3048,189.5786 78.9488,189.5786 C79.5928,189.5786 80.1138,190.1006 80.1138,190.7446 C80.1138,191.3886 79.5928,191.9096 78.9488,191.9096 C78.3048,191.9096 77.7828,191.3886 77.7828,190.7446 M81.2128,191.0416 C81.2128,189.7906 80.1988,188.7766 78.9488,188.7766 C77.6978,188.7766 76.6838,189.7906 76.6838,191.0416 C76.6838,192.2916 77.6978,193.3056 78.9488,193.3056 C80.1988,193.3056 81.2128,192.2916 81.2128,191.0416" id="Fill-58" fill="#2E1B36"></path>
        <path d="M90.1739,199.9281 C89.5299,199.9281 89.0079,199.4061 89.0079,198.7621 C89.0079,198.1181 89.5299,197.5971 90.1739,197.5971 C90.8179,197.5971 91.3399,198.1181 91.3399,198.7621 C91.3399,199.4061 90.8179,199.9281 90.1739,199.9281 M90.1739,196.7951 C88.9239,196.7951 87.9099,197.8091 87.9099,199.0591 C87.9099,200.3101 88.9239,201.3241 90.1739,201.3241 C91.4239,201.3241 92.4379,200.3101 92.4379,199.0591 C92.4379,197.8091 91.4239,196.7951 90.1739,196.7951" id="Fill-59" fill="#2E1B36"></path>
        <path d="M185.733,137.9941 C186.015,137.2291 186.864,136.8371 187.629,137.1191 C188.395,137.4021 188.787,138.2511 188.504,139.0161 C188.222,139.7821 187.373,140.1731 186.608,139.8911 C185.842,139.6091 185.451,138.7601 185.733,137.9941 L185.733,137.9941 Z M191.582,149.1831 L188.83,147.9351 C189.521,146.7941 190.154,145.6051 190.74,144.3771 L193.863,145.4561 C193.16,146.7391 192.395,147.9811 191.582,149.1831 L191.582,149.1831 Z M181.177,160.2161 L179.433,158.4681 C180.862,157.3621 182.207,156.1731 183.457,154.8921 L185.552,156.4131 C184.171,157.7691 182.709,159.0381 181.177,160.2161 L181.177,160.2161 Z M153.361,167.9391 C154.582,167.8281 155.779,167.6851 156.955,167.5121 L157.078,169.9331 C155.846,170.0641 154.607,170.1531 153.361,170.1861 L153.361,167.9391 Z M107.789,207.8711 C99.218,207.8711 92.379,206.3031 86.916,203.6821 C81.231,181.0001 80.913,161.9891 85.978,145.7581 C92.506,146.2521 99.92,146.5331 107.789,146.5331 C121.886,146.5331 134.536,145.6361 143.202,144.2131 C147.73,146.3721 150.285,149.7021 150.285,154.8391 C150.285,169.3441 150.285,207.8711 107.789,207.8711 L107.789,207.8711 Z M149.711,253.0401 C149.734,252.2811 149.749,251.5241 149.754,250.7721 L157.909,250.7721 C157.881,251.5221 157.835,252.2821 157.79,253.0401 L149.711,253.0401 Z M131.431,205.9941 C131.811,206.5611 132.194,207.1251 132.558,207.6951 L129.371,210.0121 C128.852,209.2621 128.325,208.5131 127.771,207.7691 C128.696,207.3841 129.972,206.8001 131.431,205.9941 L131.431,205.9941 Z M136.178,205.0611 C135.851,204.5841 135.511,204.1121 135.172,203.6401 C137.273,202.1421 139.465,200.2511 141.422,197.8971 C141.969,198.6271 142.485,199.3631 143.004,200.0981 L136.178,205.0611 Z M139.739,210.7601 C138.902,209.2841 138.01,207.8301 137.069,206.3971 L143.926,201.4101 C145.041,203.0421 146.075,204.6901 147.053,206.3501 L139.739,210.7601 Z M142.656,216.4551 C141.988,215.0061 141.277,213.5761 140.515,212.1641 L147.868,207.7321 C148.789,209.3641 149.63,211.0141 150.423,212.6761 L142.656,216.4551 Z M145.14,222.5361 C144.581,220.9771 143.982,219.4341 143.322,217.9151 L151.119,214.1221 C151.915,215.8821 152.62,217.6671 153.276,219.4671 L145.14,222.5361 Z M147.128,228.9671 C146.694,227.3071 146.222,225.6621 145.681,224.0451 L153.827,220.9731 C154.48,222.8921 155.04,224.8401 155.538,226.8101 L147.128,228.9671 Z M157.072,234.4811 L148.62,235.9831 C148.314,234.1391 147.962,232.3131 147.534,230.5191 L155.921,228.3671 C156.384,230.3751 156.766,232.4131 157.072,234.4811 L157.072,234.4811 Z M149.442,242.5971 C149.298,240.9031 149.123,239.2211 148.881,237.5651 L157.287,236.0721 C157.53,237.9781 157.711,239.9111 157.824,241.8731 L149.442,242.5971 Z M141.077,249.1681 C141.106,247.7391 141.108,246.3231 141.059,244.9301 L144.965,244.5931 C145.054,246.1101 145.104,247.6331 145.098,249.1681 L141.077,249.1681 Z M140.903,253.0401 C140.955,252.2811 141.006,251.5211 141.037,250.7721 L145.062,250.7721 C145.043,251.5261 145.016,252.2821 144.974,253.0401 L140.903,253.0401 Z M140.598,239.0371 L144.336,238.3731 C144.559,239.9041 144.733,241.4441 144.857,242.9941 L140.973,243.3281 C140.89,241.8801 140.769,240.4491 140.598,239.0371 L140.598,239.0371 Z M143.024,231.6761 C143.439,233.3691 143.792,235.0741 144.082,236.7891 L140.379,237.4481 C140.139,235.8051 139.852,234.1801 139.489,232.5821 L143.024,231.6761 Z M141.292,225.7021 C141.785,227.1661 142.229,228.6401 142.628,230.1211 L139.096,231.0281 C138.749,229.6611 138.368,228.3071 137.927,226.9711 L141.292,225.7021 Z M139.105,219.9671 C139.705,221.3661 140.247,222.7751 140.757,224.1901 L137.393,225.4591 C136.921,224.1441 136.414,222.8391 135.85,221.5501 L139.105,219.9671 Z M132.574,215.0791 C131.852,213.8261 131.08,212.5811 130.263,211.3451 L133.404,209.0621 C134.238,210.4161 135.031,211.7781 135.776,213.1491 L132.574,215.0791 Z M136.533,214.5661 C137.212,215.8711 137.843,217.1851 138.442,218.5051 L135.181,220.0921 C134.614,218.8781 134.007,217.6741 133.357,216.4801 L136.533,214.5661 Z M157.947,249.1681 L149.752,249.1681 C149.735,247.4941 149.681,245.8331 149.574,244.1951 L157.9,243.4771 C157.973,245.3461 157.987,247.2441 157.947,249.1681 L157.947,249.1681 Z M86.219,210.0121 L83.032,207.6951 C83.397,207.1251 83.779,206.5611 84.158,205.9941 C85.618,206.8001 86.894,207.3851 87.819,207.7691 C87.265,208.5131 86.738,209.2621 86.219,210.0121 L86.219,210.0121 Z M57.681,250.7721 L65.836,250.7721 C65.841,251.5241 65.857,252.2811 65.879,253.0401 L57.8,253.0401 C57.755,252.2821 57.709,251.5221 57.681,250.7721 L57.681,250.7721 Z M72.586,200.0981 C73.106,199.3631 73.621,198.6271 74.169,197.8971 C76.125,200.2511 78.317,202.1421 80.418,203.6391 C80.078,204.1121 79.739,204.5841 79.411,205.0611 L72.586,200.0981 Z M75.851,210.7601 L68.537,206.3501 C69.516,204.6911 70.549,203.0421 71.664,201.4101 L78.522,206.3971 C77.58,207.8301 76.688,209.2851 75.851,210.7601 L75.851,210.7601 Z M79.814,213.1491 C80.56,211.7791 81.352,210.4161 82.186,209.0621 L85.326,211.3461 C84.51,212.5811 83.738,213.8261 83.016,215.0791 L79.814,213.1491 Z M77.148,218.5051 C77.747,217.1851 78.379,215.8711 79.058,214.5661 L82.233,216.4801 C81.582,217.6741 80.976,218.8781 80.409,220.0911 L77.148,218.5051 Z M74.833,224.1901 C75.343,222.7751 75.885,221.3661 76.485,219.9661 L79.74,221.5501 C79.177,222.8391 78.669,224.1441 78.197,225.4581 L74.833,224.1901 Z M72.962,230.1211 C73.361,228.6401 73.805,227.1661 74.299,225.7021 L77.663,226.9711 C77.223,228.3071 76.841,229.6611 76.493,231.0281 L72.962,230.1211 Z M75.211,237.4481 L71.508,236.7891 C71.799,235.0741 72.151,233.3691 72.566,231.6761 L76.101,232.5821 C75.738,234.1801 75.451,235.8051 75.211,237.4481 L75.211,237.4481 Z M70.625,244.5931 L74.531,244.9301 C74.482,246.3231 74.483,247.7391 74.514,249.1681 L70.492,249.1681 C70.486,247.6331 70.536,246.1101 70.625,244.5931 L70.625,244.5931 Z M74.617,243.3281 L70.733,242.9941 C70.858,241.4441 71.031,239.9041 71.255,238.3731 L74.992,239.0371 C74.821,240.4491 74.7,241.8801 74.617,243.3281 L74.617,243.3281 Z M66.709,237.5651 C66.468,239.2211 66.291,240.9031 66.149,242.5971 L57.766,241.8731 C57.879,239.9111 58.061,237.9781 58.304,236.0721 L66.709,237.5651 Z M68.056,230.5191 C67.627,232.3131 67.276,234.1391 66.97,235.9831 L58.518,234.4811 C58.824,232.4131 59.206,230.3751 59.669,228.3671 L68.056,230.5191 Z M69.909,224.0451 C69.367,225.6621 68.897,227.3071 68.463,228.9671 L60.053,226.8101 C60.551,224.8401 61.11,222.8921 61.764,220.9731 L69.909,224.0451 Z M65.167,212.6771 C65.961,211.0141 66.802,209.3641 67.723,207.7321 L75.075,212.1631 C74.313,213.5751 73.602,215.0061 72.935,216.4551 L65.167,212.6771 Z M72.269,217.9151 C71.608,219.4341 71.009,220.9771 70.45,222.5361 L62.315,219.4671 C62.971,217.6671 63.676,215.8821 64.472,214.1221 L72.269,217.9151 Z M57.69,243.4761 L66.016,244.1951 C65.909,245.8331 65.856,247.4941 65.838,249.1681 L57.643,249.1681 C57.603,247.2441 57.616,245.3461 57.69,243.4761 L57.69,243.4761 Z M70.616,253.0401 C70.574,252.2821 70.547,251.5261 70.528,250.7721 L74.553,250.7721 C74.584,251.5211 74.635,252.2811 74.687,253.0401 L70.616,253.0401 Z M72.377,144.2131 C75.797,144.7751 79.839,145.2531 84.346,145.6281 C79.403,161.7401 79.636,180.4851 85.026,202.6981 C65.299,191.6991 65.294,166.0701 65.294,154.8391 C65.294,149.7021 67.848,146.3721 72.377,144.2131 L72.377,144.2131 Z M59.026,169.9321 L59.15,167.5121 C60.325,167.6851 61.523,167.8281 62.744,167.9391 L62.744,170.1861 C61.497,170.1531 60.258,170.0641 59.026,169.9321 L59.026,169.9321 Z M30.552,156.4131 L32.649,154.8921 C33.898,156.1731 35.243,157.3621 36.672,158.4681 L34.927,160.2161 C33.397,159.0381 31.934,157.7691 30.552,156.4131 L30.552,156.4131 Z M25.364,144.3771 C25.951,145.6051 26.584,146.7941 27.275,147.9351 L24.524,149.1831 C23.71,147.9811 22.945,146.7391 22.242,145.4561 L25.364,144.3771 Z M40.197,142.0741 L31.171,146.1681 C30.536,145.1561 29.942,144.0961 29.392,142.9871 L38.505,139.8391 C39.033,140.6151 39.605,141.3541 40.197,142.0741 L40.197,142.0741 Z M53.247,161.9021 L55.692,152.2051 C56.547,152.4481 57.417,152.6421 58.292,152.8101 L57.772,163.0401 C56.22,162.7151 54.714,162.3321 53.247,161.9021 L53.247,161.9021 Z M52.199,166.0551 C53.926,166.5331 55.708,166.9431 57.557,167.2651 L57.431,169.7341 C55.45,169.4531 53.495,169.0471 51.577,168.5201 L52.199,166.0551 Z M44.788,163.3831 C46.649,164.2401 48.604,164.9911 50.653,165.6261 L50.038,168.0691 C47.819,167.3791 45.656,166.5301 43.567,165.5301 L44.788,163.3831 Z M43.351,162.6651 L42.13,164.8131 C40.078,163.7461 38.106,162.5321 36.227,161.1831 C36.754,160.6561 37.342,160.0651 37.974,159.4321 C39.655,160.6281 41.45,161.7041 43.351,162.6651 L43.351,162.6651 Z M51.913,150.8521 C52.651,151.1701 53.4,151.4621 54.161,151.7221 L51.713,161.4261 C50.064,160.8881 48.47,160.2801 46.942,159.5931 L51.913,150.8521 Z M48.36,149.0431 C49.044,149.4471 49.738,149.8311 50.45,150.1821 L45.488,158.9081 C43.939,158.1401 42.462,157.2861 41.059,156.3431 C44.006,153.3911 47.027,150.3691 48.36,149.0431 L48.36,149.0431 Z M44.457,146.3261 C45.262,146.9851 46.103,147.5971 46.968,148.1711 C46.648,148.4861 46.262,148.8701 45.788,149.3441 C44.49,150.6391 42.762,152.3681 41.035,154.0971 L39.735,155.3991 C38.472,154.4641 37.274,153.4521 36.149,152.3521 L44.457,146.3261 Z M31.552,153.7061 L29.415,155.2561 C28.001,153.7691 26.679,152.1881 25.462,150.5191 L28.149,149.3011 C29.183,150.8581 30.317,152.3281 31.552,153.7061 L31.552,153.7061 Z M32.066,147.5241 L41.297,143.3361 C41.909,144.0001 42.541,144.6451 43.207,145.2511 L35.008,151.1991 C33.952,150.0611 32.976,148.8311 32.066,147.5241 L32.066,147.5241 Z M62.744,163.8851 C61.597,163.7281 60.47,163.5471 59.361,163.3431 L59.884,153.0721 C60.831,153.2021 61.783,153.3001 62.744,153.3391 L62.744,163.8851 Z M50.46,95.3511 C50.46,67.3861 77.679,6.1441 106.987,5.0401 L106.987,109.8461 L91.881,109.8461 C89.45,109.8461 87.471,111.8241 87.471,114.2551 C87.471,116.6871 89.45,118.6651 91.881,118.6651 L106.987,118.6651 L106.987,137.5761 C83.657,137.4951 68.832,133.9171 60.384,126.3291 C53.335,119.9981 50.46,111.0231 50.46,95.3511 L50.46,95.3511 Z M38.966,99.7981 L38.871,99.4021 C38.066,96.0441 38.036,92.7331 38.781,89.5621 L38.89,89.0971 C39.402,87.1861 40.947,85.8551 42.669,85.8551 L42.843,85.8551 L42.843,103.0941 L42.762,103.0941 C41.036,103.0941 39.486,101.7411 38.966,99.7981 L38.966,99.7981 Z M26.301,95.7231 C26.314,95.6461 26.319,95.5691 26.33,95.4921 C26.344,95.3861 26.36,95.2811 26.37,95.1741 C26.392,94.9411 26.406,94.7081 26.406,94.4741 C26.406,94.2401 26.392,94.0071 26.37,93.7731 C26.36,93.6671 26.344,93.5631 26.331,93.4581 C26.32,93.3801 26.314,93.3021 26.301,93.2251 L36.081,90.8891 C36.079,90.9021 36.079,90.9151 36.077,90.9281 C35.823,92.6711 35.772,94.4431 35.925,96.2341 C35.928,96.2601 35.931,96.2861 35.933,96.3111 C35.983,96.8651 36.053,97.4211 36.141,97.9791 C36.146,98.0121 36.148,98.0441 36.153,98.0771 L26.301,95.7231 Z M18.721,99.7521 C15.811,99.7521 13.443,97.3851 13.443,94.4741 C13.443,91.5631 15.811,89.1951 18.721,89.1951 C21.022,89.1951 22.978,90.6771 23.699,92.7341 L23.7,92.7351 C23.796,93.0101 23.867,93.2891 23.917,93.5691 C23.921,93.5951 23.925,93.6221 23.929,93.6481 C23.974,93.9231 24,94.1991 24,94.4741 C24,94.7501 23.974,95.0261 23.929,95.3001 C23.925,95.3261 23.921,95.3521 23.917,95.3791 C23.867,95.6591 23.796,95.9371 23.7,96.2121 L23.698,96.2181 C22.975,98.2731 21.021,99.7521 18.721,99.7521 L18.721,99.7521 Z M165.119,95.3511 C165.119,123.2021 156.343,137.4181 108.591,137.5761 L108.591,118.6651 L123.697,118.6651 C126.129,118.6651 128.107,116.6871 128.107,114.2551 C128.107,111.8241 126.129,109.8461 123.697,109.8461 L108.591,109.8461 L108.591,5.0401 C137.9,6.1441 165.119,67.3861 165.119,95.3511 L165.119,95.3511 Z M177.845,89.0991 L177.952,89.5531 L177.955,89.5681 C178.696,92.7331 178.667,96.0361 177.867,99.3861 C177.864,99.3961 177.862,99.4061 177.86,99.4161 L177.77,99.7911 C177.253,101.7381 175.7,103.0941 173.972,103.0941 L173.891,103.0941 L173.891,85.8551 L174.065,85.8551 C175.788,85.8551 177.334,87.1871 177.845,89.0991 L177.845,89.0991 Z M190.433,93.2251 C190.421,93.2981 190.416,93.3721 190.406,93.4461 C190.391,93.5561 190.374,93.6651 190.364,93.7771 C190.342,94.0091 190.329,94.2421 190.329,94.4741 C190.329,94.7071 190.342,94.9391 190.364,95.1711 C190.374,95.2831 190.391,95.3931 190.406,95.5041 C190.416,95.5771 190.421,95.6501 190.433,95.7231 L180.582,98.0771 C180.587,98.0411 180.589,98.0071 180.594,97.9721 C180.682,97.4191 180.752,96.8671 180.8,96.3181 L180.809,96.2311 C180.962,94.4391 180.911,92.6661 180.656,90.9221 C180.655,90.9111 180.655,90.9001 180.653,90.8891 L190.433,93.2251 Z M198.013,89.1951 C200.923,89.1951 203.292,91.5631 203.292,94.4741 C203.292,97.3851 200.923,99.7521 198.013,99.7521 C195.722,99.7521 193.773,98.2831 193.045,96.2401 L193.035,96.2121 C192.938,95.9371 192.867,95.6581 192.817,95.3771 C192.813,95.3521 192.809,95.3271 192.805,95.3021 C192.76,95.0261 192.734,94.7501 192.734,94.4741 C192.734,94.1981 192.76,93.9221 192.805,93.6471 L192.817,93.5711 C192.867,93.2901 192.938,93.0111 193.035,92.7351 L193.043,92.7121 C193.77,90.6671 195.72,89.1951 198.013,89.1951 L198.013,89.1951 Z M123.697,112.2511 C124.802,112.2511 125.702,113.1501 125.702,114.2551 C125.702,115.3611 124.802,116.2601 123.697,116.2601 L91.881,116.2601 C90.776,116.2601 89.877,115.3611 89.877,114.2551 C89.877,113.1501 90.776,112.2511 91.881,112.2511 L123.697,112.2511 Z M156.22,153.0721 L156.743,163.3431 C155.634,163.5471 154.507,163.7291 153.361,163.8851 L153.361,153.3391 C154.321,153.3001 155.274,153.2021 156.22,153.0721 L156.22,153.0721 Z M175.07,154.0971 C173.342,152.3681 171.615,150.6391 170.316,149.3441 C169.842,148.8701 169.457,148.4861 169.136,148.1721 C170.002,147.5971 170.842,146.9851 171.648,146.3261 L179.956,152.3521 C178.832,153.4521 177.633,154.4641 176.37,155.3991 L175.07,154.0971 Z M170.617,158.9081 L165.654,150.1821 C166.366,149.8311 167.061,149.4471 167.744,149.0431 C169.077,150.3691 172.099,153.3911 175.046,156.3431 C173.643,157.2861 172.166,158.1401 170.617,158.9081 L170.617,158.9081 Z M172.754,162.6651 C174.655,161.7041 176.45,160.6281 178.13,159.4321 C178.762,160.0651 179.351,160.6551 179.878,161.1831 C177.999,162.5321 176.027,163.7461 173.975,164.8131 L172.754,162.6651 Z M165.452,165.6261 C167.501,164.9911 169.457,164.2401 171.317,163.3831 L172.538,165.5301 C170.449,166.5301 168.286,167.3791 166.068,168.0691 L165.452,165.6261 Z M163.906,166.0551 L164.528,168.5201 C162.61,169.0471 160.655,169.4531 158.673,169.7341 L158.548,167.2651 C160.397,166.9431 162.178,166.5331 163.906,166.0551 L163.906,166.0551 Z M161.944,151.7211 C162.705,151.4621 163.454,151.1701 164.191,150.8521 L169.162,159.5931 C167.634,160.2801 166.042,160.8881 164.392,161.4261 L161.944,151.7211 Z M162.858,161.9021 C161.39,162.3321 159.884,162.7151 158.334,163.0401 L157.814,152.8101 C158.689,152.6421 159.557,152.4481 160.413,152.2041 L162.858,161.9021 Z M187.956,149.3001 L190.643,150.5191 C189.426,152.1881 188.104,153.7691 186.689,155.2571 L184.552,153.7061 C185.788,152.3281 186.921,150.8581 187.956,149.3001 L187.956,149.3001 Z M181.096,151.1991 L172.898,145.2511 C173.563,144.6451 174.195,144.0001 174.807,143.3361 L184.039,147.5241 C183.129,148.8311 182.152,150.0611 181.096,151.1991 L181.096,151.1991 Z M177.599,139.8391 L186.712,142.9871 C186.163,144.0961 185.569,145.1561 184.933,146.1681 L175.908,142.0741 C176.501,141.3541 177.072,140.6151 177.599,139.8391 L177.599,139.8391 Z M28.475,137.1191 C29.24,136.8371 30.089,137.2291 30.372,137.9941 C30.654,138.7601 30.262,139.6091 29.497,139.8911 C28.732,140.1731 27.882,139.7821 27.601,139.0161 C27.318,138.2511 27.71,137.4021 28.475,137.1191 L28.475,137.1191 Z M198.568,116.2211 L196.249,122.5121 C198.407,124.5641 199.266,127.7811 198.172,130.7481 C196.706,134.7251 192.277,136.7681 188.299,135.3021 C184.323,133.8351 182.28,129.4061 183.747,125.4291 C184.84,122.4621 187.584,120.5731 190.558,120.4131 L192.878,114.1231 C186.459,113.2361 180.062,116.8801 177.728,123.2091 C175.645,128.8591 177.42,134.9761 181.704,138.7121 L176.601,136.9501 L176.091,137.7531 C170.931,145.8881 161.778,150.9441 152.196,150.9571 C151.351,147.7831 149.44,145.3751 146.742,143.5561 C152.006,142.4481 155.096,141.1041 155.096,139.6551 C155.096,137.9991 151.062,136.4831 144.362,135.2961 C158.187,130.3961 164.221,121.7201 166.433,109.5751 L168.413,109.5751 C170.953,109.5751 173.083,107.8441 173.704,105.4991 L173.972,105.4991 C176.706,105.4991 179.14,103.5361 180.014,100.6851 L191.199,98.0131 C192.482,100.4731 195.052,102.1581 198.013,102.1581 C202.25,102.1581 205.697,98.7111 205.697,94.4741 C205.697,90.2371 202.25,86.7901 198.013,86.7901 C195.053,86.7901 192.482,88.4751 191.2,90.9341 L180.113,88.2871 C179.266,85.4261 176.818,83.4491 174.065,83.4491 L173.704,83.4491 C173.083,81.1041 170.953,79.3731 168.413,79.3731 L165.454,79.3731 C162.594,66.6401 156.976,51.7371 149.9,38.8451 C142.471,25.3121 127.123,2.6081 107.789,2.6081 C88.455,2.6081 73.107,25.3121 65.679,38.8451 C58.603,51.7361 52.984,66.6401 50.124,79.3731 L48.322,79.3731 C45.782,79.3731 43.651,81.1041 43.031,83.4491 L42.669,83.4491 C39.918,83.4491 37.469,85.4261 36.621,88.2861 L25.535,90.9351 C24.252,88.4751 21.682,86.7901 18.721,86.7901 C14.484,86.7901 11.038,90.2371 11.038,94.4741 C11.038,98.7111 14.484,102.1581 18.721,102.1581 C21.682,102.1581 24.252,100.4731 25.535,98.0131 L36.719,100.6851 C37.594,103.5361 40.029,105.4991 42.762,105.4991 L43.031,105.4991 C43.651,107.8441 45.782,109.5751 48.322,109.5751 L49.143,109.5751 C50.432,116.4891 53.159,123.0731 58.776,128.1191 C62.062,131.0691 66.222,133.4421 71.361,135.2711 C64.575,136.4611 60.483,137.9881 60.483,139.6551 C60.483,141.1041 63.572,142.4481 68.836,143.5561 C66.144,145.3721 64.233,147.7741 63.387,150.9401 C53.996,150.7471 45.079,145.7401 40.012,137.7531 L39.503,136.9501 L34.401,138.7121 C38.685,134.9761 40.46,128.8591 38.376,123.2091 C36.042,116.8801 29.646,113.2361 23.227,114.1231 L25.547,120.4131 C28.521,120.5731 31.264,122.4621 32.358,125.4291 C33.824,129.4061 31.782,133.8351 27.805,135.3021 C23.827,136.7681 19.399,134.7251 17.932,130.7481 C16.838,127.7811 17.698,124.5641 19.856,122.5121 L17.536,116.2211 C12.079,119.7141 9.58,126.6381 11.914,132.9681 C13.922,138.4141 18.939,141.8741 24.388,142.1691 L18.824,144.0911 L19.451,145.3231 C27.897,161.8981 45.363,172.6071 63.946,172.6071 L63.96,172.6071 C65.146,180.3281 67.647,188.6881 72.921,195.5681 C59.9,212.5611 54.149,231.3911 55.379,253.0401 L38.845,253.0401 C36.861,253.0401 35.237,254.6631 35.237,256.6481 L35.237,258.7711 L80.481,258.7711 L80.481,256.6481 C80.481,254.7411 78.977,253.1831 77.099,253.0631 C75.89,235.8591 80.231,221.4631 90.699,207.9531 L90.765,207.8691 C95.567,209.4021 101.19,210.2771 107.789,210.2771 C114.393,210.2771 120.019,209.4011 124.823,207.8671 L124.891,207.9531 C135.36,221.4641 139.701,235.8601 138.491,253.0631 C136.613,253.1831 135.109,254.7421 135.109,256.6481 L135.109,258.7711 L180.353,258.7711 L180.353,256.6481 C180.353,254.6631 178.729,253.0401 176.745,253.0401 L160.212,253.0401 C161.442,231.3881 155.688,212.5551 142.664,195.5601 C147.933,188.6811 150.433,180.3251 151.619,172.6071 L152.158,172.6071 C170.742,172.6071 188.208,161.8981 196.654,145.3231 L197.281,144.0911 L191.716,142.1691 C197.167,141.8741 202.182,138.4141 204.191,132.9681 C206.525,126.6381 204.026,119.7141 198.568,116.2211 L198.568,116.2211 Z" id="Fill-60" fill="#2E1B36"></path>
        <path d="M202.9674,132.517 C201.1994,137.312 196.7544,140.59 191.6454,140.867 L191.2904,143.403 L195.4394,144.835 C187.1924,160.918 170.2164,171.303 152.1574,171.303 L150.4994,171.303 L150.3294,172.409 C148.9274,181.538 145.9994,189.061 141.6284,194.766 L141.0214,195.559 L141.6284,196.353 C154.4694,213.108 160.1224,231.626 158.9094,252.965 L158.8304,254.344 L176.7444,254.344 C178.0154,254.344 179.0494,255.378 179.0494,256.648 L179.0494,257.467 L136.4134,257.467 L136.4134,256.648 C136.4134,255.446 137.3634,254.442 138.5734,254.364 L139.7114,254.29 L139.7904,253.154 C141.0274,235.579 136.6194,220.961 125.9214,207.155 L125.3634,206.434 L124.4254,206.623 C119.5464,208.182 113.9484,208.972 107.7894,208.972 C101.6334,208.972 96.0394,208.183 91.1614,206.626 L90.3004,206.353 L89.7404,207.062 C78.9694,220.961 74.5624,235.579 75.7994,253.154 L75.8784,254.29 L77.0154,254.364 C78.2284,254.442 79.1764,255.446 79.1764,256.648 L79.1764,257.467 L36.5414,257.467 L36.5414,256.648 C36.5414,255.378 37.5754,254.344 38.8454,254.344 L56.7594,254.344 L56.6814,252.965 C55.4684,231.629 61.1194,213.114 73.9564,196.361 L74.5634,195.567 L73.9564,194.774 C69.5814,189.068 66.6534,181.542 65.2494,172.41 L65.0794,171.303 L63.9604,171.303 C45.8864,171.303 28.9124,160.918 20.6664,144.834 L24.8134,143.403 L24.4594,140.867 C19.3494,140.59 14.9054,137.312 13.1374,132.517 C11.2664,127.444 12.8564,121.716 16.9124,118.298 L18.3524,122.202 C16.2174,124.665 15.5664,128.105 16.7074,131.2 C18.0054,134.718 21.4004,137.081 25.1534,137.08 C26.2124,137.08 27.2564,136.894 28.2564,136.525 C30.5074,135.695 32.3004,134.036 33.3074,131.853 C34.3144,129.67 34.4114,127.228 33.5814,124.977 C32.4404,121.884 29.7124,119.689 26.4894,119.2 L25.0494,115.295 C25.0814,115.295 25.1134,115.295 25.1444,115.295 C30.4824,115.295 35.3074,118.657 37.1514,123.661 C38.9754,128.603 37.5254,134.258 33.5444,137.728 L34.8274,139.945 L38.9534,138.519 C44.2324,146.786 53.5754,152.042 63.3604,152.244 L64.3834,152.264 L64.6464,151.277 C65.3764,148.549 66.9854,146.377 69.5654,144.638 L72.1194,142.915 L69.1044,142.281 C63.3734,141.073 62.0864,139.958 61.8314,139.655 C62.1214,139.313 63.7314,137.933 71.5854,136.555 L76.4594,135.701 L71.7974,134.042 C66.8104,132.267 62.8374,130.012 59.6474,127.148 C54.8774,122.864 51.8614,117.038 50.4254,109.336 L50.2274,108.27 L48.3214,108.27 C46.4334,108.27 44.7764,106.994 44.2924,105.165 L44.0344,104.195 L42.7624,104.195 C40.6084,104.195 38.6814,102.631 37.9674,100.302 L37.7474,99.59 L24.8504,96.508 L24.3794,97.409 C23.2694,99.534 21.1024,100.854 18.7214,100.854 C15.2034,100.854 12.3414,97.992 12.3414,94.474 C12.3414,90.956 15.2034,88.094 18.7214,88.094 C21.1034,88.094 23.2694,89.413 24.3784,91.538 L24.8474,92.44 L37.6554,89.38 L37.8714,88.657 C38.5634,86.322 40.4914,84.754 42.6694,84.754 L44.0344,84.754 L44.2924,83.783 C44.7764,81.954 46.4334,80.677 48.3214,80.677 L51.1674,80.677 L51.3964,79.659 C54.3174,66.659 59.9394,52.012 66.8224,39.472 C74.1114,26.192 89.1274,3.913 107.7894,3.913 C126.4504,3.913 141.4664,26.192 148.7554,39.473 C155.6404,52.013 161.2624,66.661 164.1814,79.659 L164.4094,80.677 L168.4124,80.677 C170.3014,80.677 171.9584,81.954 172.4434,83.783 L172.6994,84.754 L174.0654,84.754 C176.2424,84.754 178.1704,86.322 178.8624,88.657 L179.0754,89.38 L191.8864,92.44 L192.3574,91.538 C193.4644,89.413 195.6314,88.094 198.0134,88.094 C201.5304,88.094 204.3934,90.956 204.3934,94.474 C204.3934,97.992 201.5304,100.854 198.0134,100.854 C195.6314,100.854 193.4634,99.534 192.3554,97.41 L191.8854,96.508 L178.9874,99.59 L178.7674,100.303 C178.0544,102.631 176.1274,104.195 173.9724,104.195 L172.6994,104.195 L172.4434,105.165 C171.9584,106.994 170.3014,108.27 168.4124,108.27 L165.3454,108.27 L165.1514,109.341 C162.8334,122.06 156.2884,129.685 143.9264,134.067 L139.2654,135.719 L144.1334,136.58 C151.8654,137.949 153.4594,139.315 153.7474,139.655 C153.4924,139.958 152.2044,141.073 146.4734,142.281 L143.4574,142.915 L146.0134,144.638 C148.5984,146.38 150.2074,148.557 150.9354,151.292 L151.1944,152.263 L152.1984,152.262 C162.1964,152.247 171.7484,146.983 177.1504,138.519 L181.2784,139.945 L182.5614,137.728 C178.5784,134.258 177.1284,128.604 178.9524,123.661 C180.7974,118.657 185.6224,115.295 190.9594,115.295 C190.9904,115.295 191.0234,115.295 191.0554,115.295 L189.6154,119.2 C186.3934,119.689 183.6634,121.884 182.5224,124.978 C180.8084,129.63 183.1974,134.809 187.8494,136.525 C188.8494,136.894 189.8934,137.08 190.9514,137.08 C194.7064,137.08 198.0994,134.717 199.3964,131.2 C200.5374,128.105 199.8864,124.664 197.7534,122.202 L199.1924,118.298 C203.2474,121.716 204.8374,127.444 202.9674,132.517 M199.9744,114.024 L197.2414,112.277 L193.2064,123.22 L194.4494,124.402 C195.9264,125.807 196.4264,127.943 195.7264,129.845 C194.9924,131.833 193.0724,133.168 190.9504,133.168 C190.3554,133.168 189.7664,133.062 189.2024,132.854 C187.9324,132.386 186.9194,131.449 186.3504,130.215 C185.7804,128.98 185.7264,127.601 186.1954,126.331 C186.8974,124.428 188.6634,123.128 190.6974,123.018 L192.4104,122.926 L196.4464,111.983 L193.2344,111.539 C192.4824,111.435 191.7164,111.383 190.9574,111.383 C183.9904,111.383 177.6914,115.773 175.2814,122.307 C173.8634,126.151 173.9614,130.324 175.3674,134.027 L173.8904,136.355 C169.5354,143.219 162.0474,147.673 154.0294,148.277 C153.5164,147.06 152.8454,145.929 152.0204,144.886 C155.2984,143.799 157.7034,142.248 157.7034,139.655 C157.7034,137.482 156.0834,135.869 152.3624,134.558 C160.9884,129.71 166.2264,122.439 168.5614,112.182 C171.5054,112.128 174.1394,110.476 175.5094,107.966 C178.2624,107.453 180.6404,105.584 181.9374,102.908 L190.0374,100.972 C191.9704,103.351 194.8754,104.767 198.0124,104.767 C203.6884,104.767 208.3054,100.149 208.3054,94.474 C208.3054,88.799 203.6884,84.182 198.0124,84.182 C194.8754,84.182 191.9704,85.596 190.0374,87.975 L182.0484,86.067 C180.7504,83.339 178.3214,81.445 175.4974,80.962 C174.1034,78.42 171.4074,76.765 168.4114,76.765 L167.5244,76.765 C164.4154,63.945 158.8824,49.788 152.1864,37.59 C144.4794,23.551 128.4644,0 107.7894,0 C87.1124,0 71.0974,23.551 63.3914,37.59 C56.6954,49.789 51.1604,63.949 48.0534,76.769 C45.1654,76.864 42.5894,78.496 41.2364,80.962 C38.4134,81.446 35.9854,83.339 34.6864,86.067 L26.6964,87.975 C24.7634,85.596 21.8584,84.182 18.7214,84.182 C13.0464,84.182 8.4294,88.799 8.4294,94.474 C8.4294,100.149 13.0464,104.767 18.7214,104.767 C21.8584,104.767 24.7634,103.351 26.6964,100.972 L34.7974,102.908 C36.0944,105.584 38.4714,107.453 41.2244,107.966 C42.4084,110.137 44.5394,111.665 46.9974,112.074 C48.7384,119.669 52.0324,125.568 57.0334,130.059 C58.8944,131.73 60.9774,133.211 63.3214,134.521 C59.5254,135.839 57.8744,137.463 57.8744,139.655 C57.8744,142.248 60.2794,143.799 63.5574,144.886 C62.7454,145.913 62.0824,147.027 61.5714,148.223 C53.7474,147.469 46.4544,143.038 42.2144,136.354 L40.7374,134.027 C42.1434,130.324 42.2414,126.151 40.8234,122.307 C38.4134,115.772 32.1144,111.383 25.1464,111.383 C24.3884,111.383 23.6224,111.435 22.8694,111.539 L19.6584,111.983 L23.6924,122.926 L25.4064,123.018 C27.4414,123.128 29.2094,124.428 29.9104,126.331 C30.8794,128.959 29.5304,131.886 26.9024,132.854 C26.3374,133.062 25.7484,133.168 25.1534,133.168 C23.0304,133.168 21.1124,131.833 20.3804,129.846 C19.6774,127.942 20.1774,125.806 21.6544,124.402 L22.8974,123.22 L18.8614,112.276 L16.1304,114.024 C9.5754,118.219 6.7724,126.565 9.4664,133.87 C10.7684,137.401 13.1814,140.303 16.2344,142.226 L15.1394,142.604 L17.1274,146.508 C25.6774,163.288 43.0154,174.355 61.7454,175.167 C63.2224,183.194 65.8834,190.03 69.6784,195.54 C57.6134,211.928 52.0284,229.928 52.6544,250.431 L38.8454,250.431 C35.4174,250.431 32.6294,253.221 32.6294,256.648 L32.6294,261.38 L83.0894,261.38 L83.0894,256.648 C83.0894,254.218 81.6694,252.09 79.5944,251.076 C78.8764,235.905 82.7494,223.068 91.7544,210.884 C96.5754,212.213 101.9594,212.886 107.7894,212.886 C113.6224,212.886 119.0104,212.211 123.8364,210.88 C132.8244,223.015 136.7154,235.872 135.9954,251.076 C133.9204,252.09 132.5004,254.218 132.5004,256.648 L132.5004,261.38 L182.9614,261.38 L182.9614,256.648 C182.9614,253.221 180.1714,250.431 176.7444,250.431 L162.9354,250.431 C163.5624,229.925 157.9774,211.923 145.9054,195.533 C149.6944,190.029 152.3524,183.203 153.8284,175.188 C172.7534,174.568 190.3454,163.45 198.9784,146.508 L200.9674,142.605 L199.8704,142.226 C202.9234,140.303 205.3364,137.401 206.6384,133.87 C209.3324,126.565 206.5304,118.219 199.9744,114.024" id="Fill-61" fill="#2E1B36"></path>
        <path d="M128.2496,160.5258 L122.5086,166.3618 L126.1206,167.9488 C126.5146,168.1228 126.5576,168.6648 126.1946,168.8978 L113.3866,177.1378 C112.7196,177.5668 111.9796,176.7058 112.5066,176.1118 L117.9856,169.9208 L113.4366,169.0318 C112.9606,168.9398 112.8386,168.3168 113.2426,168.0508 L127.0106,159.0158 C127.9946,158.3698 129.0756,159.6868 128.2496,160.5258 L128.2496,160.5258 Z M107.7896,180.2088 L132.1116,180.2088 L132.1116,155.8878 L107.7896,155.8878 L107.7896,180.2088 Z" id="Fill-62" fill="#2E1B36"></path>
    </g>
</svg>