<svg width="154px" height="154px" viewBox="0 0 154 154" version="1.1" xmlns="http://www.w3.org/2000/svg" xmlns:xlink="http://www.w3.org/1999/xlink">
    <g id="Symbols" stroke="none" stroke-width="1" fill="none" fill-rule="evenodd">
        <g id="Home-icons" transform="translate(-530.000000, -337.000000)" stroke="#FFFFFF" stroke-width="4">
            <g id="Group-5-Copy" transform="translate(532.000000, 339.000000)">
                <circle id="Oval-Copy-6" cx="75" cy="75" r="75"></circle>
                <g id="Line-5-+-Line-5-Copy-+-Line-5-Copy-2-+-Line-5-Copy-3-Mask" transform="translate(25.875000, 26.250000)">
                    <circle id="Mask" cx="49.125" cy="48.75" r="48.75"></circle>
                    <line x1="0.375" y1="48.75" x2="97.875" y2="48.75" id="Line-5" stroke-linecap="round"></line>
                    <path d="M15.6906847,83.7496532 C16.1688724,83.3723239 16.631432,83.0152284 17.0783635,82.6783667 C18.1774129,81.84999 19.1819561,81.1439708 20.0919932,80.5603091 C29.7696621,74.3534364 39.4473311,71.25 49.125,71.25 C58.8027986,71.25 68.4805972,74.3535195 78.1583958,80.5605586 C79.0684152,81.1442167 80.0729389,81.8502296 81.171967,82.6785973 C81.6188898,83.0154553 82.0814404,83.3725467 82.5596189,83.7498714" id="Line-5-Copy-4" stroke-linecap="round"></path>
                    <path d="M15.5634433,13.6497575 C15.6059793,13.6834455 15.6483931,13.7169753 15.6906847,13.7503468 C16.1688724,14.1276761 16.631432,14.4847716 17.0783635,14.8216333 C18.1774129,15.65001 19.1819561,16.3560292 20.0919932,16.9396909 C29.7696621,23.1465636 39.4473311,26.25 49.125,26.25 C58.7495825,26.25 68.374165,23.1805178 77.9987475,17.0415534 C78.9109022,16.4597427 79.9172426,15.7558236 81.0177687,14.9297962 C81.4667668,14.5927895 81.9314423,14.2354575 82.4117952,13.8578005" id="Line-5-Copy-5" stroke-linecap="round"></path>
                    <line x1="0.375" y1="48.75" x2="97.875" y2="48.75" id="Line-5-Copy" stroke-linecap="round" transform="translate(49.125000, 48.750000) rotate(90.000000) translate(-49.125000, -48.750000) "></line>
                    <path d="M-12.75,35.625 C3.5,53.125 19.75,61.875 36,61.875 C52.25,61.875 68.5,53.125 84.75,35.625" id="Line-5-Copy-2" stroke-linecap="round" transform="translate(36.000000, 48.750000) rotate(90.000000) translate(-36.000000, -48.750000) "></path>
                    <path d="M13.5,61.875 C29.75,44.375 46,35.625 62.25,35.625 C78.5,35.625 94.75,44.375 111,61.875" id="Line-5-Copy-3" stroke-linecap="round" transform="translate(62.250000, 48.750000) rotate(90.000000) translate(-62.250000, -48.750000) "></path>
                </g>
            </g>
        </g>
    </g>
</svg>