<?xml version="1.0" encoding="UTF-8"?>
<svg width="64px" height="39px" viewBox="0 0 64 39" version="1.1" xmlns="http://www.w3.org/2000/svg" xmlns:xlink="http://www.w3.org/1999/xlink">
    <!-- Generator: Sketch 59.1 (86144) - https://sketch.com -->
    <title>lockup</title>
    <desc>Created with Sketch.</desc>
    <g id="lockup" stroke="none" stroke-width="1" fill="none" fill-rule="evenodd">
        <path d="M34.9688,1.4816 L22.4428,22.8506 C22.0738,23.4786 22.6558,24.2366 23.3578,24.0436 L30.0838,22.2046 L26.8288,34.2086 C26.5178,35.3596 28.0878,36.0276 28.6998,35.0036 L40.4658,15.3456 C40.7988,14.7906 40.3788,14.0876 39.7328,14.1176 L33.8048,14.3876 L37.6478,2.6896 C38.1998,1.0066 35.8648,-0.0464 34.9688,1.4816" id="Fill-2-Copy" fill="#EFC319"></path>
        <polygon id="Fill-10-Copy" fill="#2E1B36" points="0.723 18.6541 16.937 0.0001 25.125 0.0001 7.556 20.0641 25.992 38.1211 17.587 38.1211 0.723 21.8001"></polygon>
        <polygon id="Fill-12-Copy" fill="#2E1B36" points="63.1338 21.8 46.2698 38.121 37.8638 38.121 56.3008 20.065 38.7318 0 46.9198 0 63.1338 18.654"></polygon>
    </g>
</svg>